G04 #@! TF.GenerationSoftware,KiCad,Pcbnew,8.0.1*
G04 #@! TF.CreationDate,2024-04-08T19:57:07+01:00*
G04 #@! TF.ProjectId,hexpansion,68657870-616e-4736-996f-6e2e6b696361,rev?*
G04 #@! TF.SameCoordinates,Original*
G04 #@! TF.FileFunction,Legend,Bot*
G04 #@! TF.FilePolarity,Positive*
%FSLAX46Y46*%
G04 Gerber Fmt 4.6, Leading zero omitted, Abs format (unit mm)*
G04 Created by KiCad (PCBNEW 8.0.1) date 2024-04-08 19:57:07*
%MOMM*%
%LPD*%
G01*
G04 APERTURE LIST*
%ADD10C,0.150000*%
%ADD11C,0.250000*%
%ADD12C,0.200000*%
%ADD13C,0.120000*%
G04 APERTURE END LIST*
D10*
X108695814Y-87932481D02*
X109052957Y-88551070D01*
X109052957Y-88551070D02*
X109165625Y-88650979D01*
X109165625Y-88650979D02*
X109295722Y-88685838D01*
X109295722Y-88685838D02*
X109443250Y-88655649D01*
X109443250Y-88655649D02*
X109525728Y-88608030D01*
X108371028Y-89274697D02*
X108783421Y-89036602D01*
X108783421Y-89036602D02*
X108283421Y-88170576D01*
X107539862Y-89644599D02*
X107604910Y-89662029D01*
X107604910Y-89662029D02*
X107752438Y-89631840D01*
X107752438Y-89631840D02*
X107834916Y-89584221D01*
X107834916Y-89584221D02*
X107934825Y-89471553D01*
X107934825Y-89471553D02*
X107969684Y-89341455D01*
X107969684Y-89341455D02*
X107963305Y-89235167D01*
X107963305Y-89235167D02*
X107909306Y-89046400D01*
X107909306Y-89046400D02*
X107837877Y-88922682D01*
X107837877Y-88922682D02*
X107701400Y-88781535D01*
X107701400Y-88781535D02*
X107612541Y-88722866D01*
X107612541Y-88722866D02*
X107482444Y-88688006D01*
X107482444Y-88688006D02*
X107334916Y-88718195D01*
X107334916Y-88718195D02*
X107252438Y-88765814D01*
X107252438Y-88765814D02*
X107152529Y-88878482D01*
X107152529Y-88878482D02*
X107135100Y-88943531D01*
X106468891Y-89218195D02*
X106826034Y-89836785D01*
X106826034Y-89836785D02*
X106938702Y-89936693D01*
X106938702Y-89936693D02*
X107068799Y-89971553D01*
X107068799Y-89971553D02*
X107216327Y-89941364D01*
X107216327Y-89941364D02*
X107298805Y-89893745D01*
X106144105Y-90560411D02*
X106556498Y-90322316D01*
X106556498Y-90322316D02*
X106056498Y-89456291D01*
X105312939Y-90930314D02*
X105377987Y-90947744D01*
X105377987Y-90947744D02*
X105525515Y-90917554D01*
X105525515Y-90917554D02*
X105607994Y-90869935D01*
X105607994Y-90869935D02*
X105707902Y-90757267D01*
X105707902Y-90757267D02*
X105742761Y-90627170D01*
X105742761Y-90627170D02*
X105736382Y-90520882D01*
X105736382Y-90520882D02*
X105682383Y-90332115D01*
X105682383Y-90332115D02*
X105610954Y-90208397D01*
X105610954Y-90208397D02*
X105474477Y-90067249D01*
X105474477Y-90067249D02*
X105385619Y-90008580D01*
X105385619Y-90008580D02*
X105255521Y-89973721D01*
X105255521Y-89973721D02*
X105107994Y-90003910D01*
X105107994Y-90003910D02*
X105025515Y-90051529D01*
X105025515Y-90051529D02*
X104925607Y-90164197D01*
X104925607Y-90164197D02*
X104908177Y-90229246D01*
X104241968Y-90503910D02*
X104599111Y-91122499D01*
X104599111Y-91122499D02*
X104711779Y-91222408D01*
X104711779Y-91222408D02*
X104841877Y-91257267D01*
X104841877Y-91257267D02*
X104989404Y-91227078D01*
X104989404Y-91227078D02*
X105071883Y-91179459D01*
X103917182Y-91846126D02*
X104329575Y-91608031D01*
X104329575Y-91608031D02*
X103829575Y-90742005D01*
X103086016Y-92216028D02*
X103151065Y-92233458D01*
X103151065Y-92233458D02*
X103298592Y-92203269D01*
X103298592Y-92203269D02*
X103381071Y-92155650D01*
X103381071Y-92155650D02*
X103480979Y-92042982D01*
X103480979Y-92042982D02*
X103515839Y-91912884D01*
X103515839Y-91912884D02*
X103509459Y-91806596D01*
X103509459Y-91806596D02*
X103455460Y-91617829D01*
X103455460Y-91617829D02*
X103384032Y-91494111D01*
X103384032Y-91494111D02*
X103247554Y-91352964D01*
X103247554Y-91352964D02*
X103158696Y-91294295D01*
X103158696Y-91294295D02*
X103028598Y-91259435D01*
X103028598Y-91259435D02*
X102881071Y-91289624D01*
X102881071Y-91289624D02*
X102798592Y-91337243D01*
X102798592Y-91337243D02*
X102698684Y-91449911D01*
X102698684Y-91449911D02*
X102681254Y-91514960D01*
X102015045Y-91789624D02*
X102372188Y-92408214D01*
X102372188Y-92408214D02*
X102484856Y-92508122D01*
X102484856Y-92508122D02*
X102614954Y-92542982D01*
X102614954Y-92542982D02*
X102762481Y-92512793D01*
X102762481Y-92512793D02*
X102844960Y-92465174D01*
X101690259Y-93131840D02*
X102102652Y-92893745D01*
X102102652Y-92893745D02*
X101602652Y-92027720D01*
X100859093Y-93501743D02*
X100924142Y-93519173D01*
X100924142Y-93519173D02*
X101071669Y-93488983D01*
X101071669Y-93488983D02*
X101154148Y-93441364D01*
X101154148Y-93441364D02*
X101254056Y-93328696D01*
X101254056Y-93328696D02*
X101288916Y-93198599D01*
X101288916Y-93198599D02*
X101282536Y-93092311D01*
X101282536Y-93092311D02*
X101228537Y-92903544D01*
X101228537Y-92903544D02*
X101157109Y-92779826D01*
X101157109Y-92779826D02*
X101020631Y-92638678D01*
X101020631Y-92638678D02*
X100931773Y-92580009D01*
X100931773Y-92580009D02*
X100801675Y-92545150D01*
X100801675Y-92545150D02*
X100654148Y-92575339D01*
X100654148Y-92575339D02*
X100571669Y-92622958D01*
X100571669Y-92622958D02*
X100471761Y-92735626D01*
X100471761Y-92735626D02*
X100454331Y-92800675D01*
D11*
X103290809Y-96435901D02*
X103338428Y-96578758D01*
X103338428Y-96578758D02*
X103386047Y-96626377D01*
X103386047Y-96626377D02*
X103481285Y-96673996D01*
X103481285Y-96673996D02*
X103624142Y-96673996D01*
X103624142Y-96673996D02*
X103719380Y-96626377D01*
X103719380Y-96626377D02*
X103767000Y-96578758D01*
X103767000Y-96578758D02*
X103814619Y-96483520D01*
X103814619Y-96483520D02*
X103814619Y-96102568D01*
X103814619Y-96102568D02*
X102814619Y-96102568D01*
X102814619Y-96102568D02*
X102814619Y-96435901D01*
X102814619Y-96435901D02*
X102862238Y-96531139D01*
X102862238Y-96531139D02*
X102909857Y-96578758D01*
X102909857Y-96578758D02*
X103005095Y-96626377D01*
X103005095Y-96626377D02*
X103100333Y-96626377D01*
X103100333Y-96626377D02*
X103195571Y-96578758D01*
X103195571Y-96578758D02*
X103243190Y-96531139D01*
X103243190Y-96531139D02*
X103290809Y-96435901D01*
X103290809Y-96435901D02*
X103290809Y-96102568D01*
X102814619Y-97293044D02*
X102814619Y-97483520D01*
X102814619Y-97483520D02*
X102862238Y-97578758D01*
X102862238Y-97578758D02*
X102957476Y-97673996D01*
X102957476Y-97673996D02*
X103147952Y-97721615D01*
X103147952Y-97721615D02*
X103481285Y-97721615D01*
X103481285Y-97721615D02*
X103671761Y-97673996D01*
X103671761Y-97673996D02*
X103767000Y-97578758D01*
X103767000Y-97578758D02*
X103814619Y-97483520D01*
X103814619Y-97483520D02*
X103814619Y-97293044D01*
X103814619Y-97293044D02*
X103767000Y-97197806D01*
X103767000Y-97197806D02*
X103671761Y-97102568D01*
X103671761Y-97102568D02*
X103481285Y-97054949D01*
X103481285Y-97054949D02*
X103147952Y-97054949D01*
X103147952Y-97054949D02*
X102957476Y-97102568D01*
X102957476Y-97102568D02*
X102862238Y-97197806D01*
X102862238Y-97197806D02*
X102814619Y-97293044D01*
X102814619Y-98007330D02*
X102814619Y-98578758D01*
X103814619Y-98293044D02*
X102814619Y-98293044D01*
X102814619Y-98769235D02*
X102814619Y-99340663D01*
X103814619Y-99054949D02*
X102814619Y-99054949D01*
X102814619Y-99864473D02*
X102814619Y-100054949D01*
X102814619Y-100054949D02*
X102862238Y-100150187D01*
X102862238Y-100150187D02*
X102957476Y-100245425D01*
X102957476Y-100245425D02*
X103147952Y-100293044D01*
X103147952Y-100293044D02*
X103481285Y-100293044D01*
X103481285Y-100293044D02*
X103671761Y-100245425D01*
X103671761Y-100245425D02*
X103767000Y-100150187D01*
X103767000Y-100150187D02*
X103814619Y-100054949D01*
X103814619Y-100054949D02*
X103814619Y-99864473D01*
X103814619Y-99864473D02*
X103767000Y-99769235D01*
X103767000Y-99769235D02*
X103671761Y-99673997D01*
X103671761Y-99673997D02*
X103481285Y-99626378D01*
X103481285Y-99626378D02*
X103147952Y-99626378D01*
X103147952Y-99626378D02*
X102957476Y-99673997D01*
X102957476Y-99673997D02*
X102862238Y-99769235D01*
X102862238Y-99769235D02*
X102814619Y-99864473D01*
X103814619Y-100721616D02*
X102814619Y-100721616D01*
X102814619Y-100721616D02*
X103528904Y-101054949D01*
X103528904Y-101054949D02*
X102814619Y-101388282D01*
X102814619Y-101388282D02*
X103814619Y-101388282D01*
X103719380Y-101864473D02*
X103767000Y-101912092D01*
X103767000Y-101912092D02*
X103814619Y-101864473D01*
X103814619Y-101864473D02*
X103767000Y-101816854D01*
X103767000Y-101816854D02*
X103719380Y-101864473D01*
X103719380Y-101864473D02*
X103814619Y-101864473D01*
X103433666Y-101864473D02*
X102862238Y-101816854D01*
X102862238Y-101816854D02*
X102814619Y-101864473D01*
X102814619Y-101864473D02*
X102862238Y-101912092D01*
X102862238Y-101912092D02*
X103433666Y-101864473D01*
X103433666Y-101864473D02*
X102814619Y-101864473D01*
D12*
X103341695Y-103791101D02*
X103341695Y-103333958D01*
X103341695Y-103562530D02*
X102541695Y-103562530D01*
X102541695Y-103562530D02*
X102655980Y-103486339D01*
X102655980Y-103486339D02*
X102732171Y-103410149D01*
X102732171Y-103410149D02*
X102770266Y-103333958D01*
D10*
X109983333Y-100579819D02*
X109983333Y-101294104D01*
X109983333Y-101294104D02*
X110030952Y-101436961D01*
X110030952Y-101436961D02*
X110126190Y-101532200D01*
X110126190Y-101532200D02*
X110269047Y-101579819D01*
X110269047Y-101579819D02*
X110364285Y-101579819D01*
X109507142Y-101579819D02*
X109507142Y-100579819D01*
X109507142Y-100579819D02*
X109126190Y-100579819D01*
X109126190Y-100579819D02*
X109030952Y-100627438D01*
X109030952Y-100627438D02*
X108983333Y-100675057D01*
X108983333Y-100675057D02*
X108935714Y-100770295D01*
X108935714Y-100770295D02*
X108935714Y-100913152D01*
X108935714Y-100913152D02*
X108983333Y-101008390D01*
X108983333Y-101008390D02*
X109030952Y-101056009D01*
X109030952Y-101056009D02*
X109126190Y-101103628D01*
X109126190Y-101103628D02*
X109507142Y-101103628D01*
X107983333Y-101579819D02*
X108554761Y-101579819D01*
X108269047Y-101579819D02*
X108269047Y-100579819D01*
X108269047Y-100579819D02*
X108364285Y-100722676D01*
X108364285Y-100722676D02*
X108459523Y-100817914D01*
X108459523Y-100817914D02*
X108554761Y-100865533D01*
X108066666Y-96854819D02*
X108399999Y-96378628D01*
X108638094Y-96854819D02*
X108638094Y-95854819D01*
X108638094Y-95854819D02*
X108257142Y-95854819D01*
X108257142Y-95854819D02*
X108161904Y-95902438D01*
X108161904Y-95902438D02*
X108114285Y-95950057D01*
X108114285Y-95950057D02*
X108066666Y-96045295D01*
X108066666Y-96045295D02*
X108066666Y-96188152D01*
X108066666Y-96188152D02*
X108114285Y-96283390D01*
X108114285Y-96283390D02*
X108161904Y-96331009D01*
X108161904Y-96331009D02*
X108257142Y-96378628D01*
X108257142Y-96378628D02*
X108638094Y-96378628D01*
X107209523Y-96188152D02*
X107209523Y-96854819D01*
X107447618Y-95807200D02*
X107685713Y-96521485D01*
X107685713Y-96521485D02*
X107066666Y-96521485D01*
X108116666Y-93799819D02*
X108449999Y-93323628D01*
X108688094Y-93799819D02*
X108688094Y-92799819D01*
X108688094Y-92799819D02*
X108307142Y-92799819D01*
X108307142Y-92799819D02*
X108211904Y-92847438D01*
X108211904Y-92847438D02*
X108164285Y-92895057D01*
X108164285Y-92895057D02*
X108116666Y-92990295D01*
X108116666Y-92990295D02*
X108116666Y-93133152D01*
X108116666Y-93133152D02*
X108164285Y-93228390D01*
X108164285Y-93228390D02*
X108211904Y-93276009D01*
X108211904Y-93276009D02*
X108307142Y-93323628D01*
X108307142Y-93323628D02*
X108688094Y-93323628D01*
X107735713Y-92895057D02*
X107688094Y-92847438D01*
X107688094Y-92847438D02*
X107592856Y-92799819D01*
X107592856Y-92799819D02*
X107354761Y-92799819D01*
X107354761Y-92799819D02*
X107259523Y-92847438D01*
X107259523Y-92847438D02*
X107211904Y-92895057D01*
X107211904Y-92895057D02*
X107164285Y-92990295D01*
X107164285Y-92990295D02*
X107164285Y-93085533D01*
X107164285Y-93085533D02*
X107211904Y-93228390D01*
X107211904Y-93228390D02*
X107783332Y-93799819D01*
X107783332Y-93799819D02*
X107164285Y-93799819D01*
X108128744Y-95399501D02*
X108462077Y-94923310D01*
X108700172Y-95399501D02*
X108700172Y-94399501D01*
X108700172Y-94399501D02*
X108319220Y-94399501D01*
X108319220Y-94399501D02*
X108223982Y-94447120D01*
X108223982Y-94447120D02*
X108176363Y-94494739D01*
X108176363Y-94494739D02*
X108128744Y-94589977D01*
X108128744Y-94589977D02*
X108128744Y-94732834D01*
X108128744Y-94732834D02*
X108176363Y-94828072D01*
X108176363Y-94828072D02*
X108223982Y-94875691D01*
X108223982Y-94875691D02*
X108319220Y-94923310D01*
X108319220Y-94923310D02*
X108700172Y-94923310D01*
X107795410Y-94399501D02*
X107176363Y-94399501D01*
X107176363Y-94399501D02*
X107509696Y-94780453D01*
X107509696Y-94780453D02*
X107366839Y-94780453D01*
X107366839Y-94780453D02*
X107271601Y-94828072D01*
X107271601Y-94828072D02*
X107223982Y-94875691D01*
X107223982Y-94875691D02*
X107176363Y-94970929D01*
X107176363Y-94970929D02*
X107176363Y-95209024D01*
X107176363Y-95209024D02*
X107223982Y-95304262D01*
X107223982Y-95304262D02*
X107271601Y-95351882D01*
X107271601Y-95351882D02*
X107366839Y-95399501D01*
X107366839Y-95399501D02*
X107652553Y-95399501D01*
X107652553Y-95399501D02*
X107747791Y-95351882D01*
X107747791Y-95351882D02*
X107795410Y-95304262D01*
X108116666Y-91894819D02*
X108449999Y-91418628D01*
X108688094Y-91894819D02*
X108688094Y-90894819D01*
X108688094Y-90894819D02*
X108307142Y-90894819D01*
X108307142Y-90894819D02*
X108211904Y-90942438D01*
X108211904Y-90942438D02*
X108164285Y-90990057D01*
X108164285Y-90990057D02*
X108116666Y-91085295D01*
X108116666Y-91085295D02*
X108116666Y-91228152D01*
X108116666Y-91228152D02*
X108164285Y-91323390D01*
X108164285Y-91323390D02*
X108211904Y-91371009D01*
X108211904Y-91371009D02*
X108307142Y-91418628D01*
X108307142Y-91418628D02*
X108688094Y-91418628D01*
X107164285Y-91894819D02*
X107735713Y-91894819D01*
X107449999Y-91894819D02*
X107449999Y-90894819D01*
X107449999Y-90894819D02*
X107545237Y-91037676D01*
X107545237Y-91037676D02*
X107640475Y-91132914D01*
X107640475Y-91132914D02*
X107735713Y-91180533D01*
D13*
X107750000Y-99625000D02*
X107750000Y-99025000D01*
X108450000Y-98325000D02*
X109850000Y-98325000D01*
X109850000Y-100325000D02*
X108450000Y-100325000D01*
X110550000Y-99025000D02*
X110550000Y-99625000D01*
X107750000Y-99025000D02*
G75*
G02*
X108450000Y-98325000I699999J1D01*
G01*
X108450000Y-100325000D02*
G75*
G02*
X107750000Y-99625000I-1J699999D01*
G01*
X109850000Y-98325000D02*
G75*
G02*
X110550000Y-99025000I0J-700000D01*
G01*
X110550000Y-99625000D02*
G75*
G02*
X109850000Y-100325000I-700000J0D01*
G01*
X134686800Y-92349200D02*
X137371800Y-92349200D01*
X137371800Y-90429200D02*
X134686800Y-90429200D01*
X137371800Y-92349200D02*
X137371800Y-90429200D01*
X110537258Y-97042500D02*
X110062742Y-97042500D01*
X110537258Y-95997500D02*
X110062742Y-95997500D01*
X110537258Y-92695500D02*
X110062742Y-92695500D01*
X110537258Y-93740500D02*
X110062742Y-93740500D01*
X110536258Y-94346500D02*
X110061742Y-94346500D01*
X110536258Y-95391500D02*
X110061742Y-95391500D01*
X133609200Y-109409400D02*
X133609200Y-112094400D01*
X135529200Y-109409400D02*
X133609200Y-109409400D01*
X135529200Y-112094400D02*
X135529200Y-109409400D01*
X110537258Y-91044500D02*
X110062742Y-91044500D01*
X110537258Y-92089500D02*
X110062742Y-92089500D01*
X133919600Y-101747200D02*
X136604600Y-101747200D01*
X136604600Y-99827200D02*
X133919600Y-99827200D01*
X136604600Y-101747200D02*
X136604600Y-99827200D01*
X133930000Y-83306800D02*
X136615000Y-83306800D01*
X136615000Y-81386800D02*
X133930000Y-81386800D01*
X136615000Y-83306800D02*
X136615000Y-81386800D01*
M02*
