M48
; DRILL file {KiCad 8.0.1} date 2024-04-08T19:57:09+0100
; FORMAT={-:-/ absolute / inch / decimal}
; #@! TF.CreationDate,2024-04-08T19:57:09+01:00
; #@! TF.GenerationSoftware,Kicad,Pcbnew,8.0.1
; #@! TF.FileFunction,Plated,1,2,PTH
FMAT,2
INCH
; #@! TA.AperFunction,Plated,PTH,ViaDrill
T1C0.0157
; #@! TA.AperFunction,Plated,PTH,ComponentDrill
T2C0.0157
; #@! TA.AperFunction,Plated,PTH,ComponentDrill
T3C0.0866
%
G90
G05
T1
X4.175Y-3.8
X4.1831Y-3.7106
X4.1831Y-4.1535
T2
X4.3642Y-3.4449
X4.3642Y-4.4291
X4.3832Y-3.3989
X4.3832Y-3.4908
X4.3832Y-4.3832
X4.3832Y-4.4751
X4.4291Y-3.3799
X4.4291Y-3.5098
X4.4291Y-4.3642
X4.4291Y-4.4941
X4.4751Y-3.3989
X4.4751Y-3.4908
X4.4751Y-4.3832
X4.4751Y-4.4751
X4.4941Y-3.4449
X4.4941Y-4.4291
T3
X4.4291Y-3.4449
X4.4291Y-4.4291
M30
