G04 #@! TF.GenerationSoftware,KiCad,Pcbnew,8.0.1*
G04 #@! TF.CreationDate,2024-04-08T19:57:07+01:00*
G04 #@! TF.ProjectId,hexpansion,68657870-616e-4736-996f-6e2e6b696361,rev?*
G04 #@! TF.SameCoordinates,Original*
G04 #@! TF.FileFunction,Profile,NP*
%FSLAX46Y46*%
G04 Gerber Fmt 4.6, Leading zero omitted, Abs format (unit mm)*
G04 Created by KiCad (PCBNEW 8.0.1) date 2024-04-08 19:57:07*
%MOMM*%
%LPD*%
G01*
G04 APERTURE LIST*
G04 #@! TA.AperFunction,Profile*
%ADD10C,0.252998*%
G04 #@! TD*
G04 #@! TA.AperFunction,Profile*
%ADD11C,0.050000*%
G04 #@! TD*
G04 #@! TA.AperFunction,Profile*
%ADD12C,0.100000*%
G04 #@! TD*
G04 #@! TA.AperFunction,Profile*
%ADD13C,0.264582*%
G04 #@! TD*
G04 APERTURE END LIST*
D10*
X143140997Y-74887117D02*
X144372285Y-74978725D01*
X160406895Y-116665819D02*
X159579111Y-117534053D01*
X164998436Y-90289306D02*
X165437522Y-91427054D01*
X141772243Y-74856706D02*
X141901291Y-74856392D01*
X151632570Y-122891760D02*
X150497280Y-123339390D01*
X153673698Y-77801558D02*
X154737030Y-78402926D01*
X146939814Y-124348473D02*
X145708696Y-124568328D01*
D11*
X100500000Y-90473725D02*
X115480042Y-81802429D01*
D10*
X166868914Y-101142887D02*
X166772371Y-102412494D01*
X156774925Y-79762000D02*
X157745392Y-80518009D01*
X158680805Y-81323867D02*
X159579117Y-82178726D01*
X141041901Y-124841583D02*
X141104156Y-124866013D01*
D12*
X100250000Y-94000000D02*
G75*
G02*
X100000000Y-93750000I0J250000D01*
G01*
D10*
X163354919Y-87020804D02*
X163956286Y-88084131D01*
X141686504Y-124855455D02*
X141471598Y-124852677D01*
X152583509Y-77253435D02*
X153673698Y-77801558D01*
X141256728Y-124848053D02*
X141041901Y-124841583D01*
X155771455Y-79056689D02*
X156774925Y-79762000D01*
X147995157Y-75610367D02*
X149172287Y-75937023D01*
X141901291Y-74856392D02*
X143140997Y-74887117D01*
X159579117Y-82178726D02*
X160433977Y-83077037D01*
X166147472Y-93762629D02*
X166416638Y-94956357D01*
X146801414Y-75341199D02*
X147995157Y-75610367D01*
D11*
X100500000Y-109526269D02*
X115499995Y-118186522D01*
D13*
X115499995Y-118186522D02*
X141104156Y-124866013D01*
D10*
X158710877Y-118361836D02*
X157803763Y-119147599D01*
X166627467Y-96164646D02*
X166779111Y-97385448D01*
X145593107Y-75130369D02*
X146801414Y-75341199D01*
X148149331Y-124069318D02*
X146939814Y-124348473D01*
X154864851Y-121237049D02*
X153817926Y-121839018D01*
X162631835Y-113834122D02*
X161934827Y-114814282D01*
X150497280Y-123339390D02*
X149335677Y-123732433D01*
X160433977Y-83077037D02*
X161239836Y-84012449D01*
X166772371Y-102412494D02*
X166613387Y-103663642D01*
X153817926Y-121839018D02*
X152739975Y-122391112D01*
D11*
X100000000Y-93750000D02*
X100000000Y-91339750D01*
D10*
X166870719Y-98616713D02*
X166901443Y-99856392D01*
X159579111Y-117534053D02*
X158710877Y-118361836D01*
X166393532Y-104894760D02*
X166114377Y-106104277D01*
X150330754Y-76320319D02*
X151468512Y-76759406D01*
X155879179Y-120586776D02*
X154864851Y-121237049D01*
X163884077Y-111772869D02*
X163282108Y-112819794D01*
X154737030Y-78402926D02*
X155771455Y-79056689D01*
D11*
X100000000Y-91339750D02*
G75*
G02*
X100500021Y-90473762I1000000J-50D01*
G01*
D10*
X166613387Y-103663642D02*
X166393532Y-104894760D01*
D11*
X100000000Y-106250000D02*
X100000000Y-108660243D01*
D10*
X149335677Y-123732433D02*
X148149331Y-124069318D01*
X149172287Y-75937023D02*
X150330754Y-76320319D01*
X166416638Y-94956357D02*
X166627467Y-96164646D01*
X141643219Y-74857689D02*
X141772243Y-74856706D01*
X161239836Y-84012449D02*
X161995845Y-84982913D01*
D12*
X100000000Y-106250000D02*
G75*
G02*
X100250000Y-106000000I250000J0D01*
G01*
D10*
X141471598Y-124852677D02*
X141256728Y-124848053D01*
D13*
X141686188Y-74842468D02*
X141643219Y-74857689D01*
D10*
X163282108Y-112819794D02*
X162631835Y-113834122D01*
X151468512Y-76759406D02*
X152583509Y-77253435D01*
X162701156Y-85986381D02*
X163354919Y-87020804D01*
X164504408Y-89174315D02*
X164998436Y-90289306D01*
D13*
X115480042Y-81802429D02*
X141686188Y-74842468D01*
D10*
X165777493Y-107290622D02*
X165384450Y-108452224D01*
X166779111Y-97385448D02*
X166870719Y-98616713D01*
D11*
X100500000Y-109526268D02*
G75*
G02*
X99999963Y-108660243I500000J866068D01*
G01*
D10*
X164436171Y-110694919D02*
X163884077Y-111772869D01*
X143187940Y-124823854D02*
X141901443Y-124856384D01*
X144372285Y-74978725D02*
X145593107Y-75130369D01*
X157745392Y-80518009D02*
X158680805Y-81323867D01*
X141901443Y-124856384D02*
X141686504Y-124855455D01*
X166114377Y-106104277D02*
X165777493Y-107290622D01*
X166901443Y-99856392D02*
X166868914Y-101142887D01*
X161934827Y-114814282D02*
X161192657Y-115758705D01*
X152739975Y-122391112D02*
X151632570Y-122891760D01*
X157803763Y-119147599D02*
X156859340Y-119889769D01*
X165384450Y-108452224D02*
X164936819Y-109587514D01*
X145708696Y-124568328D02*
X144457547Y-124727312D01*
X156859340Y-119889769D02*
X155879179Y-120586776D01*
X163956286Y-88084131D02*
X164504408Y-89174315D01*
X164936819Y-109587514D02*
X164436171Y-110694919D01*
X165820817Y-92585512D02*
X166147472Y-93762629D01*
X161192657Y-115758705D02*
X160406895Y-116665819D01*
X144457547Y-124727312D02*
X143187940Y-124823854D01*
X165437522Y-91427054D02*
X165820817Y-92585512D01*
X161995845Y-84982913D02*
X162701156Y-85986381D01*
D11*
X98250000Y-104400000D02*
X98250000Y-95600000D01*
X104500000Y-94000000D02*
X100250000Y-94000000D01*
X104500000Y-95400000D02*
X98450000Y-95400000D01*
X104500000Y-104600000D02*
X98450000Y-104600000D01*
X104500000Y-106000000D02*
X100250000Y-106000000D01*
X98250000Y-95600000D02*
G75*
G02*
X98450000Y-95400000I200000J0D01*
G01*
X98450000Y-104600000D02*
G75*
G02*
X98250000Y-104400000I0J200000D01*
G01*
X104500000Y-94000000D02*
G75*
G02*
X105200000Y-94700000I0J-700000D01*
G01*
X104500000Y-104600000D02*
G75*
G02*
X105200000Y-105300000I0J-700000D01*
G01*
X105200000Y-94700000D02*
G75*
G02*
X104500000Y-95400000I-700000J0D01*
G01*
X105200000Y-105300000D02*
G75*
G02*
X104500000Y-106000000I-700000J0D01*
G01*
M02*
