G04 #@! TF.GenerationSoftware,KiCad,Pcbnew,8.0.1*
G04 #@! TF.CreationDate,2024-04-08T19:57:06+01:00*
G04 #@! TF.ProjectId,hexpansion,68657870-616e-4736-996f-6e2e6b696361,rev?*
G04 #@! TF.SameCoordinates,Original*
G04 #@! TF.FileFunction,Copper,L2,Bot*
G04 #@! TF.FilePolarity,Positive*
%FSLAX46Y46*%
G04 Gerber Fmt 4.6, Leading zero omitted, Abs format (unit mm)*
G04 Created by KiCad (PCBNEW 8.0.1) date 2024-04-08 19:57:06*
%MOMM*%
%LPD*%
G01*
G04 APERTURE LIST*
G04 Aperture macros list*
%AMRoundRect*
0 Rectangle with rounded corners*
0 $1 Rounding radius*
0 $2 $3 $4 $5 $6 $7 $8 $9 X,Y pos of 4 corners*
0 Add a 4 corners polygon primitive as box body*
4,1,4,$2,$3,$4,$5,$6,$7,$8,$9,$2,$3,0*
0 Add four circle primitives for the rounded corners*
1,1,$1+$1,$2,$3*
1,1,$1+$1,$4,$5*
1,1,$1+$1,$6,$7*
1,1,$1+$1,$8,$9*
0 Add four rect primitives between the rounded corners*
20,1,$1+$1,$2,$3,$4,$5,0*
20,1,$1+$1,$4,$5,$6,$7,0*
20,1,$1+$1,$6,$7,$8,$9,0*
20,1,$1+$1,$8,$9,$2,$3,0*%
%AMFreePoly0*
4,1,19,0.500000,-0.750000,0.000000,-0.750000,0.000000,-0.744911,-0.071157,-0.744911,-0.207708,-0.704816,-0.327430,-0.627875,-0.420627,-0.520320,-0.479746,-0.390866,-0.500000,-0.250000,-0.500000,0.250000,-0.479746,0.390866,-0.420627,0.520320,-0.327430,0.627875,-0.207708,0.704816,-0.071157,0.744911,0.000000,0.744911,0.000000,0.750000,0.500000,0.750000,0.500000,-0.750000,0.500000,-0.750000,
$1*%
%AMFreePoly1*
4,1,19,0.000000,0.744911,0.071157,0.744911,0.207708,0.704816,0.327430,0.627875,0.420627,0.520320,0.479746,0.390866,0.500000,0.250000,0.500000,-0.250000,0.479746,-0.390866,0.420627,-0.520320,0.327430,-0.627875,0.207708,-0.704816,0.071157,-0.744911,0.000000,-0.744911,0.000000,-0.750000,-0.500000,-0.750000,-0.500000,0.750000,0.000000,0.750000,0.000000,0.744911,0.000000,0.744911,
$1*%
G04 Aperture macros list end*
G04 #@! TA.AperFunction,EtchedComponent*
%ADD10C,0.000000*%
G04 #@! TD*
G04 #@! TA.AperFunction,SMDPad,CuDef*
%ADD11RoundRect,0.150000X-1.600000X-0.150000X1.600000X-0.150000X1.600000X0.150000X-1.600000X0.150000X0*%
G04 #@! TD*
G04 #@! TA.AperFunction,SMDPad,CuDef*
%ADD12RoundRect,0.150000X-1.200000X-0.150000X1.200000X-0.150000X1.200000X0.150000X-1.200000X0.150000X0*%
G04 #@! TD*
G04 #@! TA.AperFunction,ComponentPad*
%ADD13C,0.700000*%
G04 #@! TD*
G04 #@! TA.AperFunction,ComponentPad*
%ADD14C,4.400000*%
G04 #@! TD*
G04 #@! TA.AperFunction,SMDPad,CuDef*
%ADD15FreePoly0,0.000000*%
G04 #@! TD*
G04 #@! TA.AperFunction,SMDPad,CuDef*
%ADD16FreePoly1,0.000000*%
G04 #@! TD*
G04 #@! TA.AperFunction,SMDPad,CuDef*
%ADD17RoundRect,0.243750X0.243750X0.456250X-0.243750X0.456250X-0.243750X-0.456250X0.243750X-0.456250X0*%
G04 #@! TD*
G04 #@! TA.AperFunction,SMDPad,CuDef*
%ADD18RoundRect,0.200000X-0.200000X-0.275000X0.200000X-0.275000X0.200000X0.275000X-0.200000X0.275000X0*%
G04 #@! TD*
G04 #@! TA.AperFunction,SMDPad,CuDef*
%ADD19RoundRect,0.243750X-0.456250X0.243750X-0.456250X-0.243750X0.456250X-0.243750X0.456250X0.243750X0*%
G04 #@! TD*
G04 #@! TA.AperFunction,ViaPad*
%ADD20C,0.800000*%
G04 #@! TD*
G04 #@! TA.AperFunction,Conductor*
%ADD21C,0.250000*%
G04 #@! TD*
G04 APERTURE END LIST*
D10*
G04 #@! TA.AperFunction,EtchedComponent*
G36*
X109400000Y-99625000D02*
G01*
X108900000Y-99625000D01*
X108900000Y-99025000D01*
X109400000Y-99025000D01*
X109400000Y-99625000D01*
G37*
G04 #@! TD.AperFunction*
D11*
X100500000Y-103400000D03*
D12*
X100900000Y-102600000D03*
X100900000Y-101800000D03*
X100900000Y-101000000D03*
X100900000Y-100200000D03*
X100900000Y-99400000D03*
X100900000Y-98600000D03*
X100900000Y-97800000D03*
D11*
X100500000Y-97000000D03*
X100500000Y-96200000D03*
D13*
X110850000Y-87500000D03*
X111333274Y-86333274D03*
X111333274Y-88666726D03*
X112500000Y-85850000D03*
D14*
X112500000Y-87500000D03*
D13*
X112500000Y-89150000D03*
X113666726Y-86333274D03*
X113666726Y-88666726D03*
X114150000Y-87500000D03*
X110850000Y-112500000D03*
X111333274Y-111333274D03*
X111333274Y-113666726D03*
X112500000Y-110850000D03*
D14*
X112500000Y-112500000D03*
D13*
X112500000Y-114150000D03*
X113666726Y-111333274D03*
X113666726Y-113666726D03*
X114150000Y-112500000D03*
D15*
X108500000Y-99325000D03*
D16*
X109800000Y-99325000D03*
D17*
X136624300Y-91389200D03*
X134749300Y-91389200D03*
D18*
X109475000Y-96520000D03*
X111125000Y-96520000D03*
X109475000Y-93218000D03*
X111125000Y-93218000D03*
X109474000Y-94869000D03*
X111124000Y-94869000D03*
D19*
X134569200Y-110156900D03*
X134569200Y-112031900D03*
D18*
X109475000Y-91567000D03*
X111125000Y-91567000D03*
D17*
X135857100Y-100787200D03*
X133982100Y-100787200D03*
X135867500Y-82346800D03*
X133992500Y-82346800D03*
D20*
X106250000Y-105500000D03*
X106250000Y-94250000D03*
X106045000Y-96520000D03*
D21*
X135867500Y-84432500D02*
X135800000Y-84500000D01*
X135867500Y-82346800D02*
X135867500Y-84432500D01*
X136624300Y-89324300D02*
X136600000Y-89300000D01*
X136624300Y-91389200D02*
X136624300Y-89324300D01*
X135857100Y-98742900D02*
X135900000Y-98700000D01*
X135857100Y-100787200D02*
X135857100Y-98742900D01*
X132356900Y-110156900D02*
X132300000Y-110100000D01*
X134569200Y-110156900D02*
X132356900Y-110156900D01*
X116966485Y-96566485D02*
X132431900Y-112031900D01*
X132431900Y-112031900D02*
X134569200Y-112031900D01*
X111123861Y-96566485D02*
X116966485Y-96566485D01*
X131066000Y-100787200D02*
X133982100Y-100787200D01*
X125145800Y-91389200D02*
X134749300Y-91389200D01*
X123317000Y-93218000D02*
X125145800Y-91389200D01*
X111125000Y-93218000D02*
X123317000Y-93218000D01*
X131382916Y-82346800D02*
X133992500Y-82346800D01*
X122162716Y-91567000D02*
X131382916Y-82346800D01*
X111125000Y-91567000D02*
X122162716Y-91567000D01*
X100500000Y-96200000D02*
X104714000Y-96200000D01*
X104880000Y-103400000D02*
X105283000Y-102997000D01*
X104714000Y-96200000D02*
X104902000Y-96012000D01*
X100500000Y-103400000D02*
X104880000Y-103400000D01*
X109473861Y-96566485D02*
X106091485Y-96566485D01*
X109475000Y-94868000D02*
X109474000Y-94869000D01*
X106091485Y-96566485D02*
X106045000Y-96520000D01*
X109474000Y-94869000D02*
X109474000Y-96566346D01*
X109475000Y-91567000D02*
X109475000Y-93218000D01*
X109474000Y-96566346D02*
X109473861Y-96566485D01*
X109475000Y-93218000D02*
X109475000Y-94868000D01*
X108500000Y-99325000D02*
X100975000Y-99325000D01*
X100975000Y-99325000D02*
X100900000Y-99400000D01*
X125147800Y-94869000D02*
X131066000Y-100787200D01*
X111124000Y-94869000D02*
X125147800Y-94869000D01*
G04 #@! TA.AperFunction,Conductor*
G36*
X141902983Y-74856433D02*
G01*
X143137939Y-74887041D01*
X143144058Y-74887344D01*
X144369242Y-74978498D01*
X144375316Y-74979101D01*
X145590103Y-75129995D01*
X145596093Y-75130890D01*
X146798411Y-75340675D01*
X146804372Y-75341866D01*
X147992199Y-75609700D01*
X147998065Y-75611174D01*
X149169385Y-75936217D01*
X149175135Y-75937965D01*
X150327920Y-76319381D01*
X150333562Y-76321402D01*
X151465699Y-76758320D01*
X151471261Y-76760624D01*
X152580733Y-77252205D01*
X152586202Y-77254789D01*
X153671029Y-77800216D01*
X153676335Y-77803049D01*
X154734387Y-78401431D01*
X154739592Y-78404545D01*
X155768870Y-79055055D01*
X155773928Y-79058427D01*
X156772437Y-79760251D01*
X156777336Y-79763878D01*
X157742980Y-80516130D01*
X157747710Y-80520006D01*
X158678474Y-81321859D01*
X158683022Y-81325977D01*
X159576890Y-82176607D01*
X159581235Y-82180952D01*
X160431866Y-83074819D01*
X160435984Y-83079367D01*
X161237838Y-84010130D01*
X161241714Y-84014860D01*
X161993966Y-84980501D01*
X161997593Y-84985400D01*
X162699417Y-85983907D01*
X162702789Y-85988965D01*
X163353299Y-87018241D01*
X163356413Y-87023446D01*
X163954784Y-88081476D01*
X163957636Y-88086817D01*
X164503053Y-89171621D01*
X164505637Y-89177090D01*
X164997212Y-90286544D01*
X164999526Y-90292131D01*
X165436428Y-91424219D01*
X165438468Y-91429913D01*
X165819867Y-92582642D01*
X165821628Y-92588436D01*
X166146662Y-93759712D01*
X166148140Y-93765594D01*
X166415970Y-94953398D01*
X166417161Y-94959359D01*
X166626942Y-96161640D01*
X166627842Y-96167669D01*
X166778733Y-97382411D01*
X166779337Y-97388496D01*
X166870490Y-98613647D01*
X166870794Y-98619775D01*
X166901366Y-99853297D01*
X166901364Y-99859503D01*
X166868993Y-101139742D01*
X166868676Y-101146010D01*
X166772608Y-102409367D01*
X166771976Y-102415596D01*
X166613780Y-103660545D01*
X166612838Y-103666713D01*
X166394078Y-104891698D01*
X166392833Y-104897785D01*
X166115072Y-106101265D01*
X166113532Y-106107252D01*
X165778331Y-107287670D01*
X165776505Y-107293541D01*
X165385431Y-108449323D01*
X165383330Y-108455063D01*
X164937936Y-109584680D01*
X164935569Y-109590278D01*
X164437407Y-110692185D01*
X164434783Y-110697629D01*
X163885452Y-111770184D01*
X163882583Y-111775467D01*
X163283600Y-112817199D01*
X163280493Y-112822313D01*
X162633441Y-113831615D01*
X162630105Y-113836553D01*
X161936551Y-114811856D01*
X161932994Y-114816613D01*
X161194491Y-115756370D01*
X161190720Y-115760940D01*
X160408832Y-116663582D01*
X160404853Y-116667960D01*
X159581151Y-117531912D01*
X159576970Y-117536093D01*
X158713018Y-118359794D01*
X158708640Y-118363773D01*
X157805998Y-119145662D01*
X157801428Y-119149433D01*
X156861671Y-119887936D01*
X156856914Y-119891493D01*
X155881611Y-120585046D01*
X155876673Y-120588382D01*
X154867370Y-121235434D01*
X154862256Y-121238541D01*
X153820540Y-121837514D01*
X153815257Y-121840383D01*
X152742668Y-122389731D01*
X152737224Y-122392355D01*
X151635334Y-122890510D01*
X151629736Y-122892877D01*
X150500113Y-123338272D01*
X150494373Y-123340373D01*
X149338603Y-123731443D01*
X149332732Y-123733269D01*
X148152306Y-124068473D01*
X148146319Y-124070013D01*
X146942839Y-124347774D01*
X146936752Y-124349019D01*
X145711767Y-124567779D01*
X145705599Y-124568721D01*
X144460649Y-124726917D01*
X144454420Y-124727549D01*
X143191063Y-124823616D01*
X143184795Y-124823933D01*
X141903295Y-124856337D01*
X141899625Y-124856376D01*
X141687060Y-124855457D01*
X141685993Y-124855448D01*
X141472054Y-124852682D01*
X141470989Y-124852663D01*
X141257318Y-124848065D01*
X141256253Y-124848038D01*
X141020420Y-124840936D01*
X140992852Y-124836976D01*
X115516195Y-118190748D01*
X115485496Y-118178151D01*
X105650653Y-112500000D01*
X109795065Y-112500000D01*
X109814786Y-112826038D01*
X109873667Y-113147341D01*
X109970835Y-113459164D01*
X109970839Y-113459175D01*
X110104897Y-113757041D01*
X110104898Y-113757043D01*
X110273881Y-114036576D01*
X110421476Y-114224968D01*
X110939936Y-113706508D01*
X111133274Y-113706508D01*
X111163722Y-113780017D01*
X111219983Y-113836278D01*
X111293492Y-113866726D01*
X111373056Y-113866726D01*
X111446565Y-113836278D01*
X111502826Y-113780017D01*
X111533274Y-113706508D01*
X111533274Y-113626944D01*
X111502826Y-113553435D01*
X111446565Y-113497174D01*
X111373056Y-113466726D01*
X111293492Y-113466726D01*
X111219983Y-113497174D01*
X111163722Y-113553435D01*
X111133274Y-113626944D01*
X111133274Y-113706508D01*
X110939936Y-113706508D01*
X111563708Y-113082736D01*
X111660967Y-113216602D01*
X111783398Y-113339033D01*
X111917262Y-113436290D01*
X110775030Y-114578522D01*
X110775030Y-114578523D01*
X110963423Y-114726118D01*
X111242956Y-114895101D01*
X111242958Y-114895102D01*
X111540824Y-115029160D01*
X111540835Y-115029164D01*
X111852658Y-115126332D01*
X112173961Y-115185213D01*
X112500000Y-115204934D01*
X112826038Y-115185213D01*
X113147341Y-115126332D01*
X113459164Y-115029164D01*
X113459175Y-115029160D01*
X113757041Y-114895102D01*
X113757043Y-114895101D01*
X114036586Y-114726112D01*
X114224968Y-114578523D01*
X114224968Y-114578522D01*
X113352955Y-113706508D01*
X113466726Y-113706508D01*
X113497174Y-113780017D01*
X113553435Y-113836278D01*
X113626944Y-113866726D01*
X113706508Y-113866726D01*
X113780017Y-113836278D01*
X113836278Y-113780017D01*
X113866726Y-113706508D01*
X113866726Y-113626944D01*
X113836278Y-113553435D01*
X113780017Y-113497174D01*
X113706508Y-113466726D01*
X113626944Y-113466726D01*
X113553435Y-113497174D01*
X113497174Y-113553435D01*
X113466726Y-113626944D01*
X113466726Y-113706508D01*
X113352955Y-113706508D01*
X113082737Y-113436290D01*
X113216602Y-113339033D01*
X113339033Y-113216602D01*
X113436290Y-113082737D01*
X114578522Y-114224968D01*
X114578523Y-114224968D01*
X114726112Y-114036586D01*
X114895101Y-113757043D01*
X114895102Y-113757041D01*
X115029160Y-113459175D01*
X115029164Y-113459164D01*
X115126332Y-113147341D01*
X115185213Y-112826038D01*
X115204934Y-112500000D01*
X115185213Y-112173961D01*
X115126332Y-111852658D01*
X115029164Y-111540835D01*
X115029160Y-111540824D01*
X114895102Y-111242958D01*
X114895101Y-111242956D01*
X114726118Y-110963423D01*
X114578522Y-110775030D01*
X113436290Y-111917262D01*
X113339033Y-111783398D01*
X113216602Y-111660967D01*
X113082736Y-111563709D01*
X113273389Y-111373056D01*
X113466726Y-111373056D01*
X113497174Y-111446565D01*
X113553435Y-111502826D01*
X113626944Y-111533274D01*
X113706508Y-111533274D01*
X113780017Y-111502826D01*
X113836278Y-111446565D01*
X113866726Y-111373056D01*
X113866726Y-111293492D01*
X113836278Y-111219983D01*
X113780017Y-111163722D01*
X113706508Y-111133274D01*
X113626944Y-111133274D01*
X113553435Y-111163722D01*
X113497174Y-111219983D01*
X113466726Y-111293492D01*
X113466726Y-111373056D01*
X113273389Y-111373056D01*
X114224968Y-110421476D01*
X114036576Y-110273881D01*
X113757043Y-110104898D01*
X113757041Y-110104897D01*
X113459175Y-109970839D01*
X113459164Y-109970835D01*
X113147341Y-109873667D01*
X112826038Y-109814786D01*
X112500000Y-109795065D01*
X112173961Y-109814786D01*
X111852658Y-109873667D01*
X111540835Y-109970835D01*
X111540824Y-109970839D01*
X111242958Y-110104897D01*
X111242956Y-110104898D01*
X110963422Y-110273881D01*
X110963416Y-110273886D01*
X110775030Y-110421474D01*
X110775029Y-110421476D01*
X111917262Y-111563709D01*
X111783398Y-111660967D01*
X111660967Y-111783398D01*
X111563709Y-111917262D01*
X111019503Y-111373056D01*
X111133274Y-111373056D01*
X111163722Y-111446565D01*
X111219983Y-111502826D01*
X111293492Y-111533274D01*
X111373056Y-111533274D01*
X111446565Y-111502826D01*
X111502826Y-111446565D01*
X111533274Y-111373056D01*
X111533274Y-111293492D01*
X111502826Y-111219983D01*
X111446565Y-111163722D01*
X111373056Y-111133274D01*
X111293492Y-111133274D01*
X111219983Y-111163722D01*
X111163722Y-111219983D01*
X111133274Y-111293492D01*
X111133274Y-111373056D01*
X111019503Y-111373056D01*
X110421476Y-110775029D01*
X110421474Y-110775030D01*
X110273886Y-110963416D01*
X110273881Y-110963422D01*
X110104898Y-111242956D01*
X110104897Y-111242958D01*
X109970839Y-111540824D01*
X109970835Y-111540835D01*
X109873667Y-111852658D01*
X109814786Y-112173961D01*
X109795065Y-112500000D01*
X105650653Y-112500000D01*
X100501428Y-109527093D01*
X100498608Y-109525415D01*
X100420311Y-109477404D01*
X100402161Y-109463847D01*
X100264511Y-109339913D01*
X100247165Y-109320649D01*
X100139266Y-109172148D01*
X100126306Y-109149703D01*
X100051634Y-108982002D01*
X100043626Y-108957358D01*
X100005112Y-108776200D01*
X100002445Y-108753674D01*
X100000042Y-108661846D01*
X100000000Y-108658603D01*
X100000000Y-106253025D01*
X100000147Y-106246989D01*
X100000363Y-106242548D01*
X100001352Y-106222261D01*
X100010642Y-106180856D01*
X100030659Y-106132529D01*
X100057534Y-106092308D01*
X100092308Y-106057534D01*
X100132529Y-106030659D01*
X100180856Y-106010642D01*
X100222261Y-106001352D01*
X100241421Y-106000418D01*
X100246990Y-106000147D01*
X100253026Y-106000000D01*
X104500015Y-106000000D01*
X104551275Y-105998564D01*
X104578623Y-105997799D01*
X104731927Y-105962809D01*
X104873601Y-105894582D01*
X104996541Y-105796541D01*
X105094582Y-105673601D01*
X105162809Y-105531927D01*
X105197799Y-105378623D01*
X105200000Y-105300000D01*
X105197799Y-105221377D01*
X105162809Y-105068073D01*
X105094582Y-104926399D01*
X104996541Y-104803459D01*
X104873601Y-104705418D01*
X104873599Y-104705417D01*
X104873598Y-104705416D01*
X104731927Y-104637190D01*
X104578625Y-104602201D01*
X104578615Y-104602200D01*
X104500015Y-104600000D01*
X104500000Y-104600000D01*
X104389804Y-104600000D01*
X104322765Y-104580315D01*
X104277010Y-104527511D01*
X104265807Y-104476862D01*
X104260175Y-103666713D01*
X104235211Y-100075362D01*
X104254429Y-100008187D01*
X104306914Y-99962066D01*
X104359208Y-99950500D01*
X107486403Y-99950500D01*
X107553442Y-99970185D01*
X107599197Y-100022988D01*
X107615223Y-100058081D01*
X107615227Y-100058087D01*
X107615230Y-100058094D01*
X107675749Y-100152264D01*
X107693015Y-100179132D01*
X107693018Y-100179136D01*
X107787152Y-100287773D01*
X107787168Y-100287791D01*
X107787171Y-100287794D01*
X107895909Y-100382015D01*
X107956386Y-100420881D01*
X108016857Y-100459744D01*
X108016863Y-100459747D01*
X108147741Y-100519517D01*
X108285696Y-100560024D01*
X108428111Y-100580500D01*
X108428114Y-100580500D01*
X109000000Y-100580500D01*
X109071940Y-100575355D01*
X109209992Y-100534819D01*
X109331032Y-100457031D01*
X109425254Y-100348294D01*
X109485024Y-100217416D01*
X109505500Y-100075000D01*
X109505500Y-99610763D01*
X109505500Y-98575000D01*
X109500355Y-98503060D01*
X109459819Y-98365008D01*
X109397466Y-98267985D01*
X109382032Y-98243969D01*
X109382028Y-98243965D01*
X109273299Y-98149750D01*
X109273297Y-98149748D01*
X109273294Y-98149746D01*
X109273290Y-98149744D01*
X109142419Y-98089976D01*
X109142414Y-98089975D01*
X109000000Y-98069500D01*
X108428111Y-98069500D01*
X108428110Y-98069500D01*
X108285703Y-98089974D01*
X108285691Y-98089977D01*
X108147741Y-98130483D01*
X108016863Y-98190252D01*
X108016861Y-98190254D01*
X107901523Y-98264376D01*
X107900083Y-98265196D01*
X107895901Y-98267988D01*
X107787169Y-98362207D01*
X107787166Y-98362210D01*
X107693018Y-98470864D01*
X107693015Y-98470867D01*
X107636857Y-98558253D01*
X107625220Y-98576362D01*
X107615231Y-98591905D01*
X107615223Y-98591918D01*
X107599197Y-98627012D01*
X107553442Y-98679816D01*
X107486403Y-98699500D01*
X104348788Y-98699500D01*
X104281749Y-98679815D01*
X104235994Y-98627011D01*
X104224791Y-98576362D01*
X104210497Y-96520000D01*
X105139540Y-96520000D01*
X105159326Y-96708256D01*
X105159327Y-96708259D01*
X105217818Y-96888277D01*
X105217821Y-96888284D01*
X105312467Y-97052216D01*
X105369153Y-97115172D01*
X105439129Y-97192888D01*
X105592265Y-97304148D01*
X105592270Y-97304151D01*
X105765192Y-97381142D01*
X105765197Y-97381144D01*
X105950354Y-97420500D01*
X105950355Y-97420500D01*
X106139644Y-97420500D01*
X106139646Y-97420500D01*
X106324803Y-97381144D01*
X106497730Y-97304151D01*
X106602125Y-97228304D01*
X106619519Y-97215667D01*
X106685325Y-97192187D01*
X106692404Y-97191985D01*
X108629965Y-97191985D01*
X108697004Y-97211670D01*
X108717646Y-97228304D01*
X108839811Y-97350469D01*
X108839813Y-97350470D01*
X108839815Y-97350472D01*
X108985394Y-97438478D01*
X109147804Y-97489086D01*
X109218384Y-97495500D01*
X109218387Y-97495500D01*
X109731613Y-97495500D01*
X109731616Y-97495500D01*
X109802196Y-97489086D01*
X109964606Y-97438478D01*
X110110185Y-97350472D01*
X110156509Y-97304148D01*
X110212319Y-97248339D01*
X110273642Y-97214854D01*
X110343334Y-97219838D01*
X110387681Y-97248339D01*
X110489811Y-97350469D01*
X110489813Y-97350470D01*
X110489815Y-97350472D01*
X110635394Y-97438478D01*
X110797804Y-97489086D01*
X110868384Y-97495500D01*
X110868387Y-97495500D01*
X111381613Y-97495500D01*
X111381616Y-97495500D01*
X111452196Y-97489086D01*
X111614606Y-97438478D01*
X111760185Y-97350472D01*
X111806509Y-97304148D01*
X111882354Y-97228304D01*
X111943677Y-97194819D01*
X111970035Y-97191985D01*
X116656033Y-97191985D01*
X116723072Y-97211670D01*
X116743714Y-97228304D01*
X132033163Y-112517755D01*
X132033167Y-112517758D01*
X132135610Y-112586209D01*
X132135611Y-112586209D01*
X132135615Y-112586212D01*
X132202296Y-112613831D01*
X132202298Y-112613833D01*
X132249443Y-112633361D01*
X132249448Y-112633363D01*
X132269497Y-112637351D01*
X132303096Y-112644034D01*
X132370292Y-112657401D01*
X132370294Y-112657401D01*
X132499621Y-112657401D01*
X132499641Y-112657400D01*
X132776000Y-112657400D01*
X132843039Y-112677085D01*
X132888794Y-112729889D01*
X132900000Y-112781400D01*
X132900000Y-115139000D01*
X136329000Y-115139000D01*
X136329000Y-107900000D01*
X132900000Y-107900000D01*
X132900000Y-111282400D01*
X132880315Y-111349439D01*
X132827511Y-111395194D01*
X132776000Y-111406400D01*
X132742353Y-111406400D01*
X132675314Y-111386715D01*
X132654672Y-111370081D01*
X117452343Y-96167752D01*
X117365218Y-96080627D01*
X117295650Y-96034143D01*
X117262771Y-96012173D01*
X117262772Y-96012173D01*
X117262770Y-96012172D01*
X117222524Y-95995502D01*
X117182277Y-95978832D01*
X117148938Y-95965022D01*
X117138912Y-95963028D01*
X117088514Y-95953003D01*
X117028095Y-95940985D01*
X117028092Y-95940985D01*
X117028091Y-95940985D01*
X112029704Y-95940985D01*
X111962665Y-95921300D01*
X111923587Y-95881135D01*
X111880473Y-95809816D01*
X111852338Y-95781681D01*
X111818853Y-95720358D01*
X111823837Y-95650666D01*
X111852337Y-95606319D01*
X111879472Y-95579185D01*
X111894486Y-95554349D01*
X111946014Y-95507162D01*
X112000602Y-95494500D01*
X124837348Y-95494500D01*
X124904387Y-95514185D01*
X124925029Y-95530819D01*
X130667263Y-101273055D01*
X130667267Y-101273058D01*
X130769710Y-101341509D01*
X130769711Y-101341509D01*
X130769715Y-101341512D01*
X130836396Y-101369131D01*
X130836398Y-101369133D01*
X130883543Y-101388661D01*
X130883548Y-101388663D01*
X130903597Y-101392651D01*
X130937196Y-101399334D01*
X131004392Y-101412701D01*
X131067000Y-101412701D01*
X131134039Y-101432386D01*
X131179794Y-101485190D01*
X131191000Y-101536701D01*
X131191000Y-102489000D01*
X138430000Y-102489000D01*
X138430000Y-99060000D01*
X131191000Y-99060000D01*
X131191000Y-99728247D01*
X131171315Y-99795286D01*
X131118511Y-99841041D01*
X131049353Y-99850985D01*
X130985797Y-99821960D01*
X130979319Y-99815928D01*
X125640728Y-94477338D01*
X125640725Y-94477334D01*
X125640725Y-94477335D01*
X125633658Y-94470268D01*
X125633658Y-94470267D01*
X125546533Y-94383142D01*
X125546532Y-94383141D01*
X125546531Y-94383140D01*
X125495309Y-94348915D01*
X125461615Y-94326401D01*
X125444086Y-94314688D01*
X125444083Y-94314686D01*
X125444080Y-94314685D01*
X125363592Y-94281347D01*
X125330253Y-94267537D01*
X125320227Y-94265543D01*
X125269829Y-94255518D01*
X125209410Y-94243500D01*
X125209407Y-94243500D01*
X125209406Y-94243500D01*
X112000602Y-94243500D01*
X111933563Y-94223815D01*
X111894486Y-94183651D01*
X111879471Y-94158814D01*
X111879468Y-94158810D01*
X111852338Y-94131680D01*
X111818853Y-94070357D01*
X111823837Y-94000665D01*
X111852336Y-93956320D01*
X111880472Y-93928185D01*
X111895486Y-93903349D01*
X111947014Y-93856162D01*
X112001602Y-93843500D01*
X123378607Y-93843500D01*
X123439029Y-93831481D01*
X123499452Y-93819463D01*
X123499455Y-93819461D01*
X123499458Y-93819461D01*
X123532787Y-93805654D01*
X123532786Y-93805654D01*
X123532792Y-93805652D01*
X123613286Y-93772312D01*
X123664509Y-93738084D01*
X123715733Y-93703858D01*
X123802858Y-93616733D01*
X123802859Y-93616731D01*
X123809925Y-93609665D01*
X123809927Y-93609661D01*
X125368571Y-92051019D01*
X125429894Y-92017534D01*
X125456252Y-92014700D01*
X131956000Y-92014700D01*
X132023039Y-92034385D01*
X132068794Y-92087189D01*
X132080000Y-92138700D01*
X132080000Y-93091000D01*
X139319000Y-93091000D01*
X139319000Y-89662000D01*
X132080000Y-89662000D01*
X132080000Y-90639700D01*
X132060315Y-90706739D01*
X132007511Y-90752494D01*
X131956000Y-90763700D01*
X125084189Y-90763700D01*
X125023771Y-90775718D01*
X124963348Y-90787737D01*
X124963343Y-90787738D01*
X124929346Y-90801820D01*
X124916197Y-90807267D01*
X124893969Y-90816474D01*
X124849513Y-90834888D01*
X124839357Y-90841675D01*
X124839249Y-90841747D01*
X124747068Y-90903340D01*
X124711743Y-90938666D01*
X124659942Y-90990467D01*
X124659939Y-90990470D01*
X123094229Y-92556181D01*
X123032906Y-92589666D01*
X123006548Y-92592500D01*
X112001602Y-92592500D01*
X111934563Y-92572815D01*
X111895486Y-92532651D01*
X111894430Y-92530904D01*
X111880472Y-92507815D01*
X111852837Y-92480180D01*
X111819353Y-92418860D01*
X111824337Y-92349168D01*
X111852837Y-92304819D01*
X111880472Y-92277185D01*
X111895486Y-92252349D01*
X111947014Y-92205162D01*
X112001602Y-92192500D01*
X122224323Y-92192500D01*
X122284745Y-92180481D01*
X122345168Y-92168463D01*
X122345171Y-92168461D01*
X122345174Y-92168461D01*
X122378503Y-92154654D01*
X122378502Y-92154654D01*
X122378508Y-92154652D01*
X122459002Y-92121312D01*
X122510225Y-92087084D01*
X122561449Y-92052858D01*
X122648574Y-91965733D01*
X122648575Y-91965731D01*
X122655641Y-91958665D01*
X122655643Y-91958661D01*
X131106321Y-83507984D01*
X131167642Y-83474501D01*
X131237334Y-83479485D01*
X131293267Y-83521357D01*
X131317684Y-83586821D01*
X131318000Y-83595667D01*
X131318000Y-84074000D01*
X138557000Y-84074000D01*
X138557000Y-80645000D01*
X131318000Y-80645000D01*
X131318000Y-81620193D01*
X131298315Y-81687232D01*
X131245511Y-81732987D01*
X131218193Y-81741810D01*
X131200463Y-81745336D01*
X131200462Y-81745337D01*
X131169030Y-81758357D01*
X131153313Y-81764867D01*
X131131085Y-81774074D01*
X131086629Y-81792488D01*
X131076473Y-81799275D01*
X131076365Y-81799347D01*
X130984184Y-81860940D01*
X130940621Y-81904503D01*
X130897058Y-81948067D01*
X130897055Y-81948070D01*
X126418040Y-86427086D01*
X121939945Y-90905181D01*
X121878622Y-90938666D01*
X121852264Y-90941500D01*
X112001602Y-90941500D01*
X111934563Y-90921815D01*
X111895486Y-90881651D01*
X111880471Y-90856814D01*
X111880468Y-90856810D01*
X111760188Y-90736530D01*
X111665543Y-90679315D01*
X111614606Y-90648522D01*
X111452196Y-90597914D01*
X111452194Y-90597913D01*
X111452192Y-90597913D01*
X111402778Y-90593423D01*
X111381616Y-90591500D01*
X110868384Y-90591500D01*
X110849145Y-90593248D01*
X110797807Y-90597913D01*
X110635393Y-90648522D01*
X110489811Y-90736530D01*
X110489810Y-90736531D01*
X110387681Y-90838661D01*
X110326358Y-90872146D01*
X110256666Y-90867162D01*
X110212319Y-90838661D01*
X110110188Y-90736530D01*
X110015543Y-90679315D01*
X109964606Y-90648522D01*
X109802196Y-90597914D01*
X109802194Y-90597913D01*
X109802192Y-90597913D01*
X109752778Y-90593423D01*
X109731616Y-90591500D01*
X109218384Y-90591500D01*
X109199145Y-90593248D01*
X109147807Y-90597913D01*
X108985393Y-90648522D01*
X108839811Y-90736530D01*
X108719530Y-90856811D01*
X108631522Y-91002393D01*
X108580913Y-91164807D01*
X108574500Y-91235386D01*
X108574500Y-91898613D01*
X108580913Y-91969192D01*
X108580913Y-91969194D01*
X108580914Y-91969196D01*
X108631522Y-92131606D01*
X108719527Y-92277184D01*
X108719530Y-92277188D01*
X108747161Y-92304819D01*
X108780646Y-92366142D01*
X108775662Y-92435834D01*
X108747161Y-92480181D01*
X108719531Y-92507810D01*
X108719530Y-92507811D01*
X108631522Y-92653393D01*
X108580913Y-92815807D01*
X108574500Y-92886386D01*
X108574500Y-93549613D01*
X108580913Y-93620192D01*
X108580913Y-93620194D01*
X108580914Y-93620196D01*
X108631522Y-93782606D01*
X108719527Y-93928184D01*
X108719530Y-93928188D01*
X108746661Y-93955319D01*
X108780146Y-94016642D01*
X108775162Y-94086334D01*
X108746661Y-94130681D01*
X108718531Y-94158810D01*
X108718530Y-94158811D01*
X108630522Y-94304393D01*
X108579913Y-94466807D01*
X108573500Y-94537386D01*
X108573500Y-95200613D01*
X108579913Y-95271192D01*
X108579913Y-95271194D01*
X108579914Y-95271196D01*
X108630522Y-95433606D01*
X108718527Y-95579184D01*
X108718530Y-95579188D01*
X108746661Y-95607319D01*
X108780146Y-95668642D01*
X108775162Y-95738334D01*
X108746663Y-95782680D01*
X108719525Y-95809818D01*
X108676413Y-95881135D01*
X108624885Y-95928323D01*
X108570296Y-95940985D01*
X106790603Y-95940985D01*
X106723564Y-95921300D01*
X106698453Y-95899957D01*
X106650870Y-95847111D01*
X106650864Y-95847106D01*
X106497734Y-95735851D01*
X106497729Y-95735848D01*
X106324807Y-95658857D01*
X106324802Y-95658855D01*
X106179001Y-95627865D01*
X106139646Y-95619500D01*
X105950354Y-95619500D01*
X105917897Y-95626398D01*
X105765197Y-95658855D01*
X105765192Y-95658857D01*
X105592270Y-95735848D01*
X105592265Y-95735851D01*
X105439129Y-95847111D01*
X105312466Y-95987785D01*
X105217821Y-96151715D01*
X105217818Y-96151722D01*
X105159327Y-96331740D01*
X105159326Y-96331744D01*
X105139540Y-96520000D01*
X104210497Y-96520000D01*
X104203579Y-95524862D01*
X104222797Y-95457687D01*
X104275282Y-95411566D01*
X104327576Y-95400000D01*
X104500015Y-95400000D01*
X104551275Y-95398564D01*
X104578623Y-95397799D01*
X104731927Y-95362809D01*
X104873601Y-95294582D01*
X104996541Y-95196541D01*
X105094582Y-95073601D01*
X105162809Y-94931927D01*
X105197799Y-94778623D01*
X105200000Y-94700000D01*
X105197799Y-94621377D01*
X105162809Y-94468073D01*
X105162199Y-94466807D01*
X105094583Y-94326401D01*
X105094582Y-94326400D01*
X105094582Y-94326399D01*
X104996541Y-94203459D01*
X104873601Y-94105418D01*
X104873599Y-94105417D01*
X104873598Y-94105416D01*
X104731927Y-94037190D01*
X104578625Y-94002201D01*
X104578615Y-94002200D01*
X104500015Y-94000000D01*
X104500000Y-94000000D01*
X100253026Y-94000000D01*
X100246986Y-93999853D01*
X100237667Y-93999398D01*
X100222260Y-93998647D01*
X100180850Y-93989355D01*
X100132533Y-93969342D01*
X100092305Y-93942462D01*
X100057537Y-93907694D01*
X100030657Y-93867466D01*
X100025975Y-93856162D01*
X100010642Y-93819145D01*
X100001352Y-93777737D01*
X100000147Y-93753010D01*
X100000000Y-93746974D01*
X100000000Y-91341352D01*
X100000041Y-91338159D01*
X100000048Y-91337880D01*
X100002406Y-91246341D01*
X100005074Y-91223767D01*
X100043585Y-91042625D01*
X100051596Y-91017975D01*
X100126273Y-90850266D01*
X100139232Y-90827825D01*
X100247139Y-90679315D01*
X100264485Y-90660052D01*
X100402126Y-90536127D01*
X100420298Y-90522557D01*
X100498765Y-90474481D01*
X100501276Y-90472985D01*
X105637237Y-87500000D01*
X109795065Y-87500000D01*
X109814786Y-87826038D01*
X109873667Y-88147341D01*
X109970835Y-88459164D01*
X109970839Y-88459175D01*
X110104897Y-88757041D01*
X110104898Y-88757043D01*
X110273881Y-89036576D01*
X110421476Y-89224968D01*
X110939936Y-88706508D01*
X111133274Y-88706508D01*
X111163722Y-88780017D01*
X111219983Y-88836278D01*
X111293492Y-88866726D01*
X111373056Y-88866726D01*
X111446565Y-88836278D01*
X111502826Y-88780017D01*
X111533274Y-88706508D01*
X111533274Y-88626944D01*
X111502826Y-88553435D01*
X111446565Y-88497174D01*
X111373056Y-88466726D01*
X111293492Y-88466726D01*
X111219983Y-88497174D01*
X111163722Y-88553435D01*
X111133274Y-88626944D01*
X111133274Y-88706508D01*
X110939936Y-88706508D01*
X111563708Y-88082736D01*
X111660967Y-88216602D01*
X111783398Y-88339033D01*
X111917262Y-88436290D01*
X110775030Y-89578522D01*
X110775030Y-89578523D01*
X110963423Y-89726118D01*
X111242956Y-89895101D01*
X111242958Y-89895102D01*
X111540824Y-90029160D01*
X111540835Y-90029164D01*
X111852658Y-90126332D01*
X112173961Y-90185213D01*
X112500000Y-90204934D01*
X112826038Y-90185213D01*
X113147341Y-90126332D01*
X113459164Y-90029164D01*
X113459175Y-90029160D01*
X113757041Y-89895102D01*
X113757043Y-89895101D01*
X114036586Y-89726112D01*
X114224968Y-89578523D01*
X114224968Y-89578522D01*
X113352955Y-88706508D01*
X113466726Y-88706508D01*
X113497174Y-88780017D01*
X113553435Y-88836278D01*
X113626944Y-88866726D01*
X113706508Y-88866726D01*
X113780017Y-88836278D01*
X113836278Y-88780017D01*
X113866726Y-88706508D01*
X113866726Y-88626944D01*
X113836278Y-88553435D01*
X113780017Y-88497174D01*
X113706508Y-88466726D01*
X113626944Y-88466726D01*
X113553435Y-88497174D01*
X113497174Y-88553435D01*
X113466726Y-88626944D01*
X113466726Y-88706508D01*
X113352955Y-88706508D01*
X113082737Y-88436290D01*
X113216602Y-88339033D01*
X113339033Y-88216602D01*
X113436290Y-88082737D01*
X114578522Y-89224968D01*
X114578523Y-89224968D01*
X114726112Y-89036586D01*
X114895101Y-88757043D01*
X114895102Y-88757041D01*
X115029160Y-88459175D01*
X115029164Y-88459164D01*
X115126332Y-88147341D01*
X115185213Y-87826038D01*
X115204934Y-87500000D01*
X115185213Y-87173961D01*
X115126332Y-86852658D01*
X115029164Y-86540835D01*
X115029160Y-86540824D01*
X114895102Y-86242958D01*
X114895101Y-86242956D01*
X114726118Y-85963423D01*
X114578522Y-85775030D01*
X113436290Y-86917262D01*
X113339033Y-86783398D01*
X113216602Y-86660967D01*
X113082736Y-86563709D01*
X113273389Y-86373056D01*
X113466726Y-86373056D01*
X113497174Y-86446565D01*
X113553435Y-86502826D01*
X113626944Y-86533274D01*
X113706508Y-86533274D01*
X113780017Y-86502826D01*
X113836278Y-86446565D01*
X113866726Y-86373056D01*
X113866726Y-86293492D01*
X113836278Y-86219983D01*
X113780017Y-86163722D01*
X113706508Y-86133274D01*
X113626944Y-86133274D01*
X113553435Y-86163722D01*
X113497174Y-86219983D01*
X113466726Y-86293492D01*
X113466726Y-86373056D01*
X113273389Y-86373056D01*
X114224968Y-85421476D01*
X114036576Y-85273881D01*
X113757043Y-85104898D01*
X113757041Y-85104897D01*
X113459175Y-84970839D01*
X113459164Y-84970835D01*
X113147341Y-84873667D01*
X112826038Y-84814786D01*
X112500000Y-84795065D01*
X112173961Y-84814786D01*
X111852658Y-84873667D01*
X111540835Y-84970835D01*
X111540824Y-84970839D01*
X111242958Y-85104897D01*
X111242956Y-85104898D01*
X110963422Y-85273881D01*
X110963416Y-85273886D01*
X110775030Y-85421474D01*
X110775029Y-85421476D01*
X111917262Y-86563709D01*
X111783398Y-86660967D01*
X111660967Y-86783398D01*
X111563709Y-86917262D01*
X111019503Y-86373056D01*
X111133274Y-86373056D01*
X111163722Y-86446565D01*
X111219983Y-86502826D01*
X111293492Y-86533274D01*
X111373056Y-86533274D01*
X111446565Y-86502826D01*
X111502826Y-86446565D01*
X111533274Y-86373056D01*
X111533274Y-86293492D01*
X111502826Y-86219983D01*
X111446565Y-86163722D01*
X111373056Y-86133274D01*
X111293492Y-86133274D01*
X111219983Y-86163722D01*
X111163722Y-86219983D01*
X111133274Y-86293492D01*
X111133274Y-86373056D01*
X111019503Y-86373056D01*
X110421476Y-85775029D01*
X110421474Y-85775030D01*
X110273886Y-85963416D01*
X110273881Y-85963422D01*
X110104898Y-86242956D01*
X110104897Y-86242958D01*
X109970839Y-86540824D01*
X109970835Y-86540835D01*
X109873667Y-86852658D01*
X109814786Y-87173961D01*
X109795065Y-87500000D01*
X105637237Y-87500000D01*
X115465734Y-81810710D01*
X115496021Y-81798185D01*
X137567948Y-75936211D01*
X141613274Y-74861833D01*
X141644158Y-74857682D01*
X141670902Y-74857478D01*
X141772185Y-74856706D01*
X141772264Y-74856705D01*
X141899620Y-74856396D01*
X141902983Y-74856433D01*
G37*
G04 #@! TD.AperFunction*
M02*
