G04 #@! TF.GenerationSoftware,KiCad,Pcbnew,8.0.1*
G04 #@! TF.CreationDate,2024-04-08T19:57:06+01:00*
G04 #@! TF.ProjectId,hexpansion,68657870-616e-4736-996f-6e2e6b696361,rev?*
G04 #@! TF.SameCoordinates,Original*
G04 #@! TF.FileFunction,Copper,L1,Top*
G04 #@! TF.FilePolarity,Positive*
%FSLAX46Y46*%
G04 Gerber Fmt 4.6, Leading zero omitted, Abs format (unit mm)*
G04 Created by KiCad (PCBNEW 8.0.1) date 2024-04-08 19:57:06*
%MOMM*%
%LPD*%
G01*
G04 APERTURE LIST*
G04 Aperture macros list*
%AMRoundRect*
0 Rectangle with rounded corners*
0 $1 Rounding radius*
0 $2 $3 $4 $5 $6 $7 $8 $9 X,Y pos of 4 corners*
0 Add a 4 corners polygon primitive as box body*
4,1,4,$2,$3,$4,$5,$6,$7,$8,$9,$2,$3,0*
0 Add four circle primitives for the rounded corners*
1,1,$1+$1,$2,$3*
1,1,$1+$1,$4,$5*
1,1,$1+$1,$6,$7*
1,1,$1+$1,$8,$9*
0 Add four rect primitives between the rounded corners*
20,1,$1+$1,$2,$3,$4,$5,0*
20,1,$1+$1,$4,$5,$6,$7,0*
20,1,$1+$1,$6,$7,$8,$9,0*
20,1,$1+$1,$8,$9,$2,$3,0*%
G04 Aperture macros list end*
G04 #@! TA.AperFunction,Conductor*
%ADD10C,0.069899*%
G04 #@! TD*
G04 #@! TA.AperFunction,SMDPad,CuDef*
%ADD11RoundRect,0.150000X1.600000X0.150000X-1.600000X0.150000X-1.600000X-0.150000X1.600000X-0.150000X0*%
G04 #@! TD*
G04 #@! TA.AperFunction,SMDPad,CuDef*
%ADD12RoundRect,0.150000X1.200000X0.150000X-1.200000X0.150000X-1.200000X-0.150000X1.200000X-0.150000X0*%
G04 #@! TD*
G04 #@! TA.AperFunction,ComponentPad*
%ADD13C,0.700000*%
G04 #@! TD*
G04 #@! TA.AperFunction,ComponentPad*
%ADD14C,4.400000*%
G04 #@! TD*
G04 #@! TA.AperFunction,ViaPad*
%ADD15C,0.800000*%
G04 #@! TD*
G04 #@! TA.AperFunction,Conductor*
%ADD16C,0.250000*%
G04 #@! TD*
G04 APERTURE END LIST*
D10*
X160017609Y-126469803D02*
X123304611Y-126469803D01*
X123304611Y-109192299D01*
X131209549Y-109192299D01*
X131209549Y-111256264D01*
X133788208Y-111256264D01*
X133788208Y-112158012D01*
X131209549Y-115390892D01*
X131209549Y-118229477D01*
X134666183Y-113901573D01*
X137922836Y-117969543D01*
X137922836Y-115390892D01*
X135337982Y-112158012D01*
X135337982Y-111256264D01*
X137922836Y-111256264D01*
X137922836Y-109192299D01*
X131209549Y-109192299D01*
X123304611Y-109192299D01*
X123304611Y-101830994D01*
X131209549Y-101830994D01*
X133788208Y-101830994D01*
X133788208Y-107254951D01*
X133789230Y-107307663D01*
X133792862Y-107359337D01*
X133799057Y-107409981D01*
X133807327Y-107459587D01*
X133817657Y-107508682D01*
X133830582Y-107556740D01*
X133846069Y-107603767D01*
X133863647Y-107649757D01*
X133883804Y-107695236D01*
X133906540Y-107739677D01*
X133931351Y-107783089D01*
X133958740Y-107825981D01*
X133988190Y-107867828D01*
X134020218Y-107908661D01*
X134054337Y-107948448D01*
X134091019Y-107987213D01*
X134129257Y-108023903D01*
X134168533Y-108058517D01*
X134208847Y-108090042D01*
X134250183Y-108120018D01*
X134292572Y-108146889D01*
X134335968Y-108171692D01*
X134379898Y-108194428D01*
X134425369Y-108214577D01*
X134471878Y-108232147D01*
X134518906Y-108247658D01*
X134566971Y-108260582D01*
X134616577Y-108271431D01*
X134666702Y-108279701D01*
X134717865Y-108285378D01*
X134770050Y-108289001D01*
X134823288Y-108290031D01*
X136887756Y-108290031D01*
X136940979Y-108289001D01*
X136993179Y-108285378D01*
X137044342Y-108279701D01*
X137094452Y-108271431D01*
X137143555Y-108260582D01*
X137192123Y-108247658D01*
X137239151Y-108232147D01*
X137285660Y-108214577D01*
X137331131Y-108194428D01*
X137375061Y-108171692D01*
X137418472Y-108146889D01*
X137460846Y-108120018D01*
X137502182Y-108090042D01*
X137542496Y-108058517D01*
X137581772Y-108023903D01*
X137620010Y-107987213D01*
X137656693Y-107948448D01*
X137690811Y-107908661D01*
X137722839Y-107867828D01*
X137752304Y-107825981D01*
X137779678Y-107783089D01*
X137804489Y-107739677D01*
X137826721Y-107695236D01*
X137840683Y-107663712D01*
X140176437Y-107663712D01*
X140190399Y-108214577D01*
X140231735Y-108766998D01*
X140301498Y-109317360D01*
X140399170Y-109864609D01*
X140525772Y-110406181D01*
X140680801Y-110939484D01*
X140864258Y-111462959D01*
X141077164Y-111974037D01*
X141319000Y-112470650D01*
X141590301Y-112950211D01*
X141891068Y-113411171D01*
X142221802Y-113850929D01*
X142582489Y-114267441D01*
X142973175Y-114658630D01*
X143394333Y-115021400D01*
X143845978Y-115354721D01*
X144173096Y-115582611D01*
X144508987Y-115797073D01*
X144852646Y-115998093D01*
X145204041Y-116184639D01*
X145562668Y-116356720D01*
X145928024Y-116513298D01*
X146299072Y-116654900D01*
X146675262Y-116780991D01*
X147056641Y-116891060D01*
X147442139Y-116984589D01*
X147831787Y-117061073D01*
X148224014Y-117120499D01*
X148619339Y-117162361D01*
X149016724Y-117186653D01*
X149415680Y-117191811D01*
X149815643Y-117178886D01*
X149923660Y-117167526D01*
X150034241Y-117162361D01*
X150145859Y-117161842D01*
X150258514Y-117165459D01*
X150713272Y-117190262D01*
X150826431Y-117193359D01*
X150938049Y-117192848D01*
X151048645Y-117187157D01*
X151157166Y-117175278D01*
X151263626Y-117156158D01*
X151368011Y-117128250D01*
X151418640Y-117110161D01*
X151468781Y-117090012D01*
X151518387Y-117066757D01*
X151566971Y-117040916D01*
X151610367Y-117001640D01*
X151648102Y-116960823D01*
X151680130Y-116918961D01*
X151707001Y-116875549D01*
X151729218Y-116831627D01*
X151745758Y-116787193D01*
X151758163Y-116742233D01*
X151765396Y-116696747D01*
X151768494Y-116651787D01*
X151767471Y-116606323D01*
X151762299Y-116561882D01*
X151752991Y-116517441D01*
X151740082Y-116474030D01*
X151723541Y-116431648D01*
X151703384Y-116390312D01*
X151680130Y-116350517D01*
X151653778Y-116311760D01*
X151624329Y-116275589D01*
X151592285Y-116240967D01*
X151557648Y-116208412D01*
X151520966Y-116178436D01*
X151481689Y-116151047D01*
X151440353Y-116126251D01*
X151396942Y-116104538D01*
X151351990Y-116085937D01*
X151305481Y-116070953D01*
X151257416Y-116059578D01*
X151208328Y-116051826D01*
X151158203Y-116048210D01*
X151107040Y-116048210D01*
X151055359Y-116053383D01*
X151003174Y-116062683D01*
X150821777Y-116052353D01*
X150642990Y-116031158D01*
X150466766Y-116001190D01*
X150293655Y-115961403D01*
X150123642Y-115912300D01*
X149957245Y-115854942D01*
X149794968Y-115788803D01*
X149635818Y-115714378D01*
X149480789Y-115632217D01*
X149330399Y-115542824D01*
X149184158Y-115445671D01*
X149043091Y-115342308D01*
X148906662Y-115231728D01*
X148775406Y-115114937D01*
X148649307Y-114991951D01*
X148529419Y-114863274D01*
X148414688Y-114729431D01*
X148306168Y-114590424D01*
X148203857Y-114446762D01*
X148107742Y-114298447D01*
X148018341Y-114146004D01*
X147936173Y-113989418D01*
X147860718Y-113829742D01*
X147793030Y-113666451D01*
X147732056Y-113500053D01*
X147679352Y-113331581D01*
X147634384Y-113160019D01*
X147597702Y-112986900D01*
X147569275Y-112812241D01*
X147549637Y-112636017D01*
X147538788Y-112458252D01*
X147536713Y-112279968D01*
X147529480Y-112010223D01*
X147542404Y-111744598D01*
X147573410Y-111482597D01*
X147621979Y-111224739D01*
X147686569Y-110971001D01*
X147766678Y-110721413D01*
X147861252Y-110476982D01*
X147968735Y-110237198D01*
X148088623Y-110002068D01*
X148219360Y-109772110D01*
X148360428Y-109547317D01*
X148509781Y-109328209D01*
X148667389Y-109114273D01*
X148831726Y-108906532D01*
X149001740Y-108704483D01*
X149176926Y-108508110D01*
X149390350Y-108226990D01*
X149612045Y-107945869D01*
X150066788Y-107378464D01*
X150293137Y-107091141D01*
X150515350Y-106799683D01*
X150729279Y-106503578D01*
X150932373Y-106202301D01*
X151121002Y-105895348D01*
X151292557Y-105580643D01*
X151443970Y-105258690D01*
X151510635Y-105094360D01*
X151571609Y-104927452D01*
X151625351Y-104758461D01*
X151672379Y-104587410D01*
X151711655Y-104413261D01*
X151743179Y-104237053D01*
X151766434Y-104057732D01*
X151780899Y-103875313D01*
X151786072Y-103689789D01*
X151782455Y-103501694D01*
X151770569Y-103278969D01*
X151743179Y-103016449D01*
X151699768Y-102760651D01*
X151641373Y-102511063D01*
X151568512Y-102267662D01*
X151482208Y-102029427D01*
X151384552Y-101796890D01*
X151276535Y-101568993D01*
X151158722Y-101345238D01*
X151032623Y-101126129D01*
X150898788Y-100910118D01*
X150759781Y-100698250D01*
X150615601Y-100488960D01*
X150316910Y-100078133D01*
X150013061Y-99675056D01*
X150156708Y-99547409D01*
X150295212Y-99413567D01*
X150428528Y-99274559D01*
X150556168Y-99130898D01*
X150795441Y-98829109D01*
X151011429Y-98509750D01*
X151203156Y-98175919D01*
X151369553Y-97829170D01*
X151509079Y-97471573D01*
X151568512Y-97289154D01*
X151620712Y-97104668D01*
X151666168Y-96919151D01*
X151703903Y-96731560D01*
X151733871Y-96543465D01*
X151756622Y-96354324D01*
X151771088Y-96164154D01*
X151777802Y-95973984D01*
X151776260Y-95783821D01*
X151766937Y-95593651D01*
X151748871Y-95403481D01*
X151722504Y-95214340D01*
X151686859Y-95026238D01*
X151642929Y-94839691D01*
X151590210Y-94654175D01*
X151527679Y-94470200D01*
X151456375Y-94288300D01*
X151375748Y-94108986D01*
X151213501Y-93797890D01*
X151037277Y-93496620D01*
X150847626Y-93204132D01*
X150647125Y-92918877D01*
X150437317Y-92640343D01*
X150220276Y-92365936D01*
X149772751Y-91827469D01*
X149318512Y-91292618D01*
X148873581Y-90752083D01*
X148658615Y-90476646D01*
X148451904Y-90195526D01*
X148255020Y-89908211D01*
X148070007Y-89612618D01*
X147979584Y-89432785D01*
X147897934Y-89248299D01*
X147760468Y-88866928D01*
X147657639Y-88471603D01*
X147588898Y-88066460D01*
X147555313Y-87656151D01*
X147556351Y-87244286D01*
X147593048Y-86835007D01*
X147665390Y-86431931D01*
X147714478Y-86234016D01*
X147772873Y-86039192D01*
X147840576Y-85847473D01*
X147916534Y-85660400D01*
X148002319Y-85477989D01*
X148096878Y-85300217D01*
X148200241Y-85128136D01*
X148312897Y-84962257D01*
X148434860Y-84802574D01*
X148566116Y-84650131D01*
X148706161Y-84505440D01*
X148855499Y-84368492D01*
X149014145Y-84240334D01*
X149182098Y-84120964D01*
X149359345Y-84011414D01*
X149546417Y-83911674D01*
X149661133Y-83845528D01*
X149778427Y-83788170D01*
X149897812Y-83738045D01*
X150019760Y-83694633D01*
X150143799Y-83656906D01*
X150268845Y-83624351D01*
X150395462Y-83595932D01*
X150523102Y-83570091D01*
X151035217Y-83481209D01*
X151288940Y-83432114D01*
X151413483Y-83403694D01*
X151536987Y-83370621D01*
X151581940Y-83334969D01*
X151621231Y-83296722D01*
X151655319Y-83256416D01*
X151683746Y-83214043D01*
X151707001Y-83170120D01*
X151725601Y-83124641D01*
X151739044Y-83078651D01*
X151747818Y-83031624D01*
X151752472Y-82984085D01*
X151752472Y-82936020D01*
X151748352Y-82888481D01*
X151740082Y-82840935D01*
X151728195Y-82793915D01*
X151712692Y-82747925D01*
X151693054Y-82702965D01*
X151670837Y-82659554D01*
X151644989Y-82617699D01*
X151616058Y-82577904D01*
X151584534Y-82540184D01*
X151549911Y-82505554D01*
X151512711Y-82473000D01*
X151473419Y-82444061D01*
X151432083Y-82418228D01*
X151388168Y-82396004D01*
X151342682Y-82377914D01*
X151295654Y-82363449D01*
X151246567Y-82354149D01*
X151196442Y-82348976D01*
X151145279Y-82348976D01*
X151092575Y-82354149D01*
X151038818Y-82365517D01*
X150985092Y-82382050D01*
X150324661Y-82368614D01*
X149663208Y-82368095D01*
X149002258Y-82388252D01*
X148672562Y-82407372D01*
X148343903Y-82433731D01*
X148016281Y-82468864D01*
X147689682Y-82512794D01*
X147365158Y-82566536D01*
X147042175Y-82630615D01*
X146721771Y-82706062D01*
X146402939Y-82793915D01*
X146087189Y-82894684D01*
X145774551Y-83009399D01*
X145577667Y-83084854D01*
X145378708Y-83168053D01*
X145178207Y-83257965D01*
X144976151Y-83355118D01*
X144774612Y-83458984D01*
X144573074Y-83569061D01*
X144372559Y-83685844D01*
X144174652Y-83808838D01*
X143979309Y-83938026D01*
X143787598Y-84072388D01*
X143599487Y-84212952D01*
X143417069Y-84359192D01*
X143240341Y-84510086D01*
X143069809Y-84666664D01*
X142905991Y-84828415D01*
X142750961Y-84994293D01*
X142321014Y-85503822D01*
X141933441Y-86039711D01*
X141588242Y-86599365D01*
X141283356Y-87180725D01*
X141018250Y-87781204D01*
X140791397Y-88397705D01*
X140602249Y-89028671D01*
X140449814Y-89671013D01*
X140333023Y-90322136D01*
X140250336Y-90979973D01*
X140200729Y-91641953D01*
X140183670Y-92305992D01*
X140186264Y-92417618D01*
X140198151Y-92968483D01*
X140242584Y-93627876D01*
X140315964Y-94281586D01*
X140417770Y-94927025D01*
X140492706Y-95275322D01*
X140587784Y-95615349D01*
X140701996Y-95946594D01*
X140834290Y-96270096D01*
X140982590Y-96585320D01*
X141146408Y-96893311D01*
X141323654Y-97194069D01*
X141514343Y-97487587D01*
X141715881Y-97774391D01*
X141928268Y-98054482D01*
X142149445Y-98328361D01*
X142378372Y-98596565D01*
X142613510Y-98858566D01*
X142854309Y-99114883D01*
X143346802Y-99612526D01*
X143397430Y-99648178D01*
X143438782Y-99683319D01*
X143472366Y-99717430D01*
X143497162Y-99751015D01*
X143514740Y-99784088D01*
X143525589Y-99816643D01*
X143529205Y-99848686D01*
X143526627Y-99880211D01*
X143518356Y-99911217D01*
X143504410Y-99941704D01*
X143485291Y-99972191D01*
X143462021Y-100002159D01*
X143434647Y-100031616D01*
X143403641Y-100061081D01*
X143332321Y-100119987D01*
X143251709Y-100177856D01*
X143164886Y-100235741D01*
X142988159Y-100353050D01*
X142904953Y-100412483D01*
X142830032Y-100473450D01*
X142796951Y-100504463D01*
X142766983Y-100535980D01*
X142740631Y-100567497D01*
X142718918Y-100600059D01*
X142534958Y-100764908D01*
X142359253Y-100935959D01*
X142192337Y-101113213D01*
X142033173Y-101295631D01*
X141882278Y-101483727D01*
X141739136Y-101676483D01*
X141475586Y-102076973D01*
X141240982Y-102495041D01*
X141034271Y-102928078D01*
X140853912Y-103374573D01*
X140697861Y-103832939D01*
X140565567Y-104300087D01*
X140454971Y-104775002D01*
X140365570Y-105254562D01*
X140294785Y-105738251D01*
X140242081Y-106222458D01*
X140205902Y-106706673D01*
X140184189Y-107187263D01*
X140176437Y-107663712D01*
X137840683Y-107663712D01*
X137846863Y-107649757D01*
X137864960Y-107603767D01*
X137879944Y-107556740D01*
X137893372Y-107508682D01*
X137903717Y-107459587D01*
X137911987Y-107409981D01*
X137918182Y-107359337D01*
X137921280Y-107307663D01*
X137922836Y-107254951D01*
X137922836Y-99767036D01*
X131209549Y-99767036D01*
X131209549Y-101830994D01*
X123304611Y-101830994D01*
X123304611Y-99767036D01*
X123304611Y-90341774D01*
X131209549Y-90341774D01*
X131209549Y-92406242D01*
X133788208Y-92406242D01*
X133788208Y-97829689D01*
X133789230Y-97882401D01*
X133792862Y-97934074D01*
X133799057Y-97984718D01*
X133807327Y-98034843D01*
X133817657Y-98083420D01*
X133830582Y-98131477D01*
X133846069Y-98178505D01*
X133863647Y-98225014D01*
X133883804Y-98269974D01*
X133906540Y-98314415D01*
X133931351Y-98358337D01*
X133958740Y-98400711D01*
X133988190Y-98442574D01*
X134020218Y-98483391D01*
X134054337Y-98523186D01*
X134091019Y-98562462D01*
X134129257Y-98599152D01*
X134168533Y-98633255D01*
X134208847Y-98665298D01*
X134250183Y-98694748D01*
X134292572Y-98722137D01*
X134335968Y-98746941D01*
X134379898Y-98769165D01*
X134425369Y-98789322D01*
X134471878Y-98806892D01*
X134518906Y-98822395D01*
X134566971Y-98835312D01*
X134616577Y-98846161D01*
X134666702Y-98854431D01*
X134717865Y-98860115D01*
X134770050Y-98863731D01*
X134823288Y-98864769D01*
X136887756Y-98864769D01*
X136940979Y-98863731D01*
X136993179Y-98860115D01*
X137044342Y-98854431D01*
X137094452Y-98846161D01*
X137143555Y-98835312D01*
X137192123Y-98822395D01*
X137239151Y-98806892D01*
X137285660Y-98789322D01*
X137331131Y-98769165D01*
X137375061Y-98746941D01*
X137418472Y-98722137D01*
X137460846Y-98694748D01*
X137502182Y-98665298D01*
X137542496Y-98633255D01*
X137581772Y-98599152D01*
X137620010Y-98562462D01*
X137656693Y-98523186D01*
X137690811Y-98483391D01*
X137722839Y-98442574D01*
X137752304Y-98400711D01*
X137779678Y-98358337D01*
X137804489Y-98314415D01*
X137826721Y-98269974D01*
X137846863Y-98225014D01*
X137864960Y-98178505D01*
X137879944Y-98131477D01*
X137893372Y-98083420D01*
X137903717Y-98034843D01*
X137911987Y-97984718D01*
X137918182Y-97934074D01*
X137921280Y-97882401D01*
X137922836Y-97829689D01*
X137922836Y-90341774D01*
X131209549Y-90341774D01*
X123304611Y-90341774D01*
X123304611Y-87502670D01*
X131209549Y-87502670D01*
X131212128Y-87608604D01*
X131218842Y-87712479D01*
X131230728Y-87814278D01*
X131247269Y-87914017D01*
X131268448Y-88012199D01*
X131294815Y-88108315D01*
X131325302Y-88202370D01*
X131360962Y-88294350D01*
X131401260Y-88384270D01*
X131446228Y-88472633D01*
X131495834Y-88558937D01*
X131550095Y-88643684D01*
X131609009Y-88725853D01*
X131673080Y-88806465D01*
X131741821Y-88885017D01*
X131814682Y-88961494D01*
X131890640Y-89034874D01*
X131968674Y-89103607D01*
X132048782Y-89167168D01*
X132130936Y-89226593D01*
X132214661Y-89280853D01*
X132300949Y-89330467D01*
X132389328Y-89375420D01*
X132479233Y-89415733D01*
X132571228Y-89451385D01*
X132665787Y-89481880D01*
X132761902Y-89507713D01*
X132860092Y-89529419D01*
X132960342Y-89545952D01*
X133062668Y-89557838D01*
X133167053Y-89564560D01*
X133273499Y-89567146D01*
X133379440Y-89564560D01*
X133483322Y-89557838D01*
X133585114Y-89545952D01*
X133684845Y-89529419D01*
X133783035Y-89507713D01*
X133879150Y-89481880D01*
X133973206Y-89451385D01*
X134065186Y-89415733D01*
X134155624Y-89375420D01*
X134243469Y-89330467D01*
X134329773Y-89280853D01*
X134414520Y-89226593D01*
X134496689Y-89167168D01*
X134577301Y-89103607D01*
X134655838Y-89034874D01*
X134732330Y-88961494D01*
X134805710Y-88885017D01*
X134874435Y-88806465D01*
X134938522Y-88725853D01*
X134997421Y-88643684D01*
X135051681Y-88558937D01*
X135101288Y-88472633D01*
X135146255Y-88384270D01*
X135186569Y-88294350D01*
X135222229Y-88202370D01*
X135252716Y-88108315D01*
X135278549Y-88012199D01*
X135300247Y-87914017D01*
X135316788Y-87814278D01*
X135328674Y-87712479D01*
X135335388Y-87608604D01*
X135337982Y-87502670D01*
X135337982Y-85178261D01*
X133788208Y-85178261D01*
X133788208Y-86982285D01*
X133787689Y-87008644D01*
X133786133Y-87034477D01*
X133783035Y-87059799D01*
X133778900Y-87084610D01*
X133773727Y-87109413D01*
X133767014Y-87133698D01*
X133759262Y-87156952D01*
X133750473Y-87180725D01*
X133740143Y-87203461D01*
X133729294Y-87225685D01*
X133716888Y-87247902D01*
X133702942Y-87269608D01*
X133688461Y-87290794D01*
X133672440Y-87311462D01*
X133655395Y-87331619D01*
X133636780Y-87351257D01*
X133617661Y-87369858D01*
X133598038Y-87386917D01*
X133577881Y-87402931D01*
X133557724Y-87417923D01*
X133536530Y-87431358D01*
X133514832Y-87443756D01*
X133493118Y-87455124D01*
X133470398Y-87464943D01*
X133447662Y-87473732D01*
X133423889Y-87481483D01*
X133400116Y-87488197D01*
X133375824Y-87493370D01*
X133351013Y-87497505D01*
X133325699Y-87500603D01*
X133299850Y-87502152D01*
X133273499Y-87502670D01*
X133247665Y-87502152D01*
X133221832Y-87500603D01*
X133195984Y-87497505D01*
X133171188Y-87493370D01*
X133146378Y-87488197D01*
X133122604Y-87481483D01*
X133098831Y-87473732D01*
X133075592Y-87464943D01*
X133052322Y-87455124D01*
X133030106Y-87443756D01*
X133008408Y-87431358D01*
X132986694Y-87417923D01*
X132965515Y-87402931D01*
X132944839Y-87386917D01*
X132924179Y-87369858D01*
X132904541Y-87351257D01*
X132886963Y-87331619D01*
X132870422Y-87311462D01*
X132854919Y-87290794D01*
X132840973Y-87269608D01*
X132828049Y-87247902D01*
X132815659Y-87225685D01*
X132805313Y-87203461D01*
X132795502Y-87180725D01*
X132787231Y-87156952D01*
X132779480Y-87133698D01*
X132773270Y-87109413D01*
X132768112Y-87084610D01*
X132764496Y-87059799D01*
X132761398Y-87034477D01*
X132759842Y-87008644D01*
X132759323Y-86982285D01*
X132759323Y-84403633D01*
X132760361Y-84350410D01*
X132763977Y-84298218D01*
X132769653Y-84247055D01*
X132777924Y-84196411D01*
X132788269Y-84147316D01*
X132800659Y-84099258D01*
X132816162Y-84051720D01*
X132833221Y-84005722D01*
X132852860Y-83960251D01*
X132875076Y-83915810D01*
X132899368Y-83872917D01*
X132926239Y-83830544D01*
X132955170Y-83789200D01*
X132986191Y-83748894D01*
X133019775Y-83709618D01*
X133055939Y-83670860D01*
X133094711Y-83634171D01*
X133135010Y-83600067D01*
X133175842Y-83568024D01*
X133217178Y-83538567D01*
X133260071Y-83511696D01*
X133303482Y-83486374D01*
X133347916Y-83464157D01*
X133393402Y-83444000D01*
X133439392Y-83426430D01*
X133486420Y-83410927D01*
X133534470Y-83398010D01*
X133583557Y-83387161D01*
X133633179Y-83378891D01*
X133684341Y-83373207D01*
X133736008Y-83369591D01*
X133788208Y-83368553D01*
X135337982Y-83368553D01*
X135391205Y-83369591D01*
X135443390Y-83373207D01*
X135494553Y-83378891D01*
X135544678Y-83387161D01*
X135594299Y-83398010D01*
X135642349Y-83410927D01*
X135689896Y-83426430D01*
X135735886Y-83444000D01*
X135781372Y-83464157D01*
X135825287Y-83486374D01*
X135868698Y-83511696D01*
X135911072Y-83538567D01*
X135952408Y-83568024D01*
X135992722Y-83600067D01*
X136031998Y-83634171D01*
X136070236Y-83670860D01*
X136106918Y-83709618D01*
X136141022Y-83748894D01*
X136173065Y-83789200D01*
X136203049Y-83830544D01*
X136229919Y-83872917D01*
X136254715Y-83915810D01*
X136277451Y-83960251D01*
X136297607Y-84005722D01*
X136315170Y-84051720D01*
X136330688Y-84099258D01*
X136343597Y-84147316D01*
X136353928Y-84196411D01*
X136362198Y-84247055D01*
X136368408Y-84298218D01*
X136372025Y-84350410D01*
X136373062Y-84403633D01*
X136373062Y-89306694D01*
X137922836Y-89306694D01*
X137922836Y-83368553D01*
X137920242Y-83262619D01*
X137913528Y-83158745D01*
X137901123Y-83056946D01*
X137885101Y-82957207D01*
X137863403Y-82859024D01*
X137837570Y-82763428D01*
X137807068Y-82668854D01*
X137771423Y-82576874D01*
X137731110Y-82486954D01*
X137686157Y-82398590D01*
X137636551Y-82312286D01*
X137582291Y-82227539D01*
X137522858Y-82145370D01*
X137459290Y-82064758D01*
X137390564Y-81986214D01*
X137317184Y-81909729D01*
X137240707Y-81836350D01*
X137162155Y-81767616D01*
X137081543Y-81704056D01*
X136999374Y-81644630D01*
X136914627Y-81590370D01*
X136828323Y-81540756D01*
X136739960Y-81495804D01*
X136650040Y-81455490D01*
X136558060Y-81420357D01*
X136464005Y-81389343D01*
X136367889Y-81363510D01*
X136269699Y-81341804D01*
X136169968Y-81325272D01*
X136068161Y-81313385D01*
X135964294Y-81306664D01*
X135858353Y-81304085D01*
X133273499Y-81304085D01*
X133168091Y-81306664D01*
X133064209Y-81313385D01*
X132962418Y-81325272D01*
X132862671Y-81341804D01*
X132764496Y-81363510D01*
X132668381Y-81389343D01*
X132574326Y-81420357D01*
X132482330Y-81455490D01*
X132391907Y-81495804D01*
X132303528Y-81540756D01*
X132217239Y-81590370D01*
X132133011Y-81644630D01*
X132050842Y-81704056D01*
X131970230Y-81767616D01*
X131891678Y-81836350D01*
X131814682Y-81909729D01*
X131741821Y-81985695D01*
X131673080Y-82063210D01*
X131609009Y-82143303D01*
X131550095Y-82225472D01*
X131495834Y-82309708D01*
X131446228Y-82395485D01*
X131401260Y-82483856D01*
X131360962Y-82573769D01*
X131325302Y-82666275D01*
X131294815Y-82760323D01*
X131268448Y-82856438D01*
X131247269Y-82955147D01*
X131230728Y-83055397D01*
X131218842Y-83157715D01*
X131212128Y-83262100D01*
X131209549Y-83368553D01*
X131209549Y-87502670D01*
X123304611Y-87502670D01*
X123304611Y-70387436D01*
X160017609Y-70387436D01*
X160017609Y-126469803D01*
G04 #@! TA.AperFunction,Conductor*
G36*
X160017609Y-126469803D02*
G01*
X123304611Y-126469803D01*
X123304611Y-109192299D01*
X131209549Y-109192299D01*
X131209549Y-111256264D01*
X133788208Y-111256264D01*
X133788208Y-112158012D01*
X131209549Y-115390892D01*
X131209549Y-118229477D01*
X134666183Y-113901573D01*
X137922836Y-117969543D01*
X137922836Y-115390892D01*
X135337982Y-112158012D01*
X135337982Y-111256264D01*
X137922836Y-111256264D01*
X137922836Y-109192299D01*
X131209549Y-109192299D01*
X123304611Y-109192299D01*
X123304611Y-101830994D01*
X131209549Y-101830994D01*
X133788208Y-101830994D01*
X133788208Y-107254951D01*
X133789230Y-107307663D01*
X133792862Y-107359337D01*
X133799057Y-107409981D01*
X133807327Y-107459587D01*
X133817657Y-107508682D01*
X133830582Y-107556740D01*
X133846069Y-107603767D01*
X133863647Y-107649757D01*
X133883804Y-107695236D01*
X133906540Y-107739677D01*
X133931351Y-107783089D01*
X133958740Y-107825981D01*
X133988190Y-107867828D01*
X134020218Y-107908661D01*
X134054337Y-107948448D01*
X134091019Y-107987213D01*
X134129257Y-108023903D01*
X134168533Y-108058517D01*
X134208847Y-108090042D01*
X134250183Y-108120018D01*
X134292572Y-108146889D01*
X134335968Y-108171692D01*
X134379898Y-108194428D01*
X134425369Y-108214577D01*
X134471878Y-108232147D01*
X134518906Y-108247658D01*
X134566971Y-108260582D01*
X134616577Y-108271431D01*
X134666702Y-108279701D01*
X134717865Y-108285378D01*
X134770050Y-108289001D01*
X134823288Y-108290031D01*
X136887756Y-108290031D01*
X136940979Y-108289001D01*
X136993179Y-108285378D01*
X137044342Y-108279701D01*
X137094452Y-108271431D01*
X137143555Y-108260582D01*
X137192123Y-108247658D01*
X137239151Y-108232147D01*
X137285660Y-108214577D01*
X137331131Y-108194428D01*
X137375061Y-108171692D01*
X137418472Y-108146889D01*
X137460846Y-108120018D01*
X137502182Y-108090042D01*
X137542496Y-108058517D01*
X137581772Y-108023903D01*
X137620010Y-107987213D01*
X137656693Y-107948448D01*
X137690811Y-107908661D01*
X137722839Y-107867828D01*
X137752304Y-107825981D01*
X137779678Y-107783089D01*
X137804489Y-107739677D01*
X137826721Y-107695236D01*
X137840683Y-107663712D01*
X140176437Y-107663712D01*
X140190399Y-108214577D01*
X140231735Y-108766998D01*
X140301498Y-109317360D01*
X140399170Y-109864609D01*
X140525772Y-110406181D01*
X140680801Y-110939484D01*
X140864258Y-111462959D01*
X141077164Y-111974037D01*
X141319000Y-112470650D01*
X141590301Y-112950211D01*
X141891068Y-113411171D01*
X142221802Y-113850929D01*
X142582489Y-114267441D01*
X142973175Y-114658630D01*
X143394333Y-115021400D01*
X143845978Y-115354721D01*
X144173096Y-115582611D01*
X144508987Y-115797073D01*
X144852646Y-115998093D01*
X145204041Y-116184639D01*
X145562668Y-116356720D01*
X145928024Y-116513298D01*
X146299072Y-116654900D01*
X146675262Y-116780991D01*
X147056641Y-116891060D01*
X147442139Y-116984589D01*
X147831787Y-117061073D01*
X148224014Y-117120499D01*
X148619339Y-117162361D01*
X149016724Y-117186653D01*
X149415680Y-117191811D01*
X149815643Y-117178886D01*
X149923660Y-117167526D01*
X150034241Y-117162361D01*
X150145859Y-117161842D01*
X150258514Y-117165459D01*
X150713272Y-117190262D01*
X150826431Y-117193359D01*
X150938049Y-117192848D01*
X151048645Y-117187157D01*
X151157166Y-117175278D01*
X151263626Y-117156158D01*
X151368011Y-117128250D01*
X151418640Y-117110161D01*
X151468781Y-117090012D01*
X151518387Y-117066757D01*
X151566971Y-117040916D01*
X151610367Y-117001640D01*
X151648102Y-116960823D01*
X151680130Y-116918961D01*
X151707001Y-116875549D01*
X151729218Y-116831627D01*
X151745758Y-116787193D01*
X151758163Y-116742233D01*
X151765396Y-116696747D01*
X151768494Y-116651787D01*
X151767471Y-116606323D01*
X151762299Y-116561882D01*
X151752991Y-116517441D01*
X151740082Y-116474030D01*
X151723541Y-116431648D01*
X151703384Y-116390312D01*
X151680130Y-116350517D01*
X151653778Y-116311760D01*
X151624329Y-116275589D01*
X151592285Y-116240967D01*
X151557648Y-116208412D01*
X151520966Y-116178436D01*
X151481689Y-116151047D01*
X151440353Y-116126251D01*
X151396942Y-116104538D01*
X151351990Y-116085937D01*
X151305481Y-116070953D01*
X151257416Y-116059578D01*
X151208328Y-116051826D01*
X151158203Y-116048210D01*
X151107040Y-116048210D01*
X151055359Y-116053383D01*
X151003174Y-116062683D01*
X150821777Y-116052353D01*
X150642990Y-116031158D01*
X150466766Y-116001190D01*
X150293655Y-115961403D01*
X150123642Y-115912300D01*
X149957245Y-115854942D01*
X149794968Y-115788803D01*
X149635818Y-115714378D01*
X149480789Y-115632217D01*
X149330399Y-115542824D01*
X149184158Y-115445671D01*
X149043091Y-115342308D01*
X148906662Y-115231728D01*
X148775406Y-115114937D01*
X148649307Y-114991951D01*
X148529419Y-114863274D01*
X148414688Y-114729431D01*
X148306168Y-114590424D01*
X148203857Y-114446762D01*
X148107742Y-114298447D01*
X148018341Y-114146004D01*
X147936173Y-113989418D01*
X147860718Y-113829742D01*
X147793030Y-113666451D01*
X147732056Y-113500053D01*
X147679352Y-113331581D01*
X147634384Y-113160019D01*
X147597702Y-112986900D01*
X147569275Y-112812241D01*
X147549637Y-112636017D01*
X147538788Y-112458252D01*
X147536713Y-112279968D01*
X147529480Y-112010223D01*
X147542404Y-111744598D01*
X147573410Y-111482597D01*
X147621979Y-111224739D01*
X147686569Y-110971001D01*
X147766678Y-110721413D01*
X147861252Y-110476982D01*
X147968735Y-110237198D01*
X148088623Y-110002068D01*
X148219360Y-109772110D01*
X148360428Y-109547317D01*
X148509781Y-109328209D01*
X148667389Y-109114273D01*
X148831726Y-108906532D01*
X149001740Y-108704483D01*
X149176926Y-108508110D01*
X149390350Y-108226990D01*
X149612045Y-107945869D01*
X150066788Y-107378464D01*
X150293137Y-107091141D01*
X150515350Y-106799683D01*
X150729279Y-106503578D01*
X150932373Y-106202301D01*
X151121002Y-105895348D01*
X151292557Y-105580643D01*
X151443970Y-105258690D01*
X151510635Y-105094360D01*
X151571609Y-104927452D01*
X151625351Y-104758461D01*
X151672379Y-104587410D01*
X151711655Y-104413261D01*
X151743179Y-104237053D01*
X151766434Y-104057732D01*
X151780899Y-103875313D01*
X151786072Y-103689789D01*
X151782455Y-103501694D01*
X151770569Y-103278969D01*
X151743179Y-103016449D01*
X151699768Y-102760651D01*
X151641373Y-102511063D01*
X151568512Y-102267662D01*
X151482208Y-102029427D01*
X151384552Y-101796890D01*
X151276535Y-101568993D01*
X151158722Y-101345238D01*
X151032623Y-101126129D01*
X150898788Y-100910118D01*
X150759781Y-100698250D01*
X150615601Y-100488960D01*
X150316910Y-100078133D01*
X150013061Y-99675056D01*
X150156708Y-99547409D01*
X150295212Y-99413567D01*
X150428528Y-99274559D01*
X150556168Y-99130898D01*
X150795441Y-98829109D01*
X151011429Y-98509750D01*
X151203156Y-98175919D01*
X151369553Y-97829170D01*
X151509079Y-97471573D01*
X151568512Y-97289154D01*
X151620712Y-97104668D01*
X151666168Y-96919151D01*
X151703903Y-96731560D01*
X151733871Y-96543465D01*
X151756622Y-96354324D01*
X151771088Y-96164154D01*
X151777802Y-95973984D01*
X151776260Y-95783821D01*
X151766937Y-95593651D01*
X151748871Y-95403481D01*
X151722504Y-95214340D01*
X151686859Y-95026238D01*
X151642929Y-94839691D01*
X151590210Y-94654175D01*
X151527679Y-94470200D01*
X151456375Y-94288300D01*
X151375748Y-94108986D01*
X151213501Y-93797890D01*
X151037277Y-93496620D01*
X150847626Y-93204132D01*
X150647125Y-92918877D01*
X150437317Y-92640343D01*
X150220276Y-92365936D01*
X149772751Y-91827469D01*
X149318512Y-91292618D01*
X148873581Y-90752083D01*
X148658615Y-90476646D01*
X148451904Y-90195526D01*
X148255020Y-89908211D01*
X148070007Y-89612618D01*
X147979584Y-89432785D01*
X147897934Y-89248299D01*
X147760468Y-88866928D01*
X147657639Y-88471603D01*
X147588898Y-88066460D01*
X147555313Y-87656151D01*
X147556351Y-87244286D01*
X147593048Y-86835007D01*
X147665390Y-86431931D01*
X147714478Y-86234016D01*
X147772873Y-86039192D01*
X147840576Y-85847473D01*
X147916534Y-85660400D01*
X148002319Y-85477989D01*
X148096878Y-85300217D01*
X148200241Y-85128136D01*
X148312897Y-84962257D01*
X148434860Y-84802574D01*
X148566116Y-84650131D01*
X148706161Y-84505440D01*
X148855499Y-84368492D01*
X149014145Y-84240334D01*
X149182098Y-84120964D01*
X149359345Y-84011414D01*
X149546417Y-83911674D01*
X149661133Y-83845528D01*
X149778427Y-83788170D01*
X149897812Y-83738045D01*
X150019760Y-83694633D01*
X150143799Y-83656906D01*
X150268845Y-83624351D01*
X150395462Y-83595932D01*
X150523102Y-83570091D01*
X151035217Y-83481209D01*
X151288940Y-83432114D01*
X151413483Y-83403694D01*
X151536987Y-83370621D01*
X151581940Y-83334969D01*
X151621231Y-83296722D01*
X151655319Y-83256416D01*
X151683746Y-83214043D01*
X151707001Y-83170120D01*
X151725601Y-83124641D01*
X151739044Y-83078651D01*
X151747818Y-83031624D01*
X151752472Y-82984085D01*
X151752472Y-82936020D01*
X151748352Y-82888481D01*
X151740082Y-82840935D01*
X151728195Y-82793915D01*
X151712692Y-82747925D01*
X151693054Y-82702965D01*
X151670837Y-82659554D01*
X151644989Y-82617699D01*
X151616058Y-82577904D01*
X151584534Y-82540184D01*
X151549911Y-82505554D01*
X151512711Y-82473000D01*
X151473419Y-82444061D01*
X151432083Y-82418228D01*
X151388168Y-82396004D01*
X151342682Y-82377914D01*
X151295654Y-82363449D01*
X151246567Y-82354149D01*
X151196442Y-82348976D01*
X151145279Y-82348976D01*
X151092575Y-82354149D01*
X151038818Y-82365517D01*
X150985092Y-82382050D01*
X150324661Y-82368614D01*
X149663208Y-82368095D01*
X149002258Y-82388252D01*
X148672562Y-82407372D01*
X148343903Y-82433731D01*
X148016281Y-82468864D01*
X147689682Y-82512794D01*
X147365158Y-82566536D01*
X147042175Y-82630615D01*
X146721771Y-82706062D01*
X146402939Y-82793915D01*
X146087189Y-82894684D01*
X145774551Y-83009399D01*
X145577667Y-83084854D01*
X145378708Y-83168053D01*
X145178207Y-83257965D01*
X144976151Y-83355118D01*
X144774612Y-83458984D01*
X144573074Y-83569061D01*
X144372559Y-83685844D01*
X144174652Y-83808838D01*
X143979309Y-83938026D01*
X143787598Y-84072388D01*
X143599487Y-84212952D01*
X143417069Y-84359192D01*
X143240341Y-84510086D01*
X143069809Y-84666664D01*
X142905991Y-84828415D01*
X142750961Y-84994293D01*
X142321014Y-85503822D01*
X141933441Y-86039711D01*
X141588242Y-86599365D01*
X141283356Y-87180725D01*
X141018250Y-87781204D01*
X140791397Y-88397705D01*
X140602249Y-89028671D01*
X140449814Y-89671013D01*
X140333023Y-90322136D01*
X140250336Y-90979973D01*
X140200729Y-91641953D01*
X140183670Y-92305992D01*
X140186264Y-92417618D01*
X140198151Y-92968483D01*
X140242584Y-93627876D01*
X140315964Y-94281586D01*
X140417770Y-94927025D01*
X140492706Y-95275322D01*
X140587784Y-95615349D01*
X140701996Y-95946594D01*
X140834290Y-96270096D01*
X140982590Y-96585320D01*
X141146408Y-96893311D01*
X141323654Y-97194069D01*
X141514343Y-97487587D01*
X141715881Y-97774391D01*
X141928268Y-98054482D01*
X142149445Y-98328361D01*
X142378372Y-98596565D01*
X142613510Y-98858566D01*
X142854309Y-99114883D01*
X143346802Y-99612526D01*
X143397430Y-99648178D01*
X143438782Y-99683319D01*
X143472366Y-99717430D01*
X143497162Y-99751015D01*
X143514740Y-99784088D01*
X143525589Y-99816643D01*
X143529205Y-99848686D01*
X143526627Y-99880211D01*
X143518356Y-99911217D01*
X143504410Y-99941704D01*
X143485291Y-99972191D01*
X143462021Y-100002159D01*
X143434647Y-100031616D01*
X143403641Y-100061081D01*
X143332321Y-100119987D01*
X143251709Y-100177856D01*
X143164886Y-100235741D01*
X142988159Y-100353050D01*
X142904953Y-100412483D01*
X142830032Y-100473450D01*
X142796951Y-100504463D01*
X142766983Y-100535980D01*
X142740631Y-100567497D01*
X142718918Y-100600059D01*
X142534958Y-100764908D01*
X142359253Y-100935959D01*
X142192337Y-101113213D01*
X142033173Y-101295631D01*
X141882278Y-101483727D01*
X141739136Y-101676483D01*
X141475586Y-102076973D01*
X141240982Y-102495041D01*
X141034271Y-102928078D01*
X140853912Y-103374573D01*
X140697861Y-103832939D01*
X140565567Y-104300087D01*
X140454971Y-104775002D01*
X140365570Y-105254562D01*
X140294785Y-105738251D01*
X140242081Y-106222458D01*
X140205902Y-106706673D01*
X140184189Y-107187263D01*
X140176437Y-107663712D01*
X137840683Y-107663712D01*
X137846863Y-107649757D01*
X137864960Y-107603767D01*
X137879944Y-107556740D01*
X137893372Y-107508682D01*
X137903717Y-107459587D01*
X137911987Y-107409981D01*
X137918182Y-107359337D01*
X137921280Y-107307663D01*
X137922836Y-107254951D01*
X137922836Y-99767036D01*
X131209549Y-99767036D01*
X131209549Y-101830994D01*
X123304611Y-101830994D01*
X123304611Y-99767036D01*
X123304611Y-90341774D01*
X131209549Y-90341774D01*
X131209549Y-92406242D01*
X133788208Y-92406242D01*
X133788208Y-97829689D01*
X133789230Y-97882401D01*
X133792862Y-97934074D01*
X133799057Y-97984718D01*
X133807327Y-98034843D01*
X133817657Y-98083420D01*
X133830582Y-98131477D01*
X133846069Y-98178505D01*
X133863647Y-98225014D01*
X133883804Y-98269974D01*
X133906540Y-98314415D01*
X133931351Y-98358337D01*
X133958740Y-98400711D01*
X133988190Y-98442574D01*
X134020218Y-98483391D01*
X134054337Y-98523186D01*
X134091019Y-98562462D01*
X134129257Y-98599152D01*
X134168533Y-98633255D01*
X134208847Y-98665298D01*
X134250183Y-98694748D01*
X134292572Y-98722137D01*
X134335968Y-98746941D01*
X134379898Y-98769165D01*
X134425369Y-98789322D01*
X134471878Y-98806892D01*
X134518906Y-98822395D01*
X134566971Y-98835312D01*
X134616577Y-98846161D01*
X134666702Y-98854431D01*
X134717865Y-98860115D01*
X134770050Y-98863731D01*
X134823288Y-98864769D01*
X136887756Y-98864769D01*
X136940979Y-98863731D01*
X136993179Y-98860115D01*
X137044342Y-98854431D01*
X137094452Y-98846161D01*
X137143555Y-98835312D01*
X137192123Y-98822395D01*
X137239151Y-98806892D01*
X137285660Y-98789322D01*
X137331131Y-98769165D01*
X137375061Y-98746941D01*
X137418472Y-98722137D01*
X137460846Y-98694748D01*
X137502182Y-98665298D01*
X137542496Y-98633255D01*
X137581772Y-98599152D01*
X137620010Y-98562462D01*
X137656693Y-98523186D01*
X137690811Y-98483391D01*
X137722839Y-98442574D01*
X137752304Y-98400711D01*
X137779678Y-98358337D01*
X137804489Y-98314415D01*
X137826721Y-98269974D01*
X137846863Y-98225014D01*
X137864960Y-98178505D01*
X137879944Y-98131477D01*
X137893372Y-98083420D01*
X137903717Y-98034843D01*
X137911987Y-97984718D01*
X137918182Y-97934074D01*
X137921280Y-97882401D01*
X137922836Y-97829689D01*
X137922836Y-90341774D01*
X131209549Y-90341774D01*
X123304611Y-90341774D01*
X123304611Y-87502670D01*
X131209549Y-87502670D01*
X131212128Y-87608604D01*
X131218842Y-87712479D01*
X131230728Y-87814278D01*
X131247269Y-87914017D01*
X131268448Y-88012199D01*
X131294815Y-88108315D01*
X131325302Y-88202370D01*
X131360962Y-88294350D01*
X131401260Y-88384270D01*
X131446228Y-88472633D01*
X131495834Y-88558937D01*
X131550095Y-88643684D01*
X131609009Y-88725853D01*
X131673080Y-88806465D01*
X131741821Y-88885017D01*
X131814682Y-88961494D01*
X131890640Y-89034874D01*
X131968674Y-89103607D01*
X132048782Y-89167168D01*
X132130936Y-89226593D01*
X132214661Y-89280853D01*
X132300949Y-89330467D01*
X132389328Y-89375420D01*
X132479233Y-89415733D01*
X132571228Y-89451385D01*
X132665787Y-89481880D01*
X132761902Y-89507713D01*
X132860092Y-89529419D01*
X132960342Y-89545952D01*
X133062668Y-89557838D01*
X133167053Y-89564560D01*
X133273499Y-89567146D01*
X133379440Y-89564560D01*
X133483322Y-89557838D01*
X133585114Y-89545952D01*
X133684845Y-89529419D01*
X133783035Y-89507713D01*
X133879150Y-89481880D01*
X133973206Y-89451385D01*
X134065186Y-89415733D01*
X134155624Y-89375420D01*
X134243469Y-89330467D01*
X134329773Y-89280853D01*
X134414520Y-89226593D01*
X134496689Y-89167168D01*
X134577301Y-89103607D01*
X134655838Y-89034874D01*
X134732330Y-88961494D01*
X134805710Y-88885017D01*
X134874435Y-88806465D01*
X134938522Y-88725853D01*
X134997421Y-88643684D01*
X135051681Y-88558937D01*
X135101288Y-88472633D01*
X135146255Y-88384270D01*
X135186569Y-88294350D01*
X135222229Y-88202370D01*
X135252716Y-88108315D01*
X135278549Y-88012199D01*
X135300247Y-87914017D01*
X135316788Y-87814278D01*
X135328674Y-87712479D01*
X135335388Y-87608604D01*
X135337982Y-87502670D01*
X135337982Y-85178261D01*
X133788208Y-85178261D01*
X133788208Y-86982285D01*
X133787689Y-87008644D01*
X133786133Y-87034477D01*
X133783035Y-87059799D01*
X133778900Y-87084610D01*
X133773727Y-87109413D01*
X133767014Y-87133698D01*
X133759262Y-87156952D01*
X133750473Y-87180725D01*
X133740143Y-87203461D01*
X133729294Y-87225685D01*
X133716888Y-87247902D01*
X133702942Y-87269608D01*
X133688461Y-87290794D01*
X133672440Y-87311462D01*
X133655395Y-87331619D01*
X133636780Y-87351257D01*
X133617661Y-87369858D01*
X133598038Y-87386917D01*
X133577881Y-87402931D01*
X133557724Y-87417923D01*
X133536530Y-87431358D01*
X133514832Y-87443756D01*
X133493118Y-87455124D01*
X133470398Y-87464943D01*
X133447662Y-87473732D01*
X133423889Y-87481483D01*
X133400116Y-87488197D01*
X133375824Y-87493370D01*
X133351013Y-87497505D01*
X133325699Y-87500603D01*
X133299850Y-87502152D01*
X133273499Y-87502670D01*
X133247665Y-87502152D01*
X133221832Y-87500603D01*
X133195984Y-87497505D01*
X133171188Y-87493370D01*
X133146378Y-87488197D01*
X133122604Y-87481483D01*
X133098831Y-87473732D01*
X133075592Y-87464943D01*
X133052322Y-87455124D01*
X133030106Y-87443756D01*
X133008408Y-87431358D01*
X132986694Y-87417923D01*
X132965515Y-87402931D01*
X132944839Y-87386917D01*
X132924179Y-87369858D01*
X132904541Y-87351257D01*
X132886963Y-87331619D01*
X132870422Y-87311462D01*
X132854919Y-87290794D01*
X132840973Y-87269608D01*
X132828049Y-87247902D01*
X132815659Y-87225685D01*
X132805313Y-87203461D01*
X132795502Y-87180725D01*
X132787231Y-87156952D01*
X132779480Y-87133698D01*
X132773270Y-87109413D01*
X132768112Y-87084610D01*
X132764496Y-87059799D01*
X132761398Y-87034477D01*
X132759842Y-87008644D01*
X132759323Y-86982285D01*
X132759323Y-84403633D01*
X132760361Y-84350410D01*
X132763977Y-84298218D01*
X132769653Y-84247055D01*
X132777924Y-84196411D01*
X132788269Y-84147316D01*
X132800659Y-84099258D01*
X132816162Y-84051720D01*
X132833221Y-84005722D01*
X132852860Y-83960251D01*
X132875076Y-83915810D01*
X132899368Y-83872917D01*
X132926239Y-83830544D01*
X132955170Y-83789200D01*
X132986191Y-83748894D01*
X133019775Y-83709618D01*
X133055939Y-83670860D01*
X133094711Y-83634171D01*
X133135010Y-83600067D01*
X133175842Y-83568024D01*
X133217178Y-83538567D01*
X133260071Y-83511696D01*
X133303482Y-83486374D01*
X133347916Y-83464157D01*
X133393402Y-83444000D01*
X133439392Y-83426430D01*
X133486420Y-83410927D01*
X133534470Y-83398010D01*
X133583557Y-83387161D01*
X133633179Y-83378891D01*
X133684341Y-83373207D01*
X133736008Y-83369591D01*
X133788208Y-83368553D01*
X135337982Y-83368553D01*
X135391205Y-83369591D01*
X135443390Y-83373207D01*
X135494553Y-83378891D01*
X135544678Y-83387161D01*
X135594299Y-83398010D01*
X135642349Y-83410927D01*
X135689896Y-83426430D01*
X135735886Y-83444000D01*
X135781372Y-83464157D01*
X135825287Y-83486374D01*
X135868698Y-83511696D01*
X135911072Y-83538567D01*
X135952408Y-83568024D01*
X135992722Y-83600067D01*
X136031998Y-83634171D01*
X136070236Y-83670860D01*
X136106918Y-83709618D01*
X136141022Y-83748894D01*
X136173065Y-83789200D01*
X136203049Y-83830544D01*
X136229919Y-83872917D01*
X136254715Y-83915810D01*
X136277451Y-83960251D01*
X136297607Y-84005722D01*
X136315170Y-84051720D01*
X136330688Y-84099258D01*
X136343597Y-84147316D01*
X136353928Y-84196411D01*
X136362198Y-84247055D01*
X136368408Y-84298218D01*
X136372025Y-84350410D01*
X136373062Y-84403633D01*
X136373062Y-89306694D01*
X137922836Y-89306694D01*
X137922836Y-83368553D01*
X137920242Y-83262619D01*
X137913528Y-83158745D01*
X137901123Y-83056946D01*
X137885101Y-82957207D01*
X137863403Y-82859024D01*
X137837570Y-82763428D01*
X137807068Y-82668854D01*
X137771423Y-82576874D01*
X137731110Y-82486954D01*
X137686157Y-82398590D01*
X137636551Y-82312286D01*
X137582291Y-82227539D01*
X137522858Y-82145370D01*
X137459290Y-82064758D01*
X137390564Y-81986214D01*
X137317184Y-81909729D01*
X137240707Y-81836350D01*
X137162155Y-81767616D01*
X137081543Y-81704056D01*
X136999374Y-81644630D01*
X136914627Y-81590370D01*
X136828323Y-81540756D01*
X136739960Y-81495804D01*
X136650040Y-81455490D01*
X136558060Y-81420357D01*
X136464005Y-81389343D01*
X136367889Y-81363510D01*
X136269699Y-81341804D01*
X136169968Y-81325272D01*
X136068161Y-81313385D01*
X135964294Y-81306664D01*
X135858353Y-81304085D01*
X133273499Y-81304085D01*
X133168091Y-81306664D01*
X133064209Y-81313385D01*
X132962418Y-81325272D01*
X132862671Y-81341804D01*
X132764496Y-81363510D01*
X132668381Y-81389343D01*
X132574326Y-81420357D01*
X132482330Y-81455490D01*
X132391907Y-81495804D01*
X132303528Y-81540756D01*
X132217239Y-81590370D01*
X132133011Y-81644630D01*
X132050842Y-81704056D01*
X131970230Y-81767616D01*
X131891678Y-81836350D01*
X131814682Y-81909729D01*
X131741821Y-81985695D01*
X131673080Y-82063210D01*
X131609009Y-82143303D01*
X131550095Y-82225472D01*
X131495834Y-82309708D01*
X131446228Y-82395485D01*
X131401260Y-82483856D01*
X131360962Y-82573769D01*
X131325302Y-82666275D01*
X131294815Y-82760323D01*
X131268448Y-82856438D01*
X131247269Y-82955147D01*
X131230728Y-83055397D01*
X131218842Y-83157715D01*
X131212128Y-83262100D01*
X131209549Y-83368553D01*
X131209549Y-87502670D01*
X123304611Y-87502670D01*
X123304611Y-70387436D01*
X160017609Y-70387436D01*
X160017609Y-126469803D01*
G37*
G04 #@! TD.AperFunction*
X136373062Y-96280426D02*
X136372528Y-96306267D01*
X136370468Y-96332108D01*
X136367889Y-96357429D01*
X136363754Y-96382233D01*
X136358078Y-96406517D01*
X136351868Y-96430809D01*
X136344116Y-96454063D01*
X136335327Y-96476799D01*
X136324997Y-96499535D01*
X136313629Y-96521240D01*
X136301743Y-96542946D01*
X136287796Y-96564133D01*
X136273331Y-96584801D01*
X136257309Y-96604958D01*
X136239731Y-96624077D01*
X136221649Y-96643196D01*
X136202530Y-96661797D01*
X136182892Y-96678856D01*
X136162735Y-96694870D01*
X136142059Y-96709343D01*
X136121399Y-96723297D01*
X136099686Y-96735695D01*
X136077469Y-96747063D01*
X136055252Y-96756882D01*
X136032501Y-96765671D01*
X136008728Y-96773422D01*
X135984970Y-96780136D01*
X135960678Y-96785309D01*
X135935867Y-96789444D01*
X135910553Y-96792542D01*
X135884720Y-96794090D01*
X135858353Y-96794609D01*
X135831482Y-96794090D01*
X135805130Y-96792542D01*
X135779297Y-96789444D01*
X135753449Y-96785309D01*
X135728653Y-96780136D01*
X135704361Y-96773422D01*
X135680588Y-96765671D01*
X135657333Y-96756882D01*
X135634598Y-96747063D01*
X135611862Y-96735695D01*
X135590149Y-96723297D01*
X135568970Y-96709343D01*
X135548309Y-96694870D01*
X135528137Y-96678856D01*
X135508499Y-96661797D01*
X135489380Y-96643196D01*
X135470779Y-96624077D01*
X135453735Y-96604958D01*
X135437714Y-96584801D01*
X135422730Y-96564133D01*
X135409302Y-96542946D01*
X135396881Y-96521240D01*
X135386032Y-96499535D01*
X135375702Y-96476799D01*
X135366913Y-96454063D01*
X135359161Y-96430809D01*
X135352448Y-96406517D01*
X135347275Y-96382233D01*
X135343140Y-96357429D01*
X135340042Y-96332108D01*
X135338501Y-96306267D01*
X135337982Y-96280426D01*
X135337982Y-92406242D01*
X136373062Y-92406242D01*
X136373062Y-96280426D01*
G04 #@! TA.AperFunction,Conductor*
G36*
X136373062Y-96280426D02*
G01*
X136372528Y-96306267D01*
X136370468Y-96332108D01*
X136367889Y-96357429D01*
X136363754Y-96382233D01*
X136358078Y-96406517D01*
X136351868Y-96430809D01*
X136344116Y-96454063D01*
X136335327Y-96476799D01*
X136324997Y-96499535D01*
X136313629Y-96521240D01*
X136301743Y-96542946D01*
X136287796Y-96564133D01*
X136273331Y-96584801D01*
X136257309Y-96604958D01*
X136239731Y-96624077D01*
X136221649Y-96643196D01*
X136202530Y-96661797D01*
X136182892Y-96678856D01*
X136162735Y-96694870D01*
X136142059Y-96709343D01*
X136121399Y-96723297D01*
X136099686Y-96735695D01*
X136077469Y-96747063D01*
X136055252Y-96756882D01*
X136032501Y-96765671D01*
X136008728Y-96773422D01*
X135984970Y-96780136D01*
X135960678Y-96785309D01*
X135935867Y-96789444D01*
X135910553Y-96792542D01*
X135884720Y-96794090D01*
X135858353Y-96794609D01*
X135831482Y-96794090D01*
X135805130Y-96792542D01*
X135779297Y-96789444D01*
X135753449Y-96785309D01*
X135728653Y-96780136D01*
X135704361Y-96773422D01*
X135680588Y-96765671D01*
X135657333Y-96756882D01*
X135634598Y-96747063D01*
X135611862Y-96735695D01*
X135590149Y-96723297D01*
X135568970Y-96709343D01*
X135548309Y-96694870D01*
X135528137Y-96678856D01*
X135508499Y-96661797D01*
X135489380Y-96643196D01*
X135470779Y-96624077D01*
X135453735Y-96604958D01*
X135437714Y-96584801D01*
X135422730Y-96564133D01*
X135409302Y-96542946D01*
X135396881Y-96521240D01*
X135386032Y-96499535D01*
X135375702Y-96476799D01*
X135366913Y-96454063D01*
X135359161Y-96430809D01*
X135352448Y-96406517D01*
X135347275Y-96382233D01*
X135343140Y-96357429D01*
X135340042Y-96332108D01*
X135338501Y-96306267D01*
X135337982Y-96280426D01*
X135337982Y-92406242D01*
X136373062Y-92406242D01*
X136373062Y-96280426D01*
G37*
G04 #@! TD.AperFunction*
X136373062Y-105705177D02*
X136372528Y-105731529D01*
X136370468Y-105757370D01*
X136367889Y-105782692D01*
X136363754Y-105807503D01*
X136358078Y-105831779D01*
X136351868Y-105855553D01*
X136344116Y-105879334D01*
X136335327Y-105902061D01*
X136324997Y-105924278D01*
X136313629Y-105946503D01*
X136301743Y-105968208D01*
X136287796Y-105988876D01*
X136273331Y-106009552D01*
X136257309Y-106029701D01*
X136239731Y-106049339D01*
X136221649Y-106068459D01*
X136202530Y-106086548D01*
X136182892Y-106104118D01*
X136162735Y-106120140D01*
X136142059Y-106134613D01*
X136121399Y-106148041D01*
X136099686Y-106160454D01*
X136077469Y-106171806D01*
X136055252Y-106182152D01*
X136032501Y-106190933D01*
X136008728Y-106198692D01*
X135984970Y-106204887D01*
X135960678Y-106210571D01*
X135935867Y-106214706D01*
X135910553Y-106217293D01*
X135884720Y-106219360D01*
X135858353Y-106219872D01*
X135831482Y-106219360D01*
X135805130Y-106217293D01*
X135779297Y-106214706D01*
X135753449Y-106210571D01*
X135728653Y-106204887D01*
X135704361Y-106198692D01*
X135680588Y-106190933D01*
X135657333Y-106182152D01*
X135634598Y-106171806D01*
X135611862Y-106160454D01*
X135590149Y-106148041D01*
X135568970Y-106134613D01*
X135548309Y-106120140D01*
X135528137Y-106104118D01*
X135508499Y-106086548D01*
X135489380Y-106068459D01*
X135470779Y-106049339D01*
X135453735Y-106029701D01*
X135437714Y-106009552D01*
X135422730Y-105988876D01*
X135409302Y-105968208D01*
X135396881Y-105946503D01*
X135386032Y-105924278D01*
X135375702Y-105902061D01*
X135366913Y-105879334D01*
X135359161Y-105855553D01*
X135352448Y-105831779D01*
X135347275Y-105807503D01*
X135343140Y-105782692D01*
X135340042Y-105757370D01*
X135338501Y-105731529D01*
X135337982Y-105705177D01*
X135337982Y-101830994D01*
X136373062Y-101830994D01*
X136373062Y-105705177D01*
G04 #@! TA.AperFunction,Conductor*
G36*
X136373062Y-105705177D02*
G01*
X136372528Y-105731529D01*
X136370468Y-105757370D01*
X136367889Y-105782692D01*
X136363754Y-105807503D01*
X136358078Y-105831779D01*
X136351868Y-105855553D01*
X136344116Y-105879334D01*
X136335327Y-105902061D01*
X136324997Y-105924278D01*
X136313629Y-105946503D01*
X136301743Y-105968208D01*
X136287796Y-105988876D01*
X136273331Y-106009552D01*
X136257309Y-106029701D01*
X136239731Y-106049339D01*
X136221649Y-106068459D01*
X136202530Y-106086548D01*
X136182892Y-106104118D01*
X136162735Y-106120140D01*
X136142059Y-106134613D01*
X136121399Y-106148041D01*
X136099686Y-106160454D01*
X136077469Y-106171806D01*
X136055252Y-106182152D01*
X136032501Y-106190933D01*
X136008728Y-106198692D01*
X135984970Y-106204887D01*
X135960678Y-106210571D01*
X135935867Y-106214706D01*
X135910553Y-106217293D01*
X135884720Y-106219360D01*
X135858353Y-106219872D01*
X135831482Y-106219360D01*
X135805130Y-106217293D01*
X135779297Y-106214706D01*
X135753449Y-106210571D01*
X135728653Y-106204887D01*
X135704361Y-106198692D01*
X135680588Y-106190933D01*
X135657333Y-106182152D01*
X135634598Y-106171806D01*
X135611862Y-106160454D01*
X135590149Y-106148041D01*
X135568970Y-106134613D01*
X135548309Y-106120140D01*
X135528137Y-106104118D01*
X135508499Y-106086548D01*
X135489380Y-106068459D01*
X135470779Y-106049339D01*
X135453735Y-106029701D01*
X135437714Y-106009552D01*
X135422730Y-105988876D01*
X135409302Y-105968208D01*
X135396881Y-105946503D01*
X135386032Y-105924278D01*
X135375702Y-105902061D01*
X135366913Y-105879334D01*
X135359161Y-105855553D01*
X135352448Y-105831779D01*
X135347275Y-105807503D01*
X135343140Y-105782692D01*
X135340042Y-105757370D01*
X135338501Y-105731529D01*
X135337982Y-105705177D01*
X135337982Y-101830994D01*
X136373062Y-101830994D01*
X136373062Y-105705177D01*
G37*
G04 #@! TD.AperFunction*
X151109619Y-82905533D02*
X151044510Y-82929306D01*
X150973190Y-82950493D01*
X150897232Y-82969093D01*
X150817139Y-82985634D01*
X150732910Y-83000618D01*
X150557724Y-83029037D01*
X150377365Y-83056946D01*
X150199081Y-83089500D01*
X150112778Y-83108620D01*
X150029068Y-83130325D01*
X149948456Y-83154617D01*
X149873001Y-83182518D01*
X149681290Y-83249184D01*
X149495758Y-83325661D01*
X149315933Y-83411446D01*
X149142303Y-83506012D01*
X148974869Y-83608849D01*
X148813644Y-83719955D01*
X148658615Y-83838295D01*
X148509781Y-83964386D01*
X148367676Y-84097710D01*
X148231766Y-84237755D01*
X148102570Y-84383476D01*
X147980087Y-84535408D01*
X147864868Y-84693024D01*
X147756348Y-84855804D01*
X147654541Y-85023232D01*
X147559982Y-85195320D01*
X147472641Y-85371536D01*
X147392532Y-85551369D01*
X147319672Y-85734818D01*
X147254044Y-85921371D01*
X147196167Y-86109985D01*
X147146042Y-86301193D01*
X147103668Y-86494461D01*
X147069046Y-86689285D01*
X147042175Y-86885139D01*
X147023056Y-87082024D01*
X147012207Y-87279427D01*
X147009613Y-87476830D01*
X147015305Y-87673721D01*
X147029251Y-87870087D01*
X147051468Y-88065430D01*
X147082489Y-88259727D01*
X147119171Y-88484009D01*
X147166718Y-88703110D01*
X147224594Y-88916534D01*
X147292282Y-89124275D01*
X147369812Y-89327881D01*
X147455063Y-89526833D01*
X147549118Y-89721657D01*
X147649887Y-89912338D01*
X147872101Y-90283379D01*
X148117554Y-90643044D01*
X148380600Y-90993408D01*
X148657059Y-91336540D01*
X149804276Y-92690987D01*
X150078171Y-93037216D01*
X150337067Y-93391716D01*
X150576843Y-93756554D01*
X150792328Y-94134308D01*
X150884842Y-94311043D01*
X150966492Y-94490875D01*
X151037277Y-94672775D01*
X151097229Y-94856743D01*
X151146317Y-95042259D01*
X151185074Y-95229843D01*
X151214020Y-95418465D01*
X151233139Y-95607597D01*
X151241913Y-95797256D01*
X151241913Y-95987427D01*
X151232620Y-96177589D01*
X151214020Y-96367241D01*
X151187134Y-96556381D01*
X151150970Y-96744484D01*
X151054840Y-97116035D01*
X150927200Y-97480354D01*
X150770111Y-97833824D01*
X150584595Y-98175400D01*
X150373230Y-98501480D01*
X150137589Y-98809990D01*
X149879211Y-99098343D01*
X149600159Y-99363960D01*
X149302490Y-99604774D01*
X149932434Y-100451752D01*
X150243530Y-100886353D01*
X150392349Y-101107521D01*
X150534470Y-101332321D01*
X150668304Y-101560730D01*
X150792328Y-101793793D01*
X150904984Y-102030983D01*
X151004730Y-102273338D01*
X151088959Y-102521912D01*
X151125122Y-102648003D01*
X151157166Y-102775642D01*
X151185074Y-102905350D01*
X151207809Y-103036598D01*
X151225372Y-103169411D01*
X151238297Y-103303772D01*
X151241913Y-103337357D01*
X151245010Y-103371468D01*
X151247604Y-103405060D01*
X151250183Y-103438652D01*
X151252258Y-103472237D01*
X151253799Y-103505829D01*
X151256378Y-103572487D01*
X151256912Y-103696510D01*
X151252258Y-103820023D01*
X151228989Y-104062897D01*
X151188171Y-104301643D01*
X151130814Y-104536247D01*
X151058472Y-104766731D01*
X150972168Y-104993072D01*
X150873459Y-105215279D01*
X150763901Y-105433868D01*
X150644531Y-105648849D01*
X150516373Y-105859169D01*
X150381500Y-106066391D01*
X150240952Y-106269478D01*
X149947937Y-106665321D01*
X149648209Y-107046181D01*
X148749039Y-108152573D01*
X148524261Y-108435760D01*
X148305145Y-108723084D01*
X148093781Y-109015053D01*
X147893280Y-109312714D01*
X147706207Y-109616562D01*
X147535172Y-109927658D01*
X147382721Y-110245979D01*
X147314499Y-110408760D01*
X147251968Y-110573097D01*
X147195648Y-110740013D01*
X147145523Y-110909508D01*
X147101608Y-111081078D01*
X147065430Y-111255218D01*
X147035980Y-111431961D01*
X147014786Y-111611794D01*
X147001343Y-111794212D01*
X146996185Y-111979729D01*
X146985321Y-112196251D01*
X146987396Y-112412781D01*
X147000320Y-112628777D01*
X147025116Y-112843239D01*
X147061295Y-113056671D01*
X147108322Y-113268021D01*
X147165161Y-113477310D01*
X147232849Y-113682983D01*
X147310379Y-113886070D01*
X147397705Y-114085030D01*
X147493820Y-114279846D01*
X147599243Y-114469498D01*
X147713440Y-114654503D01*
X147836441Y-114833817D01*
X147967178Y-115006927D01*
X148105667Y-115173851D01*
X148251404Y-115333008D01*
X148404892Y-115485458D01*
X148565079Y-115629631D01*
X148731476Y-115765541D01*
X148904602Y-115892670D01*
X149083908Y-116009972D01*
X149268402Y-116117981D01*
X149458557Y-116216164D01*
X149653381Y-116302978D01*
X149853378Y-116378937D01*
X150057999Y-116443542D01*
X150266266Y-116495728D01*
X150478653Y-116535522D01*
X150694672Y-116562393D01*
X150914291Y-116575829D01*
X151136490Y-116575310D01*
X151144760Y-116588226D01*
X151148392Y-116600121D01*
X151147858Y-116610451D01*
X151143738Y-116620270D01*
X151134949Y-116628540D01*
X151123062Y-116635262D01*
X151107559Y-116641457D01*
X151089478Y-116647140D01*
X151044510Y-116654900D01*
X150989731Y-116659554D01*
X150928757Y-116661613D01*
X150862091Y-116661613D01*
X150721008Y-116656960D01*
X150584076Y-116648689D01*
X150466248Y-116640938D01*
X150385132Y-116637329D01*
X150027008Y-116658508D01*
X149668365Y-116667297D01*
X149309219Y-116664200D01*
X148950592Y-116647659D01*
X148592987Y-116618721D01*
X148236938Y-116576859D01*
X147882950Y-116521568D01*
X147531540Y-116452843D01*
X147183243Y-116370666D01*
X146838058Y-116274559D01*
X146498016Y-116164490D01*
X146162125Y-116040459D01*
X145831390Y-115901970D01*
X145506866Y-115749008D01*
X145188538Y-115581581D01*
X144877441Y-115399162D01*
X144654724Y-115273071D01*
X144437164Y-115139229D01*
X144225800Y-114998154D01*
X144020142Y-114850349D01*
X143819641Y-114695320D01*
X143625839Y-114534088D01*
X143437225Y-114366661D01*
X143254807Y-114193031D01*
X143078598Y-114013199D01*
X142908051Y-113828194D01*
X142743729Y-113637512D01*
X142585083Y-113441650D01*
X142286911Y-113035988D01*
X142013535Y-112612251D01*
X141765488Y-112171959D01*
X141543289Y-111717728D01*
X141346909Y-111251091D01*
X141176392Y-110774117D01*
X141033234Y-110287842D01*
X140916443Y-109794853D01*
X140827560Y-109296692D01*
X140766586Y-108795433D01*
X140735580Y-108302429D01*
X140718018Y-107802719D01*
X140715424Y-107298882D01*
X140729889Y-106792961D01*
X140761932Y-106286537D01*
X140814117Y-105781662D01*
X140887512Y-105280403D01*
X140984146Y-104784821D01*
X141105591Y-104296989D01*
X141253372Y-103818466D01*
X141429077Y-103351311D01*
X141634232Y-102897598D01*
X141870911Y-102459381D01*
X142140152Y-102038727D01*
X142444000Y-101637207D01*
X142784042Y-101256866D01*
X142822800Y-101205711D01*
X142865692Y-101156616D01*
X142911682Y-101108559D01*
X142960770Y-101062050D01*
X143065674Y-100971611D01*
X143177811Y-100884804D01*
X143412415Y-100714783D01*
X143528168Y-100629517D01*
X143639801Y-100542183D01*
X143743668Y-100451752D01*
X143792252Y-100404716D01*
X143837204Y-100356148D01*
X143879059Y-100306541D01*
X143917297Y-100254860D01*
X143951401Y-100201637D01*
X143980865Y-100146339D01*
X144005661Y-100088463D01*
X144024780Y-100029037D01*
X144038742Y-99966507D01*
X144047012Y-99901909D01*
X144048553Y-99834213D01*
X144043381Y-99763420D01*
X144031509Y-99689522D01*
X144011871Y-99612526D01*
X143913162Y-99479202D01*
X143809296Y-99349487D01*
X143700775Y-99222366D01*
X143589157Y-99097313D01*
X143357651Y-98852364D01*
X143120438Y-98610001D01*
X142883759Y-98366089D01*
X142767502Y-98242584D01*
X142653809Y-98116493D01*
X142542709Y-97988335D01*
X142435730Y-97857079D01*
X142333420Y-97722717D01*
X142236786Y-97583710D01*
X142006302Y-97290703D01*
X141798569Y-96985809D01*
X141613052Y-96670586D01*
X141448196Y-96345543D01*
X141302979Y-96012230D01*
X141176895Y-95671165D01*
X141067871Y-95323379D01*
X140975876Y-94969917D01*
X140899918Y-94611282D01*
X140837906Y-94249542D01*
X140789841Y-93884712D01*
X140753662Y-93518326D01*
X140729889Y-93150902D01*
X140715942Y-92783485D01*
X140711288Y-92417618D01*
X140715424Y-92053299D01*
X140736618Y-91464699D01*
X140788300Y-90872490D01*
X140870453Y-90279243D01*
X140983109Y-89689102D01*
X141127808Y-89104637D01*
X141304031Y-88528961D01*
X141512802Y-87965691D01*
X141754639Y-87417923D01*
X142029556Y-86888237D01*
X142338058Y-86380775D01*
X142681717Y-85898117D01*
X143059464Y-85443878D01*
X143472885Y-85021164D01*
X143921951Y-84632561D01*
X144160172Y-84452728D01*
X144407196Y-84282196D01*
X144664032Y-84121994D01*
X144929642Y-83972649D01*
X145287750Y-83780930D01*
X145653626Y-83612465D01*
X146026215Y-83466743D01*
X146404999Y-83341682D01*
X146788956Y-83235229D01*
X147178085Y-83146347D01*
X147570831Y-83073998D01*
X147966660Y-83015602D01*
X148365601Y-82969612D01*
X148766098Y-82935509D01*
X149569672Y-82894165D01*
X150372208Y-82879181D01*
X151168015Y-82878143D01*
X151109619Y-82905533D01*
G04 #@! TA.AperFunction,Conductor*
G36*
X151109619Y-82905533D02*
G01*
X151044510Y-82929306D01*
X150973190Y-82950493D01*
X150897232Y-82969093D01*
X150817139Y-82985634D01*
X150732910Y-83000618D01*
X150557724Y-83029037D01*
X150377365Y-83056946D01*
X150199081Y-83089500D01*
X150112778Y-83108620D01*
X150029068Y-83130325D01*
X149948456Y-83154617D01*
X149873001Y-83182518D01*
X149681290Y-83249184D01*
X149495758Y-83325661D01*
X149315933Y-83411446D01*
X149142303Y-83506012D01*
X148974869Y-83608849D01*
X148813644Y-83719955D01*
X148658615Y-83838295D01*
X148509781Y-83964386D01*
X148367676Y-84097710D01*
X148231766Y-84237755D01*
X148102570Y-84383476D01*
X147980087Y-84535408D01*
X147864868Y-84693024D01*
X147756348Y-84855804D01*
X147654541Y-85023232D01*
X147559982Y-85195320D01*
X147472641Y-85371536D01*
X147392532Y-85551369D01*
X147319672Y-85734818D01*
X147254044Y-85921371D01*
X147196167Y-86109985D01*
X147146042Y-86301193D01*
X147103668Y-86494461D01*
X147069046Y-86689285D01*
X147042175Y-86885139D01*
X147023056Y-87082024D01*
X147012207Y-87279427D01*
X147009613Y-87476830D01*
X147015305Y-87673721D01*
X147029251Y-87870087D01*
X147051468Y-88065430D01*
X147082489Y-88259727D01*
X147119171Y-88484009D01*
X147166718Y-88703110D01*
X147224594Y-88916534D01*
X147292282Y-89124275D01*
X147369812Y-89327881D01*
X147455063Y-89526833D01*
X147549118Y-89721657D01*
X147649887Y-89912338D01*
X147872101Y-90283379D01*
X148117554Y-90643044D01*
X148380600Y-90993408D01*
X148657059Y-91336540D01*
X149804276Y-92690987D01*
X150078171Y-93037216D01*
X150337067Y-93391716D01*
X150576843Y-93756554D01*
X150792328Y-94134308D01*
X150884842Y-94311043D01*
X150966492Y-94490875D01*
X151037277Y-94672775D01*
X151097229Y-94856743D01*
X151146317Y-95042259D01*
X151185074Y-95229843D01*
X151214020Y-95418465D01*
X151233139Y-95607597D01*
X151241913Y-95797256D01*
X151241913Y-95987427D01*
X151232620Y-96177589D01*
X151214020Y-96367241D01*
X151187134Y-96556381D01*
X151150970Y-96744484D01*
X151054840Y-97116035D01*
X150927200Y-97480354D01*
X150770111Y-97833824D01*
X150584595Y-98175400D01*
X150373230Y-98501480D01*
X150137589Y-98809990D01*
X149879211Y-99098343D01*
X149600159Y-99363960D01*
X149302490Y-99604774D01*
X149932434Y-100451752D01*
X150243530Y-100886353D01*
X150392349Y-101107521D01*
X150534470Y-101332321D01*
X150668304Y-101560730D01*
X150792328Y-101793793D01*
X150904984Y-102030983D01*
X151004730Y-102273338D01*
X151088959Y-102521912D01*
X151125122Y-102648003D01*
X151157166Y-102775642D01*
X151185074Y-102905350D01*
X151207809Y-103036598D01*
X151225372Y-103169411D01*
X151238297Y-103303772D01*
X151241913Y-103337357D01*
X151245010Y-103371468D01*
X151247604Y-103405060D01*
X151250183Y-103438652D01*
X151252258Y-103472237D01*
X151253799Y-103505829D01*
X151256378Y-103572487D01*
X151256912Y-103696510D01*
X151252258Y-103820023D01*
X151228989Y-104062897D01*
X151188171Y-104301643D01*
X151130814Y-104536247D01*
X151058472Y-104766731D01*
X150972168Y-104993072D01*
X150873459Y-105215279D01*
X150763901Y-105433868D01*
X150644531Y-105648849D01*
X150516373Y-105859169D01*
X150381500Y-106066391D01*
X150240952Y-106269478D01*
X149947937Y-106665321D01*
X149648209Y-107046181D01*
X148749039Y-108152573D01*
X148524261Y-108435760D01*
X148305145Y-108723084D01*
X148093781Y-109015053D01*
X147893280Y-109312714D01*
X147706207Y-109616562D01*
X147535172Y-109927658D01*
X147382721Y-110245979D01*
X147314499Y-110408760D01*
X147251968Y-110573097D01*
X147195648Y-110740013D01*
X147145523Y-110909508D01*
X147101608Y-111081078D01*
X147065430Y-111255218D01*
X147035980Y-111431961D01*
X147014786Y-111611794D01*
X147001343Y-111794212D01*
X146996185Y-111979729D01*
X146985321Y-112196251D01*
X146987396Y-112412781D01*
X147000320Y-112628777D01*
X147025116Y-112843239D01*
X147061295Y-113056671D01*
X147108322Y-113268021D01*
X147165161Y-113477310D01*
X147232849Y-113682983D01*
X147310379Y-113886070D01*
X147397705Y-114085030D01*
X147493820Y-114279846D01*
X147599243Y-114469498D01*
X147713440Y-114654503D01*
X147836441Y-114833817D01*
X147967178Y-115006927D01*
X148105667Y-115173851D01*
X148251404Y-115333008D01*
X148404892Y-115485458D01*
X148565079Y-115629631D01*
X148731476Y-115765541D01*
X148904602Y-115892670D01*
X149083908Y-116009972D01*
X149268402Y-116117981D01*
X149458557Y-116216164D01*
X149653381Y-116302978D01*
X149853378Y-116378937D01*
X150057999Y-116443542D01*
X150266266Y-116495728D01*
X150478653Y-116535522D01*
X150694672Y-116562393D01*
X150914291Y-116575829D01*
X151136490Y-116575310D01*
X151144760Y-116588226D01*
X151148392Y-116600121D01*
X151147858Y-116610451D01*
X151143738Y-116620270D01*
X151134949Y-116628540D01*
X151123062Y-116635262D01*
X151107559Y-116641457D01*
X151089478Y-116647140D01*
X151044510Y-116654900D01*
X150989731Y-116659554D01*
X150928757Y-116661613D01*
X150862091Y-116661613D01*
X150721008Y-116656960D01*
X150584076Y-116648689D01*
X150466248Y-116640938D01*
X150385132Y-116637329D01*
X150027008Y-116658508D01*
X149668365Y-116667297D01*
X149309219Y-116664200D01*
X148950592Y-116647659D01*
X148592987Y-116618721D01*
X148236938Y-116576859D01*
X147882950Y-116521568D01*
X147531540Y-116452843D01*
X147183243Y-116370666D01*
X146838058Y-116274559D01*
X146498016Y-116164490D01*
X146162125Y-116040459D01*
X145831390Y-115901970D01*
X145506866Y-115749008D01*
X145188538Y-115581581D01*
X144877441Y-115399162D01*
X144654724Y-115273071D01*
X144437164Y-115139229D01*
X144225800Y-114998154D01*
X144020142Y-114850349D01*
X143819641Y-114695320D01*
X143625839Y-114534088D01*
X143437225Y-114366661D01*
X143254807Y-114193031D01*
X143078598Y-114013199D01*
X142908051Y-113828194D01*
X142743729Y-113637512D01*
X142585083Y-113441650D01*
X142286911Y-113035988D01*
X142013535Y-112612251D01*
X141765488Y-112171959D01*
X141543289Y-111717728D01*
X141346909Y-111251091D01*
X141176392Y-110774117D01*
X141033234Y-110287842D01*
X140916443Y-109794853D01*
X140827560Y-109296692D01*
X140766586Y-108795433D01*
X140735580Y-108302429D01*
X140718018Y-107802719D01*
X140715424Y-107298882D01*
X140729889Y-106792961D01*
X140761932Y-106286537D01*
X140814117Y-105781662D01*
X140887512Y-105280403D01*
X140984146Y-104784821D01*
X141105591Y-104296989D01*
X141253372Y-103818466D01*
X141429077Y-103351311D01*
X141634232Y-102897598D01*
X141870911Y-102459381D01*
X142140152Y-102038727D01*
X142444000Y-101637207D01*
X142784042Y-101256866D01*
X142822800Y-101205711D01*
X142865692Y-101156616D01*
X142911682Y-101108559D01*
X142960770Y-101062050D01*
X143065674Y-100971611D01*
X143177811Y-100884804D01*
X143412415Y-100714783D01*
X143528168Y-100629517D01*
X143639801Y-100542183D01*
X143743668Y-100451752D01*
X143792252Y-100404716D01*
X143837204Y-100356148D01*
X143879059Y-100306541D01*
X143917297Y-100254860D01*
X143951401Y-100201637D01*
X143980865Y-100146339D01*
X144005661Y-100088463D01*
X144024780Y-100029037D01*
X144038742Y-99966507D01*
X144047012Y-99901909D01*
X144048553Y-99834213D01*
X144043381Y-99763420D01*
X144031509Y-99689522D01*
X144011871Y-99612526D01*
X143913162Y-99479202D01*
X143809296Y-99349487D01*
X143700775Y-99222366D01*
X143589157Y-99097313D01*
X143357651Y-98852364D01*
X143120438Y-98610001D01*
X142883759Y-98366089D01*
X142767502Y-98242584D01*
X142653809Y-98116493D01*
X142542709Y-97988335D01*
X142435730Y-97857079D01*
X142333420Y-97722717D01*
X142236786Y-97583710D01*
X142006302Y-97290703D01*
X141798569Y-96985809D01*
X141613052Y-96670586D01*
X141448196Y-96345543D01*
X141302979Y-96012230D01*
X141176895Y-95671165D01*
X141067871Y-95323379D01*
X140975876Y-94969917D01*
X140899918Y-94611282D01*
X140837906Y-94249542D01*
X140789841Y-93884712D01*
X140753662Y-93518326D01*
X140729889Y-93150902D01*
X140715942Y-92783485D01*
X140711288Y-92417618D01*
X140715424Y-92053299D01*
X140736618Y-91464699D01*
X140788300Y-90872490D01*
X140870453Y-90279243D01*
X140983109Y-89689102D01*
X141127808Y-89104637D01*
X141304031Y-88528961D01*
X141512802Y-87965691D01*
X141754639Y-87417923D01*
X142029556Y-86888237D01*
X142338058Y-86380775D01*
X142681717Y-85898117D01*
X143059464Y-85443878D01*
X143472885Y-85021164D01*
X143921951Y-84632561D01*
X144160172Y-84452728D01*
X144407196Y-84282196D01*
X144664032Y-84121994D01*
X144929642Y-83972649D01*
X145287750Y-83780930D01*
X145653626Y-83612465D01*
X146026215Y-83466743D01*
X146404999Y-83341682D01*
X146788956Y-83235229D01*
X147178085Y-83146347D01*
X147570831Y-83073998D01*
X147966660Y-83015602D01*
X148365601Y-82969612D01*
X148766098Y-82935509D01*
X149569672Y-82894165D01*
X150372208Y-82879181D01*
X151168015Y-82878143D01*
X151109619Y-82905533D01*
G37*
G04 #@! TD.AperFunction*
D11*
X100500000Y-96600000D03*
D12*
X100900000Y-97400000D03*
X100900000Y-98200000D03*
D11*
X100500000Y-99000000D03*
D12*
X100900000Y-99800000D03*
X100900000Y-100600000D03*
D11*
X100500000Y-101400000D03*
D12*
X100900000Y-102200000D03*
X100900000Y-103000000D03*
D11*
X100500000Y-103800000D03*
D13*
X110850000Y-87500000D03*
X111333274Y-86333274D03*
X111333274Y-88666726D03*
X112500000Y-85850000D03*
D14*
X112500000Y-87500000D03*
D13*
X112500000Y-89150000D03*
X113666726Y-86333274D03*
X113666726Y-88666726D03*
X114150000Y-87500000D03*
X110850000Y-112500000D03*
X111333274Y-111333274D03*
X111333274Y-113666726D03*
X112500000Y-110850000D03*
D14*
X112500000Y-112500000D03*
D13*
X112500000Y-114150000D03*
X113666726Y-111333274D03*
X113666726Y-113666726D03*
X114150000Y-112500000D03*
D15*
X106250000Y-105500000D03*
X106250000Y-94250000D03*
X106045000Y-96520000D03*
D16*
X102249999Y-103800000D02*
X102335999Y-103886000D01*
X100500000Y-96600000D02*
X104695000Y-96600000D01*
X100500000Y-101400000D02*
X105483000Y-101400000D01*
X105537000Y-101346000D02*
X105483000Y-101400000D01*
X103819000Y-99000000D02*
X104775000Y-98044000D01*
X100500000Y-103800000D02*
X102249999Y-103800000D01*
X100500000Y-99000000D02*
X103819000Y-99000000D01*
X104695000Y-96600000D02*
X104775000Y-96520000D01*
X102335999Y-103886000D02*
X104521000Y-103886000D01*
X106045000Y-98425000D02*
X106045000Y-96520000D01*
X104670000Y-99800000D02*
X106045000Y-98425000D01*
X100900000Y-99800000D02*
X100900000Y-100600000D01*
X104670000Y-99800000D02*
X100900000Y-99800000D01*
G04 #@! TA.AperFunction,Conductor*
G36*
X141902983Y-74856433D02*
G01*
X143137939Y-74887041D01*
X143144058Y-74887344D01*
X144369242Y-74978498D01*
X144375316Y-74979101D01*
X145590103Y-75129995D01*
X145596093Y-75130890D01*
X146798411Y-75340675D01*
X146804372Y-75341866D01*
X147992199Y-75609700D01*
X147998065Y-75611174D01*
X149169385Y-75936217D01*
X149175135Y-75937965D01*
X150327920Y-76319381D01*
X150333562Y-76321402D01*
X151465699Y-76758320D01*
X151471261Y-76760624D01*
X152580733Y-77252205D01*
X152586202Y-77254789D01*
X153671029Y-77800216D01*
X153676335Y-77803049D01*
X154734387Y-78401431D01*
X154739592Y-78404545D01*
X155768870Y-79055055D01*
X155773922Y-79058423D01*
X156692133Y-79703808D01*
X156772437Y-79760251D01*
X156777330Y-79763874D01*
X156921229Y-79875973D01*
X157742980Y-80516130D01*
X157747710Y-80520006D01*
X158678474Y-81321859D01*
X158683022Y-81325977D01*
X159576890Y-82176607D01*
X159581235Y-82180952D01*
X160431866Y-83074819D01*
X160435984Y-83079367D01*
X161237838Y-84010130D01*
X161241714Y-84014860D01*
X161993966Y-84980501D01*
X161997593Y-84985400D01*
X162699417Y-85983907D01*
X162702789Y-85988965D01*
X163353299Y-87018241D01*
X163356413Y-87023446D01*
X163954784Y-88081476D01*
X163957636Y-88086817D01*
X164503053Y-89171621D01*
X164505637Y-89177090D01*
X164997212Y-90286544D01*
X164999526Y-90292131D01*
X165436428Y-91424219D01*
X165438468Y-91429913D01*
X165819867Y-92582642D01*
X165821628Y-92588436D01*
X166146662Y-93759712D01*
X166148140Y-93765594D01*
X166415970Y-94953398D01*
X166417161Y-94959359D01*
X166626942Y-96161640D01*
X166627842Y-96167669D01*
X166778733Y-97382411D01*
X166779337Y-97388496D01*
X166870490Y-98613647D01*
X166870794Y-98619775D01*
X166901366Y-99853297D01*
X166901364Y-99859503D01*
X166868993Y-101139742D01*
X166868676Y-101146010D01*
X166772608Y-102409367D01*
X166771976Y-102415596D01*
X166613780Y-103660545D01*
X166612838Y-103666713D01*
X166394078Y-104891698D01*
X166392833Y-104897785D01*
X166115072Y-106101265D01*
X166113532Y-106107252D01*
X165778331Y-107287670D01*
X165776505Y-107293541D01*
X165385431Y-108449323D01*
X165383330Y-108455063D01*
X164937936Y-109584680D01*
X164935569Y-109590278D01*
X164437407Y-110692185D01*
X164434783Y-110697629D01*
X163885452Y-111770184D01*
X163882583Y-111775467D01*
X163283600Y-112817199D01*
X163280493Y-112822313D01*
X162633441Y-113831615D01*
X162630105Y-113836553D01*
X161936551Y-114811856D01*
X161932994Y-114816613D01*
X161194491Y-115756370D01*
X161190720Y-115760940D01*
X160408832Y-116663582D01*
X160404853Y-116667960D01*
X159581151Y-117531912D01*
X159576970Y-117536093D01*
X158713018Y-118359794D01*
X158708640Y-118363773D01*
X157805998Y-119145662D01*
X157801428Y-119149433D01*
X156861671Y-119887936D01*
X156856914Y-119891493D01*
X155881611Y-120585046D01*
X155876673Y-120588382D01*
X154867370Y-121235434D01*
X154862256Y-121238541D01*
X153820540Y-121837514D01*
X153815257Y-121840383D01*
X152742668Y-122389731D01*
X152737224Y-122392355D01*
X151635334Y-122890510D01*
X151629736Y-122892877D01*
X150500113Y-123338272D01*
X150494373Y-123340373D01*
X149338603Y-123731443D01*
X149332732Y-123733269D01*
X148152306Y-124068473D01*
X148146319Y-124070013D01*
X146942839Y-124347774D01*
X146936752Y-124349019D01*
X145711767Y-124567779D01*
X145705599Y-124568721D01*
X144460649Y-124726917D01*
X144454420Y-124727549D01*
X143191063Y-124823616D01*
X143184795Y-124823933D01*
X141903295Y-124856337D01*
X141899625Y-124856376D01*
X141687060Y-124855457D01*
X141685993Y-124855448D01*
X141472054Y-124852682D01*
X141470989Y-124852663D01*
X141257318Y-124848065D01*
X141256253Y-124848038D01*
X141020420Y-124840936D01*
X140992852Y-124836976D01*
X120151561Y-119400000D01*
X128199999Y-119400000D01*
X153599999Y-119500000D01*
X153599998Y-119499999D01*
X153600000Y-119500000D01*
X153100000Y-80100000D01*
X128822739Y-79805133D01*
X128755946Y-79784637D01*
X128710835Y-79731281D01*
X128705214Y-79703808D01*
X128700000Y-79700000D01*
X128400002Y-79799999D01*
X128400000Y-79800000D01*
X128574648Y-79802120D01*
X128641442Y-79822617D01*
X128686552Y-79875973D01*
X128697131Y-79927673D01*
X128199999Y-119400000D01*
X120151561Y-119400000D01*
X115516195Y-118190748D01*
X115485496Y-118178151D01*
X105650653Y-112500000D01*
X109795065Y-112500000D01*
X109814786Y-112826038D01*
X109873667Y-113147341D01*
X109970835Y-113459164D01*
X109970839Y-113459175D01*
X110104897Y-113757041D01*
X110104898Y-113757043D01*
X110273881Y-114036576D01*
X110421476Y-114224968D01*
X110939936Y-113706508D01*
X111133274Y-113706508D01*
X111163722Y-113780017D01*
X111219983Y-113836278D01*
X111293492Y-113866726D01*
X111373056Y-113866726D01*
X111446565Y-113836278D01*
X111502826Y-113780017D01*
X111533274Y-113706508D01*
X111533274Y-113626944D01*
X111502826Y-113553435D01*
X111446565Y-113497174D01*
X111373056Y-113466726D01*
X111293492Y-113466726D01*
X111219983Y-113497174D01*
X111163722Y-113553435D01*
X111133274Y-113626944D01*
X111133274Y-113706508D01*
X110939936Y-113706508D01*
X111563708Y-113082736D01*
X111660967Y-113216602D01*
X111783398Y-113339033D01*
X111917262Y-113436290D01*
X110775030Y-114578522D01*
X110775030Y-114578523D01*
X110963423Y-114726118D01*
X111242956Y-114895101D01*
X111242958Y-114895102D01*
X111540824Y-115029160D01*
X111540835Y-115029164D01*
X111852658Y-115126332D01*
X112173961Y-115185213D01*
X112500000Y-115204934D01*
X112826038Y-115185213D01*
X113147341Y-115126332D01*
X113459164Y-115029164D01*
X113459175Y-115029160D01*
X113757041Y-114895102D01*
X113757043Y-114895101D01*
X114036586Y-114726112D01*
X114224968Y-114578523D01*
X114224968Y-114578522D01*
X113352955Y-113706508D01*
X113466726Y-113706508D01*
X113497174Y-113780017D01*
X113553435Y-113836278D01*
X113626944Y-113866726D01*
X113706508Y-113866726D01*
X113780017Y-113836278D01*
X113836278Y-113780017D01*
X113866726Y-113706508D01*
X113866726Y-113626944D01*
X113836278Y-113553435D01*
X113780017Y-113497174D01*
X113706508Y-113466726D01*
X113626944Y-113466726D01*
X113553435Y-113497174D01*
X113497174Y-113553435D01*
X113466726Y-113626944D01*
X113466726Y-113706508D01*
X113352955Y-113706508D01*
X113082737Y-113436290D01*
X113216602Y-113339033D01*
X113339033Y-113216602D01*
X113436290Y-113082737D01*
X114578522Y-114224968D01*
X114578523Y-114224968D01*
X114726112Y-114036586D01*
X114895101Y-113757043D01*
X114895102Y-113757041D01*
X115029160Y-113459175D01*
X115029164Y-113459164D01*
X115126332Y-113147341D01*
X115185213Y-112826038D01*
X115204934Y-112500000D01*
X115185213Y-112173961D01*
X115126332Y-111852658D01*
X115029164Y-111540835D01*
X115029160Y-111540824D01*
X114895102Y-111242958D01*
X114895101Y-111242956D01*
X114726118Y-110963423D01*
X114578522Y-110775030D01*
X113436290Y-111917262D01*
X113339033Y-111783398D01*
X113216602Y-111660967D01*
X113082736Y-111563709D01*
X113273389Y-111373056D01*
X113466726Y-111373056D01*
X113497174Y-111446565D01*
X113553435Y-111502826D01*
X113626944Y-111533274D01*
X113706508Y-111533274D01*
X113780017Y-111502826D01*
X113836278Y-111446565D01*
X113866726Y-111373056D01*
X113866726Y-111293492D01*
X113836278Y-111219983D01*
X113780017Y-111163722D01*
X113706508Y-111133274D01*
X113626944Y-111133274D01*
X113553435Y-111163722D01*
X113497174Y-111219983D01*
X113466726Y-111293492D01*
X113466726Y-111373056D01*
X113273389Y-111373056D01*
X114224968Y-110421476D01*
X114036576Y-110273881D01*
X113757043Y-110104898D01*
X113757041Y-110104897D01*
X113459175Y-109970839D01*
X113459164Y-109970835D01*
X113147341Y-109873667D01*
X112826038Y-109814786D01*
X112500000Y-109795065D01*
X112173961Y-109814786D01*
X111852658Y-109873667D01*
X111540835Y-109970835D01*
X111540824Y-109970839D01*
X111242958Y-110104897D01*
X111242956Y-110104898D01*
X110963422Y-110273881D01*
X110963416Y-110273886D01*
X110775030Y-110421474D01*
X110775029Y-110421476D01*
X111917262Y-111563709D01*
X111783398Y-111660967D01*
X111660967Y-111783398D01*
X111563709Y-111917262D01*
X111019503Y-111373056D01*
X111133274Y-111373056D01*
X111163722Y-111446565D01*
X111219983Y-111502826D01*
X111293492Y-111533274D01*
X111373056Y-111533274D01*
X111446565Y-111502826D01*
X111502826Y-111446565D01*
X111533274Y-111373056D01*
X111533274Y-111293492D01*
X111502826Y-111219983D01*
X111446565Y-111163722D01*
X111373056Y-111133274D01*
X111293492Y-111133274D01*
X111219983Y-111163722D01*
X111163722Y-111219983D01*
X111133274Y-111293492D01*
X111133274Y-111373056D01*
X111019503Y-111373056D01*
X110421476Y-110775029D01*
X110421474Y-110775030D01*
X110273886Y-110963416D01*
X110273881Y-110963422D01*
X110104898Y-111242956D01*
X110104897Y-111242958D01*
X109970839Y-111540824D01*
X109970835Y-111540835D01*
X109873667Y-111852658D01*
X109814786Y-112173961D01*
X109795065Y-112500000D01*
X105650653Y-112500000D01*
X100501428Y-109527093D01*
X100498608Y-109525415D01*
X100420311Y-109477404D01*
X100402161Y-109463847D01*
X100264511Y-109339913D01*
X100247165Y-109320649D01*
X100139266Y-109172148D01*
X100126306Y-109149703D01*
X100051634Y-108982002D01*
X100043626Y-108957358D01*
X100005112Y-108776200D01*
X100002445Y-108753674D01*
X100000042Y-108661846D01*
X100000000Y-108658603D01*
X100000000Y-106253025D01*
X100000147Y-106246989D01*
X100000363Y-106242548D01*
X100001352Y-106222261D01*
X100010642Y-106180856D01*
X100030659Y-106132529D01*
X100057534Y-106092308D01*
X100092308Y-106057534D01*
X100132529Y-106030659D01*
X100180856Y-106010642D01*
X100222261Y-106001352D01*
X100241421Y-106000418D01*
X100246990Y-106000147D01*
X100253026Y-106000000D01*
X104500015Y-106000000D01*
X104551275Y-105998564D01*
X104578623Y-105997799D01*
X104731927Y-105962809D01*
X104873601Y-105894582D01*
X104996541Y-105796541D01*
X105094582Y-105673601D01*
X105162809Y-105531927D01*
X105197799Y-105378623D01*
X105200000Y-105300000D01*
X105197799Y-105221377D01*
X105162809Y-105068073D01*
X105094582Y-104926399D01*
X104996541Y-104803459D01*
X104873601Y-104705418D01*
X104873599Y-104705417D01*
X104873598Y-104705416D01*
X104731927Y-104637190D01*
X104578625Y-104602201D01*
X104578615Y-104602200D01*
X104500015Y-104600000D01*
X104500000Y-104600000D01*
X104389804Y-104600000D01*
X104322765Y-104580315D01*
X104277010Y-104527511D01*
X104265807Y-104476862D01*
X104260175Y-103666713D01*
X104238513Y-100550362D01*
X104257731Y-100483187D01*
X104310216Y-100437066D01*
X104362510Y-100425500D01*
X104731607Y-100425500D01*
X104792029Y-100413481D01*
X104852452Y-100401463D01*
X104852455Y-100401461D01*
X104852458Y-100401461D01*
X104885787Y-100387654D01*
X104885786Y-100387654D01*
X104885792Y-100387652D01*
X104966286Y-100354312D01*
X105017509Y-100320084D01*
X105068733Y-100285858D01*
X105155858Y-100198733D01*
X105155858Y-100198731D01*
X105166066Y-100188524D01*
X105166067Y-100188521D01*
X106530858Y-98823733D01*
X106599312Y-98721285D01*
X106626932Y-98654603D01*
X106646463Y-98607452D01*
X106650451Y-98587402D01*
X106670501Y-98486606D01*
X106670501Y-98363393D01*
X106670501Y-98358283D01*
X106670500Y-98358257D01*
X106670500Y-97218687D01*
X106690185Y-97151648D01*
X106702350Y-97135715D01*
X106720891Y-97115122D01*
X106777533Y-97052216D01*
X106872179Y-96888284D01*
X106930674Y-96708256D01*
X106950460Y-96520000D01*
X106930674Y-96331744D01*
X106872179Y-96151716D01*
X106777533Y-95987784D01*
X106650871Y-95847112D01*
X106650870Y-95847111D01*
X106497734Y-95735851D01*
X106497729Y-95735848D01*
X106324807Y-95658857D01*
X106324802Y-95658855D01*
X106179001Y-95627865D01*
X106139646Y-95619500D01*
X105950354Y-95619500D01*
X105917897Y-95626398D01*
X105765197Y-95658855D01*
X105765192Y-95658857D01*
X105592270Y-95735848D01*
X105592265Y-95735851D01*
X105439129Y-95847111D01*
X105312466Y-95987785D01*
X105217821Y-96151715D01*
X105217818Y-96151722D01*
X105159327Y-96331740D01*
X105159326Y-96331744D01*
X105139540Y-96520000D01*
X105159326Y-96708256D01*
X105159327Y-96708259D01*
X105217818Y-96888277D01*
X105217821Y-96888284D01*
X105312467Y-97052216D01*
X105355772Y-97100310D01*
X105387650Y-97135715D01*
X105417880Y-97198706D01*
X105419500Y-97218687D01*
X105419500Y-98114547D01*
X105399815Y-98181586D01*
X105383181Y-98202228D01*
X104447229Y-99138181D01*
X104385906Y-99171666D01*
X104359548Y-99174500D01*
X104352090Y-99174500D01*
X104285051Y-99154815D01*
X104239296Y-99102011D01*
X104228093Y-99051362D01*
X104203579Y-95524862D01*
X104222797Y-95457687D01*
X104275282Y-95411566D01*
X104327576Y-95400000D01*
X104500015Y-95400000D01*
X104551275Y-95398564D01*
X104578623Y-95397799D01*
X104731927Y-95362809D01*
X104873601Y-95294582D01*
X104996541Y-95196541D01*
X105094582Y-95073601D01*
X105162809Y-94931927D01*
X105197799Y-94778623D01*
X105200000Y-94700000D01*
X105197799Y-94621377D01*
X105162809Y-94468073D01*
X105094582Y-94326399D01*
X104996541Y-94203459D01*
X104873601Y-94105418D01*
X104873599Y-94105417D01*
X104873598Y-94105416D01*
X104731927Y-94037190D01*
X104578625Y-94002201D01*
X104578615Y-94002200D01*
X104500015Y-94000000D01*
X104500000Y-94000000D01*
X100253026Y-94000000D01*
X100246986Y-93999853D01*
X100237667Y-93999398D01*
X100222260Y-93998647D01*
X100180850Y-93989355D01*
X100132533Y-93969342D01*
X100092305Y-93942462D01*
X100057537Y-93907694D01*
X100030657Y-93867466D01*
X100010642Y-93819145D01*
X100001352Y-93777737D01*
X100000147Y-93753010D01*
X100000000Y-93746974D01*
X100000000Y-91341352D01*
X100000041Y-91338159D01*
X100000048Y-91337880D01*
X100002406Y-91246341D01*
X100005074Y-91223767D01*
X100043585Y-91042625D01*
X100051596Y-91017975D01*
X100126273Y-90850266D01*
X100139232Y-90827825D01*
X100247139Y-90679315D01*
X100264485Y-90660052D01*
X100402126Y-90536127D01*
X100420298Y-90522557D01*
X100498765Y-90474481D01*
X100501276Y-90472985D01*
X105637237Y-87500000D01*
X109795065Y-87500000D01*
X109814786Y-87826038D01*
X109873667Y-88147341D01*
X109970835Y-88459164D01*
X109970839Y-88459175D01*
X110104897Y-88757041D01*
X110104898Y-88757043D01*
X110273881Y-89036576D01*
X110421476Y-89224968D01*
X110939936Y-88706508D01*
X111133274Y-88706508D01*
X111163722Y-88780017D01*
X111219983Y-88836278D01*
X111293492Y-88866726D01*
X111373056Y-88866726D01*
X111446565Y-88836278D01*
X111502826Y-88780017D01*
X111533274Y-88706508D01*
X111533274Y-88626944D01*
X111502826Y-88553435D01*
X111446565Y-88497174D01*
X111373056Y-88466726D01*
X111293492Y-88466726D01*
X111219983Y-88497174D01*
X111163722Y-88553435D01*
X111133274Y-88626944D01*
X111133274Y-88706508D01*
X110939936Y-88706508D01*
X111563708Y-88082736D01*
X111660967Y-88216602D01*
X111783398Y-88339033D01*
X111917262Y-88436290D01*
X110775030Y-89578522D01*
X110775030Y-89578523D01*
X110963423Y-89726118D01*
X111242956Y-89895101D01*
X111242958Y-89895102D01*
X111540824Y-90029160D01*
X111540835Y-90029164D01*
X111852658Y-90126332D01*
X112173961Y-90185213D01*
X112500000Y-90204934D01*
X112826038Y-90185213D01*
X113147341Y-90126332D01*
X113459164Y-90029164D01*
X113459175Y-90029160D01*
X113757041Y-89895102D01*
X113757043Y-89895101D01*
X114036586Y-89726112D01*
X114224968Y-89578523D01*
X114224968Y-89578522D01*
X113352955Y-88706508D01*
X113466726Y-88706508D01*
X113497174Y-88780017D01*
X113553435Y-88836278D01*
X113626944Y-88866726D01*
X113706508Y-88866726D01*
X113780017Y-88836278D01*
X113836278Y-88780017D01*
X113866726Y-88706508D01*
X113866726Y-88626944D01*
X113836278Y-88553435D01*
X113780017Y-88497174D01*
X113706508Y-88466726D01*
X113626944Y-88466726D01*
X113553435Y-88497174D01*
X113497174Y-88553435D01*
X113466726Y-88626944D01*
X113466726Y-88706508D01*
X113352955Y-88706508D01*
X113082737Y-88436290D01*
X113216602Y-88339033D01*
X113339033Y-88216602D01*
X113436290Y-88082737D01*
X114578522Y-89224968D01*
X114578523Y-89224968D01*
X114726112Y-89036586D01*
X114895101Y-88757043D01*
X114895102Y-88757041D01*
X115029160Y-88459175D01*
X115029164Y-88459164D01*
X115126332Y-88147341D01*
X115185213Y-87826038D01*
X115204934Y-87500000D01*
X115185213Y-87173961D01*
X115126332Y-86852658D01*
X115029164Y-86540835D01*
X115029160Y-86540824D01*
X114895102Y-86242958D01*
X114895101Y-86242956D01*
X114726118Y-85963423D01*
X114578522Y-85775030D01*
X113436290Y-86917262D01*
X113339033Y-86783398D01*
X113216602Y-86660967D01*
X113082736Y-86563709D01*
X113273389Y-86373056D01*
X113466726Y-86373056D01*
X113497174Y-86446565D01*
X113553435Y-86502826D01*
X113626944Y-86533274D01*
X113706508Y-86533274D01*
X113780017Y-86502826D01*
X113836278Y-86446565D01*
X113866726Y-86373056D01*
X113866726Y-86293492D01*
X113836278Y-86219983D01*
X113780017Y-86163722D01*
X113706508Y-86133274D01*
X113626944Y-86133274D01*
X113553435Y-86163722D01*
X113497174Y-86219983D01*
X113466726Y-86293492D01*
X113466726Y-86373056D01*
X113273389Y-86373056D01*
X114224968Y-85421476D01*
X114036576Y-85273881D01*
X113757043Y-85104898D01*
X113757041Y-85104897D01*
X113459175Y-84970839D01*
X113459164Y-84970835D01*
X113147341Y-84873667D01*
X112826038Y-84814786D01*
X112500000Y-84795065D01*
X112173961Y-84814786D01*
X111852658Y-84873667D01*
X111540835Y-84970835D01*
X111540824Y-84970839D01*
X111242958Y-85104897D01*
X111242956Y-85104898D01*
X110963422Y-85273881D01*
X110963416Y-85273886D01*
X110775030Y-85421474D01*
X110775029Y-85421476D01*
X111917262Y-86563709D01*
X111783398Y-86660967D01*
X111660967Y-86783398D01*
X111563709Y-86917262D01*
X111019503Y-86373056D01*
X111133274Y-86373056D01*
X111163722Y-86446565D01*
X111219983Y-86502826D01*
X111293492Y-86533274D01*
X111373056Y-86533274D01*
X111446565Y-86502826D01*
X111502826Y-86446565D01*
X111533274Y-86373056D01*
X111533274Y-86293492D01*
X111502826Y-86219983D01*
X111446565Y-86163722D01*
X111373056Y-86133274D01*
X111293492Y-86133274D01*
X111219983Y-86163722D01*
X111163722Y-86219983D01*
X111133274Y-86293492D01*
X111133274Y-86373056D01*
X111019503Y-86373056D01*
X110421476Y-85775029D01*
X110421474Y-85775030D01*
X110273886Y-85963416D01*
X110273881Y-85963422D01*
X110104898Y-86242956D01*
X110104897Y-86242958D01*
X109970839Y-86540824D01*
X109970835Y-86540835D01*
X109873667Y-86852658D01*
X109814786Y-87173961D01*
X109795065Y-87500000D01*
X105637237Y-87500000D01*
X115465734Y-81810710D01*
X115496021Y-81798185D01*
X137567948Y-75936211D01*
X141613274Y-74861833D01*
X141644158Y-74857682D01*
X141670902Y-74857478D01*
X141772185Y-74856706D01*
X141772264Y-74856705D01*
X141899620Y-74856396D01*
X141902983Y-74856433D01*
G37*
G04 #@! TD.AperFunction*
M02*
