<?xml version="1.0" encoding="UTF-8" standalone="no"?>
<svg
   version="1.1"
   width="297.0022mm"
   height="210.0072mm"
   viewBox="0.0000 0.0000 297.0022 210.0072"
   id="svg967"
   sodipodi:docname="hexpansion-inkscape-project-WithMask.svg"
   inkscape:version="1.3.2 (091e20e, 2023-11-25, custom)"
   xml:space="preserve"
   xmlns:inkscape="http://www.inkscape.org/namespaces/inkscape"
   xmlns:sodipodi="http://sodipodi.sourceforge.net/DTD/sodipodi-0.dtd"
   xmlns="http://www.w3.org/2000/svg"
   xmlns:svg="http://www.w3.org/2000/svg"
   xmlns:rdf="http://www.w3.org/1999/02/22-rdf-syntax-ns#"
   xmlns:cc="http://creativecommons.org/ns#"
   xmlns:dc="http://purl.org/dc/elements/1.1/"><defs
     id="defs967"><linearGradient
       id="swatch7"
       inkscape:swatch="solid"><stop
         style="stop-color:#000000;stop-opacity:1;"
         offset="0"
         id="stop7" /></linearGradient><inkscape:path-effect
       effect="bspline"
       id="path-effect5"
       is_visible="true"
       lpeversion="1.3"
       weight="33.333333"
       steps="2"
       helper_size="0"
       apply_no_weight="true"
       apply_with_weight="true"
       only_selected="false"
       uniform="false" /><inkscape:path-effect
       effect="bspline"
       id="path-effect4"
       is_visible="true"
       lpeversion="1.3"
       weight="33.333333"
       steps="2"
       helper_size="0"
       apply_no_weight="true"
       apply_with_weight="true"
       only_selected="false"
       uniform="false" /><inkscape:path-effect
       effect="bspline"
       id="path-effect3"
       is_visible="true"
       lpeversion="1.3"
       weight="33.333333"
       steps="2"
       helper_size="0"
       apply_no_weight="true"
       apply_with_weight="true"
       only_selected="false"
       uniform="false" /><inkscape:path-effect
       effect="bspline"
       id="path-effect2"
       is_visible="true"
       lpeversion="1.3"
       weight="33.333333"
       steps="2"
       helper_size="0"
       apply_no_weight="true"
       apply_with_weight="true"
       only_selected="false"
       uniform="false" /><rect
       x="244.30539"
       y="403.75797"
       width="120.91526"
       height="36.769552"
       id="rect19396" /><rect
       x="490.84533"
       y="415.1199"
       width="71.845331"
       height="27.130101"
       id="rect10600" /><inkscape:path-effect
       effect="bspline"
       id="path-effect5-9"
       is_visible="true"
       lpeversion="1.3"
       weight="33.333333"
       steps="2"
       helper_size="0"
       apply_no_weight="true"
       apply_with_weight="true"
       only_selected="false"
       uniform="false" /><inkscape:path-effect
       effect="bspline"
       id="path-effect3-2"
       is_visible="true"
       lpeversion="1.3"
       weight="33.333333"
       steps="2"
       helper_size="0"
       apply_no_weight="true"
       apply_with_weight="true"
       only_selected="false"
       uniform="false" /><pattern
       id="EMFhbasepattern"
       patternUnits="userSpaceOnUse"
       width="6"
       height="6"
       x="0"
       y="0" /></defs><sodipodi:namedview
     id="namedview967"
     pagecolor="#ffffff"
     bordercolor="#000000"
     borderopacity="0.25"
     inkscape:showpageshadow="2"
     inkscape:pageopacity="0.0"
     inkscape:pagecheckerboard="0"
     inkscape:deskcolor="#d1d1d1"
     inkscape:document-units="mm"
     inkscape:zoom="4.179952"
     inkscape:cx="462.68474"
     inkscape:cy="390.07625"
     inkscape:window-width="2560"
     inkscape:window-height="1369"
     inkscape:window-x="-8"
     inkscape:window-y="-8"
     inkscape:window-maximized="1"
     inkscape:current-layer="layer8" /><title
     id="title1">SVG Image created as hexpansion-Edge_Cuts.svg date 2024/04/06 12:48:09 </title><desc
     id="desc1">Image generated by PCBNEW </desc><g
     inkscape:groupmode="layer"
     id="layer2"
     inkscape:label="Import"
     transform="rotate(90,138.57893,103.66209)"
     style="display:none"
     sodipodi:insensitive="true"><g
       id="g2"
       transform="translate(91.58678,29.861719)"><g
         id="layer1-9"
         inkscape:label="Text and Guidance"
         style="display:inline"><text
           xml:space="preserve"
           style="font-style:normal;font-variant:normal;font-weight:normal;font-stretch:normal;font-size:2.11667px;line-height:1;font-family:sans-serif;-inkscape-font-specification:'sans-serif, Normal';font-variant-ligatures:normal;font-variant-caps:normal;font-variant-numeric:normal;font-variant-east-asian:normal;letter-spacing:0px;fill:#ff00ff;fill-opacity:1;stroke:#ff00ff;stroke-width:0.1;stroke-opacity:0.913725"
           x="63.719635"
           y="99.37989"
           id="text10546"><tspan
             sodipodi:role="line"
             id="tspan10544"
             style="font-style:normal;font-variant:normal;font-weight:normal;font-stretch:normal;font-size:1.76389px;font-family:sans-serif;-inkscape-font-specification:'sans-serif, Normal';font-variant-ligatures:normal;font-variant-caps:normal;font-variant-numeric:normal;font-variant-east-asian:normal;opacity:0;fill:#ff00ff;fill-opacity:1;stroke:#ff00ff;stroke-width:0.1;stroke-opacity:0.913725"
             x="63.719635"
             y="99.37989">Mounting holes are optional</tspan><tspan
             sodipodi:role="line"
             style="font-style:normal;font-variant:normal;font-weight:normal;font-stretch:normal;font-size:1.76389px;font-family:sans-serif;-inkscape-font-specification:'sans-serif, Normal';font-variant-ligatures:normal;font-variant-caps:normal;font-variant-numeric:normal;font-variant-east-asian:normal;opacity:0;fill:#ff00ff;fill-opacity:1;stroke:#ff00ff;stroke-width:0.1;stroke-opacity:0.913725"
             x="63.719635"
             y="101.49656"
             id="tspan10604">and designed for M2 screws</tspan></text><text
           xml:space="preserve"
           style="font-style:normal;font-variant:normal;font-weight:normal;font-stretch:normal;font-size:2.11667px;line-height:1;font-family:sans-serif;-inkscape-font-specification:'sans-serif, Normal';font-variant-ligatures:normal;font-variant-caps:normal;font-variant-numeric:normal;font-variant-east-asian:normal;letter-spacing:0px;display:inline;fill:#0000ff;fill-opacity:1;stroke:#0000ff;stroke-width:0.1;stroke-opacity:1"
           x="15.100538"
           y="95.618439"
           id="text10546-5"><tspan
             sodipodi:role="line"
             style="font-style:normal;font-variant:normal;font-weight:normal;font-stretch:normal;font-size:1.76389px;font-family:sans-serif;-inkscape-font-specification:'sans-serif, Normal';font-variant-ligatures:normal;font-variant-caps:normal;font-variant-numeric:normal;font-variant-east-asian:normal;text-align:center;text-anchor:middle;opacity:0;fill:#0000ff;fill-opacity:1;stroke:#0000ff;stroke-width:0.1;stroke-opacity:1"
             x="15.100538"
             y="95.618439"
             id="tspan10604-0">Visible ˄</tspan></text><text
           xml:space="preserve"
           style="font-style:normal;font-variant:normal;font-weight:normal;font-stretch:normal;font-size:2.11667px;line-height:1;font-family:sans-serif;-inkscape-font-specification:'sans-serif, Normal';font-variant-ligatures:normal;font-variant-caps:normal;font-variant-numeric:normal;font-variant-east-asian:normal;text-align:center;letter-spacing:0px;text-anchor:middle;display:inline;fill:#0000ff;fill-opacity:1;stroke:#0000ff;stroke-width:0.1;stroke-opacity:1"
           x="13.247936"
           y="98.332031"
           id="text10546-5-3"><tspan
             sodipodi:role="line"
             style="font-style:normal;font-variant:normal;font-weight:normal;font-stretch:normal;font-size:1.76389px;font-family:sans-serif;-inkscape-font-specification:'sans-serif, Normal';font-variant-ligatures:normal;font-variant-caps:normal;font-variant-numeric:normal;font-variant-east-asian:normal;text-align:center;text-anchor:middle;opacity:0;fill:#0000ff;fill-opacity:1;stroke:#0000ff;stroke-width:0.1;stroke-opacity:1"
             x="13.247936"
             y="98.332031"
             id="tspan10604-0-7">Not Visible ˅</tspan></text><text
           xml:space="preserve"
           style="font-style:normal;font-variant:normal;font-weight:normal;font-stretch:normal;font-size:2.11667px;line-height:1;font-family:sans-serif;-inkscape-font-specification:'sans-serif, Normal';font-variant-ligatures:normal;font-variant-caps:normal;font-variant-numeric:normal;font-variant-east-asian:normal;text-align:center;letter-spacing:0px;text-anchor:middle;display:inline;opacity:1;fill:#000080;fill-opacity:1;stroke:#000080;stroke-width:0.1;stroke-opacity:1"
           x="72.2631"
           y="107.60773"
           id="text10546-5-3-6"><tspan
             sodipodi:role="line"
             style="font-style:normal;font-variant:normal;font-weight:normal;font-stretch:normal;font-size:1.76389px;font-family:sans-serif;-inkscape-font-specification:'sans-serif, Normal';font-variant-ligatures:normal;font-variant-caps:normal;font-variant-numeric:normal;font-variant-east-asian:normal;text-align:center;text-anchor:middle;opacity:0;fill:#000080;fill-opacity:1;stroke:#000080;stroke-width:0.1;stroke-opacity:1"
             x="72.2631"
             y="107.60773"
             id="tspan10604-0-7-7">These tabs are not required</tspan></text><text
           xml:space="preserve"
           style="font-style:normal;font-variant:normal;font-weight:normal;font-stretch:normal;font-size:2.11667px;line-height:1;font-family:sans-serif;-inkscape-font-specification:'sans-serif, Normal';font-variant-ligatures:normal;font-variant-caps:normal;font-variant-numeric:normal;font-variant-east-asian:normal;letter-spacing:0px;display:inline;fill:#0000ff;fill-opacity:1;stroke:#0000ff;stroke-width:0.1;stroke-opacity:0.913725"
           x="67.135643"
           y="92.77269"
           id="text10546-0"><tspan
             sodipodi:role="line"
             style="font-style:normal;font-variant:normal;font-weight:normal;font-stretch:normal;font-size:1.76389px;font-family:sans-serif;-inkscape-font-specification:'sans-serif, Normal';font-variant-ligatures:normal;font-variant-caps:normal;font-variant-numeric:normal;font-variant-east-asian:normal;opacity:0;fill:#0000ff;fill-opacity:1;stroke:#0000ff;stroke-width:0.1;stroke-opacity:0.913725"
             x="67.135643"
             y="92.77269"
             id="tspan19499">To fit in slot, everything below this line</tspan><tspan
             sodipodi:role="line"
             style="font-style:normal;font-variant:normal;font-weight:normal;font-stretch:normal;font-size:1.76389px;font-family:sans-serif;-inkscape-font-specification:'sans-serif, Normal';font-variant-ligatures:normal;font-variant-caps:normal;font-variant-numeric:normal;font-variant-east-asian:normal;opacity:0;fill:#0000ff;fill-opacity:1;stroke:#0000ff;stroke-width:0.1;stroke-opacity:0.913725"
             x="67.135643"
             y="94.889359"
             id="tspan32850">must have a thickness of 1mm</tspan><tspan
             sodipodi:role="line"
             style="font-style:normal;font-variant:normal;font-weight:normal;font-stretch:normal;font-size:1.76389px;font-family:sans-serif;-inkscape-font-specification:'sans-serif, Normal';font-variant-ligatures:normal;font-variant-caps:normal;font-variant-numeric:normal;font-variant-east-asian:normal;opacity:0;fill:#0000ff;fill-opacity:1;stroke:#0000ff;stroke-width:0.1;stroke-opacity:0.913725"
             x="67.135643"
             y="97.006027"
             id="tspan22292" /></text><text
           xml:space="preserve"
           style="font-style:normal;font-variant:normal;font-weight:normal;font-stretch:normal;font-size:2.11667px;line-height:1;font-family:sans-serif;-inkscape-font-specification:'sans-serif, Normal';font-variant-ligatures:normal;font-variant-caps:normal;font-variant-numeric:normal;font-variant-east-asian:normal;text-align:center;letter-spacing:0px;text-anchor:middle;display:inline;fill:#800000;fill-opacity:1;stroke:#800000;stroke-width:0.1;stroke-opacity:0.913725"
           x="81.005058"
           y="82.952682"
           id="text10546-4"><tspan
             sodipodi:role="line"
             style="font-style:normal;font-variant:normal;font-weight:normal;font-stretch:normal;font-size:1.76389px;font-family:sans-serif;-inkscape-font-specification:'sans-serif, Normal';font-variant-ligatures:normal;font-variant-caps:normal;font-variant-numeric:normal;font-variant-east-asian:normal;text-align:center;text-anchor:middle;opacity:0;fill:#800000;fill-opacity:1;stroke:#800000;stroke-width:0.1;stroke-opacity:0.913725"
             x="81.005058"
             y="82.952682"
             id="tspan16085">Hextension template</tspan><tspan
             sodipodi:role="line"
             style="font-style:normal;font-variant:normal;font-weight:normal;font-stretch:normal;font-size:1.76389px;font-family:sans-serif;-inkscape-font-specification:'sans-serif, Normal';font-variant-ligatures:normal;font-variant-caps:normal;font-variant-numeric:normal;font-variant-east-asian:normal;text-align:center;text-anchor:middle;opacity:0;fill:#800000;fill-opacity:1;stroke:#800000;stroke-width:0.1;stroke-opacity:0.913725"
             x="81.005058"
             y="85.069351"
             id="tspan16089">board outline</tspan></text><text
           xml:space="preserve"
           style="font-style:normal;font-variant:normal;font-weight:normal;font-stretch:normal;font-size:2.11667px;line-height:1;font-family:sans-serif;-inkscape-font-specification:'sans-serif, Normal';font-variant-ligatures:normal;font-variant-caps:normal;font-variant-numeric:normal;font-variant-east-asian:normal;text-align:center;letter-spacing:0px;text-anchor:middle;display:inline;fill:#5994dc;fill-opacity:1;stroke:#5994dc;stroke-width:0.1;stroke-opacity:1"
           x="89.946587"
           y="69.689964"
           id="text10546-4-5"><tspan
             sodipodi:role="line"
             style="font-style:normal;font-variant:normal;font-weight:normal;font-stretch:normal;font-size:1.76389px;font-family:sans-serif;-inkscape-font-specification:'sans-serif, Normal';font-variant-ligatures:normal;font-variant-caps:normal;font-variant-numeric:normal;font-variant-east-asian:normal;text-align:center;text-anchor:middle;opacity:0;fill:#5994dc;fill-opacity:1;stroke:#5994dc;stroke-width:0.1;stroke-opacity:1"
             x="89.946587"
             y="69.689964"
             id="tspan16089-6">Hextension hextended</tspan><tspan
             sodipodi:role="line"
             style="font-style:normal;font-variant:normal;font-weight:normal;font-stretch:normal;font-size:1.76389px;font-family:sans-serif;-inkscape-font-specification:'sans-serif, Normal';font-variant-ligatures:normal;font-variant-caps:normal;font-variant-numeric:normal;font-variant-east-asian:normal;text-align:center;text-anchor:middle;opacity:0;fill:#5994dc;fill-opacity:1;stroke:#5994dc;stroke-width:0.1;stroke-opacity:1"
             x="89.946587"
             y="71.806633"
             id="tspan19197">template - not recommended</tspan><tspan
             sodipodi:role="line"
             style="font-style:normal;font-variant:normal;font-weight:normal;font-stretch:normal;font-size:1.76389px;font-family:sans-serif;-inkscape-font-specification:'sans-serif, Normal';font-variant-ligatures:normal;font-variant-caps:normal;font-variant-numeric:normal;font-variant-east-asian:normal;text-align:center;text-anchor:middle;opacity:0;fill:#5994dc;fill-opacity:1;stroke:#5994dc;stroke-width:0.1;stroke-opacity:1"
             x="89.946587"
             y="73.923302"
             id="tspan19199">to exceed this area</tspan></text><path
           style="display:inline;opacity:0.79;fill:#0000ff;fill-opacity:1;stroke:#0000ff;stroke-width:0.270444;stroke-dasharray:0.270444, 0.270444;stroke-dashoffset:0;stroke-opacity:1"
           d="m 15.217306,96.477902 h 56.02552"
           id="path19561-0" /><path
           style="display:inline;opacity:0.79;fill:#000080;fill-opacity:1;stroke:#000080;stroke-width:0.270444;stroke-dasharray:0.270444, 0.270444;stroke-dashoffset:0;stroke-opacity:1"
           d="m 28.520821,107.23376 9.409244,0.0165"
           id="path19561-0-6"
           sodipodi:nodetypes="cc" /><path
           style="display:inline;opacity:0.79;fill:#000080;fill-opacity:1;stroke:#000080;stroke-width:0.270444;stroke-dasharray:0.270444, 0.270444;stroke-dashoffset:0;stroke-opacity:1"
           d="m 48.530065,107.2503 9.409244,0.0165"
           id="path19561-0-6-6"
           sodipodi:nodetypes="cc" /></g><g
         id="layer5"
         inkscape:label="Visibility Line" /><g
         id="layer3"
         inkscape:label="Mounting Holes"><circle
           style="opacity:1;fill:none;fill-opacity:0.792157;stroke:#ff00ff;stroke-width:0.17;stroke-dasharray:none;stroke-dashoffset:0;stroke-opacity:1"
           id="path22974"
           cx="30.729809"
           cy="99.947495"
           r="1.125" /><circle
           style="fill:none;fill-opacity:0.792157;stroke:#ff00ff;stroke-width:0.17;stroke-dasharray:none;stroke-dashoffset:0;stroke-opacity:1"
           id="path22974-6"
           cx="55.730087"
           cy="99.95031"
           r="1.125" /></g><g
         id="layer4"
         inkscape:label="Hextension Extended"
         style="display:inline"><path
           d="m 5.605065,27.425305 v 27.8 0 l 19.4385,41.72499 v 0 0 0 l 8.6602,15.000005 h 1e-4 c 0.17861,0.30936 0.50868,0.49995 0.8659,0.5 v 0 h 2.4103 v 0 c 0.13807,0 0.25,-0.11193 0.25,-0.25 v -4.25 c 0,-0.3866 0.3134,-0.7 0.7,-0.7 v 0 c 0.3866,0 0.7,0.3134 0.7,0.7 v 0 6.05 0 c 0,0.11045 0.0895,0.2 0.2,0.2 v 0 h 8.8 v 0 c 0.11046,0 0.2,-0.0896 0.2,-0.2 v 0 -6.05 0 c 0,-0.3866 0.3134,-0.7 0.7,-0.7 v 0 c 0.3866,0 0.7,0.3134 0.7,0.7 v 0 4.25 0 c 0,0.13807 0.11193,0.25 0.25,0.25 v 0 h 2.4102 v 0 c 0.35729,2e-5 0.68746,-0.19058 0.8661,-0.5 v 0 l 8.6602,-15.000005 v 0 0 l 19.513493,-41.74999 v 0 -27.8 0 z"
           id="path8"
           style="display:inline;fill:none;stroke:#5994dc;stroke-width:0.15;stroke-linecap:round;stroke-linejoin:round;stroke-opacity:1"
           sodipodi:nodetypes="cccccccccsccssssssccssccssccssssccssccsscccccccccc" /></g><g
         id="layer2-0"
         inkscape:label="Hextension Template"
         style="display:inline"><g
           style="fill:none;stroke:#800000;stroke-width:0.15;stroke-linecap:round;stroke-linejoin:round;stroke-dasharray:none;stroke-opacity:1"
           id="g760"
           transform="rotate(-90,59.015181,53.485115)"><path
             id="path740"
             sodipodi:type="inkscape:offset"
             inkscape:radius="0"
             inkscape:original="M 0.30078125 31.699219 L 4.5507812 31.699219 L 0.30078125 31.699219 z "
             d="M 0.30078125,31.699219 H 4.5507812 Z"
             style="fill:none;stroke:#800000;stroke-width:0.15;stroke-dasharray:none" /><path
             d="m 4.55,31.7 c 0.3865993,0 0.7,0.313401 0.7,0.7 v 0 c 0,0.386599 -0.3134007,0.7 -0.7,0.7 v 0 H -1.5 v 0 c -0.1104569,0 -0.2,0.08954 -0.2,0.2 v 0 8.8 0 c 0,0.11046 0.089543,0.2 0.2,0.2 v 0 h 6.05 v 0 c 0.3865993,0 0.7,0.313401 0.7,0.7 v 0 c 0,0.386599 -0.3134007,0.7 -0.7,0.7 v 0 H 0.3 v 0 c -0.13807119,0 -0.25,0.111929 -0.25,0.25 v 0 2.4102 0 c -2.665e-5,0.357292 0.19057584,0.687454 0.5,0.8661 v 0 l 15,8.6602 v 0 c 0.309401,0.178633 0.690599,0.178633 1,0 v 0 l 15,-8.6602 v -1e-4 c 0.309393,-0.178628 0.499991,-0.508743 0.5,-0.866 v 0 -17.3205 0 c -9e-6,-0.357257 -0.190607,-0.687372 -0.5,-0.866 v 0 l -15,-8.6602 v 0 c -0.309401,-0.178633 -0.690599,-0.178633 -1,0 v 0 l -15,8.6602 v 10e-5 c -0.30936228,0.17861 -0.4999552,0.508679 -0.5,0.8659 v 0 2.4103 0 c 0,0.138071 0.11192881,0.25 0.25,0.25 z"
             id="path756"
             sodipodi:nodetypes="ccccccccccccccccccccccccccccccccccccccccccccccccccc"
             style="fill:none;stroke:#800000;stroke-width:0.15;stroke-dasharray:none" /></g></g></g></g><g
     inkscape:groupmode="layer"
     id="layer1"
     inkscape:label="Exported-EdgeCuts"
     style="display:none;stroke:#000000;stroke-width:0.2;stroke-dasharray:none;stroke-opacity:1"><path
       d="M 100.25,106 A 0.25,0.25 0 0 0 100,106.25"
       id="path952"
       style="fill:none;stroke:#d84141;stroke-width:0.2;stroke-linecap:round;stroke-linejoin:round;stroke-dasharray:none;stroke-opacity:1" /><path
       d="m 100,108.6602 a 1,1 0 0 0 0.5,0.8661"
       id="path953"
       style="fill:none;stroke:#d84141;stroke-width:0.2;stroke-linecap:round;stroke-linejoin:round;stroke-dasharray:none;stroke-opacity:1" /><path
       d="M 98.25,104.4 V 95.6"
       id="path957"
       style="fill:none;stroke:#d84141;stroke-width:0.2;stroke-linecap:round;stroke-linejoin:round;stroke-dasharray:none;stroke-opacity:1" /><path
       d="m 104.5,94 h -4.25"
       id="path958"
       style="fill:none;stroke:#d84141;stroke-width:0.2;stroke-linecap:round;stroke-linejoin:round;stroke-dasharray:none;stroke-opacity:1" /><path
       d="M 104.5,95.4 H 98.45"
       id="path959"
       style="fill:none;stroke:#d84141;stroke-width:0.2;stroke-linecap:round;stroke-linejoin:round;stroke-dasharray:none;stroke-opacity:1" /><path
       d="M 104.5,104.6 H 98.45"
       id="path960"
       style="fill:none;stroke:#d84141;stroke-width:0.2;stroke-linecap:round;stroke-linejoin:round;stroke-dasharray:none;stroke-opacity:1" /><path
       d="m 104.5,106 h -4.25"
       id="path961"
       style="fill:none;stroke:#d84141;stroke-width:0.2;stroke-linecap:round;stroke-linejoin:round;stroke-dasharray:none;stroke-opacity:1" /><path
       d="m 98.45,95.4 a 0.2,0.2 0 0 0 -0.2,0.2"
       id="path962"
       style="fill:none;stroke:#d84141;stroke-width:0.2;stroke-linecap:round;stroke-linejoin:round;stroke-dasharray:none;stroke-opacity:1" /><path
       d="m 98.25,104.4 a 0.2,0.2 0 0 0 0.2,0.2"
       id="path963"
       style="fill:none;stroke:#d84141;stroke-width:0.2;stroke-linecap:round;stroke-linejoin:round;stroke-dasharray:none;stroke-opacity:1" /><path
       d="M 105.2,94.7 A 0.7,0.7 0 0 0 104.5,94"
       id="path964"
       style="fill:none;stroke:#d84141;stroke-width:0.2;stroke-linecap:round;stroke-linejoin:round;stroke-dasharray:none;stroke-opacity:1" /><path
       d="m 105.2,105.3 a 0.7,0.7 0 0 0 -0.7,-0.7"
       id="path965"
       style="fill:none;stroke:#d84141;stroke-width:0.2;stroke-linecap:round;stroke-linejoin:round;stroke-dasharray:none;stroke-opacity:1" /><path
       d="m 104.5,95.4 a 0.7,0.7 0 0 0 0.7,-0.7"
       id="path966"
       style="fill:none;stroke:#d84141;stroke-width:0.2;stroke-linecap:round;stroke-linejoin:round;stroke-dasharray:none;stroke-opacity:1" /><path
       d="m 104.5,106 a 0.7,0.7 0 0 0 0.7,-0.7"
       id="path967"
       style="fill:none;stroke:#d84141;stroke-width:0.2;stroke-linecap:round;stroke-linejoin:round;stroke-dasharray:none;stroke-opacity:1" /><path
       d="m 100.5,109.5263 15,8.6602"
       id="path946"
       style="fill:none;stroke:#d84141;stroke-width:0.2;stroke-linecap:round;stroke-linejoin:round;stroke-dasharray:none;stroke-opacity:1" /><path
       d="M 100,93.75 V 91.3397"
       id="path948"
       style="fill:none;stroke:#d84141;stroke-width:0.2;stroke-linecap:round;stroke-linejoin:round;stroke-dasharray:none;stroke-opacity:1" /><path
       d="M 100.5,90.4738 A 1,1 0 0 0 100,91.3397"
       id="path949"
       style="fill:none;stroke:#d84141;stroke-width:0.2;stroke-linecap:round;stroke-linejoin:round;stroke-dasharray:none;stroke-opacity:1" /><path
       d="m 100,106.25 v 2.4102"
       id="path950"
       style="fill:none;stroke:#d84141;stroke-width:0.2;stroke-linecap:round;stroke-linejoin:round;stroke-dasharray:none;stroke-opacity:1" /><path
       d="M 100,93.75 A 0.25,0.25 0 0 0 100.25,94"
       id="path944"
       style="fill:none;stroke:#d84141;stroke-width:0.2;stroke-linecap:round;stroke-linejoin:round;stroke-dasharray:none;stroke-opacity:1" /><path
       d="m 100.5,90.4737 15,-8.6602"
       id="path942"
       style="fill:none;stroke:#d84141;stroke-width:0.2;stroke-linecap:round;stroke-linejoin:round;stroke-dasharray:none;stroke-opacity:1" /><path
       d="m 100,108.6602 a 1,1 0 0 0 0.5,0.8661"
       id="path927"
       style="fill:none;stroke:#d84141;stroke-width:0.2;stroke-linecap:round;stroke-linejoin:round;stroke-dasharray:none;stroke-opacity:1" /><path
       d="M 98.25,104.4 V 95.6"
       id="path931"
       style="fill:none;stroke:#d84141;stroke-width:0.2;stroke-linecap:round;stroke-linejoin:round;stroke-dasharray:none;stroke-opacity:1" /><path
       d="m 104.5,94 h -4.25"
       id="path932"
       style="fill:none;stroke:#d84141;stroke-width:0.2;stroke-linecap:round;stroke-linejoin:round;stroke-dasharray:none;stroke-opacity:1" /><path
       d="M 104.5,95.4 H 98.45"
       id="path933"
       style="fill:none;stroke:#d84141;stroke-width:0.2;stroke-linecap:round;stroke-linejoin:round;stroke-dasharray:none;stroke-opacity:1" /><path
       d="M 104.5,104.6 H 98.45"
       id="path934"
       style="fill:none;stroke:#d84141;stroke-width:0.2;stroke-linecap:round;stroke-linejoin:round;stroke-dasharray:none;stroke-opacity:1" /><path
       d="m 104.5,106 h -4.25"
       id="path935"
       style="fill:none;stroke:#d84141;stroke-width:0.2;stroke-linecap:round;stroke-linejoin:round;stroke-dasharray:none;stroke-opacity:1" /><path
       d="m 98.45,95.4 a 0.2,0.2 0 0 0 -0.2,0.2"
       id="path936"
       style="fill:none;stroke:#d84141;stroke-width:0.2;stroke-linecap:round;stroke-linejoin:round;stroke-dasharray:none;stroke-opacity:1" /><path
       d="m 98.25,104.4 a 0.2,0.2 0 0 0 0.2,0.2"
       id="path937"
       style="fill:none;stroke:#d84141;stroke-width:0.2;stroke-linecap:round;stroke-linejoin:round;stroke-dasharray:none;stroke-opacity:1" /><path
       d="M 105.2,94.7 A 0.7,0.7 0 0 0 104.5,94"
       id="path938"
       style="fill:none;stroke:#d84141;stroke-width:0.2;stroke-linecap:round;stroke-linejoin:round;stroke-dasharray:none;stroke-opacity:1" /><path
       d="m 105.2,105.3 a 0.7,0.7 0 0 0 -0.7,-0.7"
       id="path939"
       style="fill:none;stroke:#d84141;stroke-width:0.2;stroke-linecap:round;stroke-linejoin:round;stroke-dasharray:none;stroke-opacity:1" /><path
       d="m 104.5,95.4 a 0.7,0.7 0 0 0 0.7,-0.7"
       id="path940"
       style="fill:none;stroke:#d84141;stroke-width:0.2;stroke-linecap:round;stroke-linejoin:round;stroke-dasharray:none;stroke-opacity:1" /><path
       d="m 104.5,106 a 0.7,0.7 0 0 0 0.7,-0.7"
       id="path941"
       style="fill:none;stroke:#d84141;stroke-width:0.2;stroke-linecap:round;stroke-linejoin:round;stroke-dasharray:none;stroke-opacity:1" /><path
       d="m 100.5,90.4737 15,-8.6602"
       id="path916"
       style="fill:none;stroke:#d84141;stroke-width:0.2;stroke-linecap:round;stroke-linejoin:round;stroke-dasharray:none;stroke-opacity:1" /><path
       d="M 100,93.75 A 0.25,0.25 0 0 0 100.25,94"
       id="path918"
       style="fill:none;stroke:#d84141;stroke-width:0.2;stroke-linecap:round;stroke-linejoin:round;stroke-dasharray:none;stroke-opacity:1" /><path
       d="m 100.5,109.5263 15,8.6602"
       id="path920"
       style="fill:none;stroke:#d84141;stroke-width:0.2;stroke-linecap:round;stroke-linejoin:round;stroke-dasharray:none;stroke-opacity:1" /><path
       d="M 100,93.75 V 91.3397"
       id="path922"
       style="fill:none;stroke:#d84141;stroke-width:0.2;stroke-linecap:round;stroke-linejoin:round;stroke-dasharray:none;stroke-opacity:1" /><path
       d="M 100.5,90.4738 A 1,1 0 0 0 100,91.3397"
       id="path923"
       style="fill:none;stroke:#d84141;stroke-width:0.2;stroke-linecap:round;stroke-linejoin:round;stroke-dasharray:none;stroke-opacity:1" /><path
       d="m 100,106.25 v 2.4102"
       id="path924"
       style="fill:none;stroke:#d84141;stroke-width:0.2;stroke-linecap:round;stroke-linejoin:round;stroke-dasharray:none;stroke-opacity:1" /><path
       d="M 100.25,106 A 0.25,0.25 0 0 0 100,106.25"
       id="path926"
       style="fill:none;stroke:#d84141;stroke-width:0.2;stroke-linecap:round;stroke-linejoin:round;stroke-dasharray:none;stroke-opacity:1" /></g><g
     inkscape:groupmode="layer"
     id="layer9"
     inkscape:label="PCB Base Colour"
     style="display:none;opacity:1;stroke:#000000;stroke-opacity:1"><ellipse
       style="display:inline;fill:#000000;fill-opacity:1;stroke:#000000;stroke-width:0.221519;stroke-dasharray:none;stroke-opacity:1"
       id="path7-7"
       cx="142.19797"
       cy="99.766846"
       rx="21.889242"
       ry="21.88924" /></g><g
     inkscape:groupmode="layer"
     id="layer6"
     inkscape:label="Badge_Outline"
     style="display:none;stroke:#000000;stroke-opacity:1"><path
       id="path1"
       style="fill:none;stroke-width:0.253"
       d="m 141.64323,74.857688 a 25,25 0 0 1 0.25823,-0.0013 25,25 0 0 1 25,25 v 0 a 25,25 0 0 1 -25,24.999992 25,25 0 0 1 -0.85954,-0.0148" /><path
       style="fill:none;stroke:#000000;stroke-width:0.264583;stroke-opacity:1"
       d="m 115.50334,118.20143 c 0,0 25.71489,6.63839 25.71489,6.63839"
       id="path5"
       inkscape:original-d="m 115.50334,118.20143 25.71489,6.63839"
       inkscape:path-effect="#path-effect5-9"
       transform="translate(-0.11405749,0.02619339)" /><path
       style="fill:#000000;fill-opacity:1;stroke:#000000;stroke-width:0.264583;stroke-opacity:1"
       d="m 115.49948,81.818664 c 0,0 26.20615,-6.95996 26.20615,-6.95996"
       id="path3"
       inkscape:original-d="m 115.49948,81.818664 26.20615,-6.95996"
       inkscape:path-effect="#path-effect3-2"
       transform="translate(-0.0194314,-0.01623168)" /></g><g
     inkscape:groupmode="layer"
     id="layer7"
     inkscape:label="Mask"
     style="display:none"><path
       id="path7"
       style="fill:#927c45;fill-opacity:1;stroke:#927c45;stroke-width:0.253;stroke-dasharray:none;stroke-opacity:1"
       d="m 142.19804,74.767013 a 25,25 0 0 0 -25.00003,25.000024 25,25 0 0 0 25.00003,25.000023 25,25 0 0 0 25.00002,-25.000023 25,25 0 0 0 -25.00002,-25.000024 z m 0,3.110404 a 21.889242,21.88924 0 0 1 21.8891,21.88962 21.889242,21.88924 0 0 1 -21.8891,21.889103 21.889242,21.88924 0 0 1 -21.8891,-21.889103 21.889242,21.88924 0 0 1 21.8891,-21.88962 z" /><path
       id="path2-4"
       style="display:inline;fill:#927c45;fill-opacity:1;fill-rule:nonzero;stroke:none;stroke-width:0.836801;stroke-dasharray:none;stroke-opacity:1"
       d="m 145.70585,90.194433 c -1.41802,0.09817 -2.53729,0.948027 -3.60386,1.757937 -1.334,-1.558215 -3.6643,-2.275704 -5.56589,-1.362917 -1.68801,0.820799 -2.89791,2.35226 -4.49647,3.306002 -1.88914,1.006894 -4.69282,0.564307 -5.70086,-1.476537 -0.37667,-0.603164 -0.35378,-1.337823 -0.54123,-1.990466 -0.36752,-0.511469 -1.19919,-0.02922 -0.9885,0.551903 -0.0485,1.757034 -0.0226,3.54934 0.6272,5.210533 0.38383,1.040705 1.08602,2.217304 1.98477,3.023494 2.64268,2.409558 6.51732,2.948028 9.93288,2.332948 1.88108,-0.34425 3.38528,-1.603238 4.68551,-2.928618 0.38459,-0.589017 0.63871,0.41755 0.98743,0.62751 1.72565,2.007978 4.54035,2.533568 7.06386,2.542398 2.93282,1.1e-4 5.99748,-1.17875 7.69098,-3.669411 1.25109,-1.720374 1.94418,-3.834898 1.82392,-5.969514 -0.0791,-0.572518 0.15599,-1.238064 -0.13765,-1.751196 -0.41119,-0.492913 -1.10455,0.0032 -0.97846,0.563578 -0.0593,1.947834 -1.8779,3.493607 -3.78276,3.466413 -1.44819,0.09125 -2.74192,-0.697177 -3.77148,-1.639922 -1.49849,-1.113378 -2.98167,-2.699852 -5.00685,-2.605915 -0.0742,0.0041 -0.14835,0.0082 -0.22254,0.01181 z" /></g><g
     inkscape:groupmode="layer"
     id="layer8"
     inkscape:label="SilkScreen"
     style="display:inline"><path
       id="path2"
       style="display:none;fill:#000000;fill-opacity:1;fill-rule:nonzero;stroke:none;stroke-width:0.836801;stroke-dasharray:none;stroke-opacity:1"
       d="m 145.73242,90.730469 c -1.44531,0.107754 -2.57934,1.12315 -3.69922,1.935547 -1.21296,-1.636281 -3.60008,-2.540696 -5.47043,-1.489805 -2.05388,1.077604 -3.44824,3.37901 -5.8742,3.709741 -2.06233,0.37431 -4.41669,-0.717363 -5.07724,-2.790249 -0.15938,-0.391422 -0.14921,-1.002728 -0.30469,-1.294922 -0.004,2.108128 0.005,4.348646 1.0945,6.238291 1.5355,2.883532 4.95775,4.178738 8.08074,4.214158 1.93432,0.0414 3.99897,-0.22966 5.53029,-1.521396 0.75204,-0.501407 1.30815,-1.262986 2.02885,-1.774803 0.84019,-0.249462 1.09098,0.831408 1.64455,1.227467 1.96678,1.911922 4.92855,2.214862 7.53863,2.017762 2.67947,-0.25183 5.29656,-1.703912 6.60353,-4.110904 1.01284,-1.640797 1.38409,-3.601004 1.23841,-5.507606 0.001,-0.154933 0.0841,-0.866738 -0.0622,-0.751719 0.0806,2.384848 -2.28685,4.317631 -4.59571,4.140625 -1.99366,-0.0085 -3.47354,-1.500387 -4.93359,-2.652344 -1.06422,-0.852569 -2.29733,-1.752471 -3.74219,-1.589843 z" /><path
       d="m 131.20955,83.368392 q 0,-0.85958 0.60533,-1.45886 0.60534,-0.60534 1.45887,-0.60534 h 2.58478 q 0.85353,0 1.45887,0.60534 0.60533,0.60534 0.60533,1.45886 v 5.93836 h -1.54966 v -4.90323 q 0,-0.42979 -0.30267,-0.73246 -0.30267,-0.30267 -0.73246,-0.30267 h -1.54966 q -0.42373,0 -0.73246,0.30267 -0.29661,0.30267 -0.29661,0.73246 v 2.57873 q 0,0.21187 0.14528,0.36926 0.15739,0.15133 0.36926,0.15133 0.21186,0 0.3632,-0.15133 0.15133,-0.15739 0.15133,-0.36926 v -1.8039 h 1.54966 v 2.32449 q 0,0.85353 -0.60533,1.45886 -0.60534,0.60534 -1.45886,0.60534 -0.85958,0 -1.45887,-0.60534 -0.60533,-0.605331 -0.60533,-1.45886 z m 4.12839,12.91184 q 0,0.21186 0.15134,0.3632 0.15133,0.15133 0.36925,0.15133 0.21187,0 0.36321,-0.15133 0.15133,-0.15134 0.15133,-0.3632 v -3.87416 h -1.03513 z m -4.12839,-5.93836 h 6.71318 v 7.48802 q 0,0.42373 -0.30267,0.73246 -0.30266,0.30266 -0.73245,0.30266 h -2.0642 q -0.42979,0 -0.73246,-0.30266 -0.30267,-0.30873 -0.30267,-0.73246 v -5.42382 h -2.57873 z m 4.12839,15.363448 q 0,0.21187 0.15134,0.3632 0.15133,0.15134 0.36925,0.15134 0.21187,0 0.36321,-0.15134 0.15133,-0.15133 0.15133,-0.3632 v -3.87415 h -1.03513 z m -4.12839,-5.938348 h 6.71318 v 7.488018 q 0,0.42373 -0.30267,0.73245 -0.30266,0.30267 -0.73245,0.30267 h -2.0642 q -0.42979,0 -0.73246,-0.30267 -0.30267,-0.30872 -0.30267,-0.73245 v -5.42382 h -2.57873 z m 0,9.425088 h 6.71318 v 2.0642 h -2.58479 v 0.90195 l 2.58479,3.2325 v 2.57874 l -3.25671,-4.06787 -3.45647,4.32816 v -2.83903 l 2.57873,-3.2325 v -0.90195 h -2.57873 z"
       id="text3"
       style="font-size:12.3973px;line-height:125%;font-family:'Future Earth';letter-spacing:0px;word-spacing:0px;display:inline;stroke:#020202;stroke-width:0.069917"
       aria-label="GPPK" /><path
       id="path2-4-0"
       style="display:inline;fill:#000000;fill-opacity:1;fill-rule:nonzero;stroke:none;stroke-width:0.836801;stroke-dasharray:none;stroke-opacity:1"
       d="m 151.78236,103.50175 c -0.004,-0.0742 -0.008,-0.14853 -0.0119,-0.22272 -0.0982,-1.41802 -0.94761,-2.53735 -1.75752,-3.603918 1.55822,-1.334 2.2755,-3.66448 1.36271,-5.56607 -0.8208,-1.68801 -2.352,-2.89781 -3.30574,-4.49636 -1.00689,-1.88914 -0.56445,-4.69291 1.4764,-5.70095 0.60316,-0.37667 1.33793,-0.3536 1.99057,-0.54105 0.51147,-0.36752 0.0292,-1.19926 -0.5519,-0.98857 -1.75703,-0.0485 -3.54935,-0.0224 -5.21054,0.62735 -1.0407,0.38383 -2.21739,1.08614 -3.02358,1.98489 -2.40956,2.64268 -2.94827,6.51717 -2.3332,9.93273 0.34425,1.88108 1.60365,3.38527 2.92903,4.6855 0.589,0.38459 -0.41791,0.638818 -0.62787,0.987538 -2.00798,1.72565 -2.53365,4.54014 -2.54248,7.06365 -1.1e-4,2.93282 1.17888,5.99751 3.66954,7.691 1.72037,1.25109 3.83505,1.94444 5.96966,1.82418 0.57252,-0.0791 1.23818,0.15567 1.75131,-0.13797 0.49292,-0.41119 -0.003,-1.10433 -0.56379,-0.97824 -1.94783,-0.0593 -3.49364,-1.87786 -3.46645,-3.78271 -0.0913,-1.44819 0.69747,-2.74231 1.64021,-3.77187 1.11338,-1.49848 2.69946,-2.98123 2.60553,-5.00641 z m -0.52607,0.0708 c 0.032,1.32989 -0.80888,2.47598 -1.60817,3.47369 -1.15195,1.46005 -2.64353,2.93989 -2.65203,4.93355 -0.17701,2.30885 1.75547,4.67618 4.14031,4.59558 0.11502,0.1463 -0.59644,0.063 -0.75137,0.062 -1.9066,0.14568 -3.86688,-0.22533 -5.50768,-1.23816 -2.40698,-1.30697 -3.85903,-3.92427 -4.11086,-6.60374 -0.1971,-2.61007 0.10552,-5.57178 2.01745,-7.53855 0.39606,-0.55357 1.4773,-0.80416 1.22783,-1.644348 -0.51181,-0.7207 -1.27368,-1.27677 -1.77508,-2.02881 -1.29174,-1.53132 -1.56276,-3.5961 -1.52136,-5.53042 0.0354,-3.12298 1.33069,-6.54514 4.21422,-8.08064 1.88964,-1.0895 4.13025,-1.09851 6.23838,-1.09451 -0.2922,0.15548 -0.90359,0.145 -1.29501,0.30438 -2.07289,0.66055 -3.16484,3.01488 -2.79053,5.07721 0.33073,2.42595 2.63225,3.8207 3.70985,5.87457 1.05089,1.87035 0.14645,4.25751 -1.48983,5.47047 0.81239,1.119878 1.82804,2.253688 1.9358,3.698998 0.0102,0.0903 0.016,0.18006 0.0181,0.26872 z" /><path
       id="path7-6-4"
       style="display:inline;fill:#000000;fill-opacity:1;stroke:none;stroke-width:0.653;stroke-dasharray:none;stroke-opacity:1"
       d="m 167.19806,99.767042 a 25,25 0 0 0 -25.00003,-25.00003 25,25 0 0 0 -25.00002,25.00003 25,25 0 0 0 25.00002,25.000018 25,25 0 0 0 25.00003,-25.000018 z m -0.53537,-0.27389 c 0.13499,7.547818 -3.49036,15.059998 -9.50536,19.636528 -6.11159,4.79241 -14.57183,6.35594 -21.99504,4.07314 -7.29671,-2.13875 -13.39642,-7.89546 -15.95355,-15.05541 -2.09169,-5.6507 -1.93148,-12.068668 0.35398,-17.632518 1.70271,-4.192091 4.60665,-7.88135 8.26875,-10.534761 3.65495,-2.658989 8.05894,-4.278779 12.56771,-4.599199 4.47697,-0.34203 9.03459,0.59962 13.02194,2.6572 4.01723,2.075149 7.43594,5.28169 9.75651,9.161719 1.8808,3.12622 3.01017,6.6728 3.38533,10.297041 0.007,0.16236 0.0147,0.32445 0.0222,0.486799 0.0428,0.502641 0.0685,1.00628 0.0775,1.50946 z m -2.04535,0.26355 c -0.053,-1.73199 -0.2011,-3.46804 -0.62322,-5.15214 -0.69792,-2.98288 -2.03472,-5.80506 -3.85868,-8.26202 -1.73314,-2.30185 -3.89784,-4.27456 -6.37015,-5.75728 -2.30671,-1.38689 -4.86576,-2.37101 -7.51737,-2.84478 -3.04172,-0.57083 -6.20369,-0.48518 -9.21236,0.23099 -2.9829,0.69792 -5.80505,2.03524 -8.26203,3.8592 -2.30184,1.73313 -4.27405,3.89733 -5.75676,6.36963 -1.40247,2.33568 -2.39818,4.92902 -2.86132,7.61659 -0.55714,3.00997 -0.46088,6.137788 0.24753,9.113138 0.69735,2.98382 2.03632,5.80491 3.85868,8.26358 1.73627,2.29816 3.89819,4.26987 6.36809,5.7552 2.30806,1.38583 4.86706,2.37186 7.51943,2.84531 5.85329,1.13061 12.12315,-0.25619 16.97468,-3.71295 5.89012,-4.09064 9.54205,-11.15418 9.49348,-18.324468 z m -0.52969,0.0103 a 21.88924,21.889242 0 0 1 -21.88962,21.889098 21.88924,21.889242 0 0 1 -21.8891,-21.889098 21.88924,21.889242 0 0 1 21.8891,-21.8891 21.88924,21.889242 0 0 1 21.88962,21.8891 z" /></g><g
     inkscape:groupmode="layer"
     id="layer10"
     inkscape:label="Temp Layer"
     style="display:inline" /><metadata
     id="metadata7"><rdf:RDF><cc:Work
         rdf:about=""><dc:title>SVG Image created as hexpansion-Edge_Cuts.svg date 2024/04/06 12:48:09 </dc:title></cc:Work></rdf:RDF></metadata></svg>
